<svg width="220" height="240" viewBox="0 0 220 240" fill="none" xmlns="http://www.w3.org/2000/svg">
<rect width="220" height="240" fill="#1D8C00"/>
<path d="M52.4003 118.419C51.2151 114.289 45.7607 114.69 45.7607 114.69L45.9104 117.562C49.0638 117.027 51.0237 120.663 51.0237 120.663L52.4003 118.419Z" fill="#E0E0E0"/>
<path d="M132.496 70.7382C138.823 72.6244 142.76 65.4438 142.76 65.4438L138.911 63.2852C137.029 67.6839 130.709 67.1751 130.709 67.1751L132.496 70.7382Z" fill="#E0E0E0"/>
<path d="M185.02 109.285C183.795 105.851 179.201 106.474 179.201 106.474L179.482 108.897C182.121 108.28 183.975 111.256 183.975 111.256L185.02 109.285Z" fill="#E0E0E0"/>
<path d="M112.446 28.855C111.222 25.4215 106.628 26.0441 106.628 26.0441L106.909 28.4669C109.548 27.8506 111.401 30.8259 111.401 30.8259L112.446 28.855Z" fill="#E0E0E0"/>
<path d="M57.6262 72.7911C56.4018 69.3576 51.8076 69.9795 51.8076 69.9795L52.0883 72.4024C54.7278 71.7854 56.581 74.7613 56.581 74.7613L57.6262 72.7911Z" fill="#EBEBEB"/>
<path d="M46.1085 40.6914C42.4592 41.2805 42.2832 45.8411 42.2832 45.8411L44.757 45.9903C44.5989 43.3254 47.8988 42.0466 47.8988 42.0466L46.1085 40.6914Z" fill="#EBEBEB"/>
<path d="M19.8365 147.506C26.1639 149.393 30.1003 142.211 30.1003 142.211L26.2506 140.053C24.3684 144.451 18.0488 143.943 18.0488 143.943L19.8365 147.506Z" fill="#EBEBEB"/>
<path d="M200.09 71.1354C200.518 68.2524 197.023 67.0142 197.023 67.0142L196.308 68.8359C198.413 69.3637 198.605 72.1518 198.605 72.1518L200.09 71.1354Z" fill="#E0E0E0"/>
<path d="M179.054 39.4692C176.587 41.0805 177.984 44.4672 177.984 44.4672L179.839 43.7751C178.833 41.8807 180.814 39.8788 180.814 39.8788L179.054 39.4692Z" fill="#EBEBEB"/>
<path d="M180.958 87.7363H24.3145V208.401H180.958V87.7363Z" fill="#FAFAFA"/>
<path d="M180.958 208.401C180.957 207.268 180.903 160.53 180.819 87.7363L180.957 87.8722C136.319 87.8804 82.3906 87.8899 24.327 87.9006H24.3135L24.4805 87.7363C24.4741 131.249 24.4683 172.395 24.4632 208.401L24.3129 208.253C117.305 208.341 179.64 208.4 180.958 208.401C179.641 208.402 117.305 208.461 24.3141 208.549H24.1638V208.401C24.1587 172.395 24.1529 131.249 24.1465 87.7363V87.5713H24.3141H24.3276C82.3912 87.582 136.32 87.5915 180.958 87.5997H181.097V87.7363C181.013 160.53 180.959 207.269 180.958 208.401Z" fill="#263238"/>
<path d="M125.92 191.975H79.3523C74.0161 191.975 69.6904 187.719 69.6904 182.468C69.6904 177.217 74.0161 172.96 79.3523 172.96H125.92C131.256 172.96 135.582 177.217 135.582 182.468C135.582 187.719 131.256 191.975 125.92 191.975Z" fill="#1D8C00"/>
<path d="M81.5503 179.023L82.6611 182.486L83.7686 179.023H85.3477V184H84.1445V182.838L84.2608 180.459L83.0576 184H82.2647L81.0581 180.456L81.1743 182.838V184H79.9746V179.023H81.5503ZM90.3277 181.614C90.3277 182.1 90.2376 182.529 90.0576 182.903C89.8776 183.277 89.6213 183.565 89.2886 183.768C88.9582 183.968 88.5811 184.068 88.1572 184.068C87.7334 184.068 87.3574 183.972 87.0293 183.778C86.7012 183.582 86.4448 183.303 86.2603 182.94C86.078 182.578 85.9823 182.162 85.9732 181.693V181.413C85.9732 180.925 86.062 180.495 86.2398 180.124C86.4198 179.75 86.6761 179.462 87.0088 179.259C87.3438 179.056 87.7243 178.955 88.1504 178.955C88.572 178.955 88.9479 179.055 89.2783 179.256C89.6087 179.456 89.8651 179.742 90.0474 180.114C90.232 180.483 90.3254 180.907 90.3277 181.385V181.614ZM89.1074 181.406C89.1074 180.911 89.0243 180.536 88.8579 180.281C88.6939 180.024 88.458 179.895 88.1504 179.895C87.5488 179.895 87.231 180.346 87.1968 181.249L87.1934 181.614C87.1934 182.102 87.2743 182.477 87.4361 182.739C87.5978 183.001 87.8382 183.132 88.1572 183.132C88.4603 183.132 88.6939 183.003 88.8579 182.746C89.022 182.488 89.1052 182.118 89.1074 181.635V181.406ZM93.8653 179.023H95.065V184H93.8653V180.862L92.0777 184H90.8779V179.023H92.0777V182.165L93.8653 179.023ZM99.9663 180.404C99.9663 180.247 99.9048 180.121 99.7818 180.025C99.661 179.929 99.4969 179.881 99.2896 179.881C99.0959 179.881 98.9398 179.928 98.8213 180.021C98.7051 180.113 98.647 180.233 98.647 180.384H97.4507C97.4507 180.11 97.5282 179.865 97.6831 179.649C97.8403 179.432 98.0614 179.264 98.3462 179.143C98.631 179.02 98.9455 178.958 99.2896 178.958C99.882 178.958 100.342 179.083 100.67 179.331C101.001 179.579 101.166 179.927 101.166 180.374C101.166 180.601 101.099 180.81 100.964 180.999C100.832 181.186 100.649 181.334 100.414 181.443C100.683 181.539 100.888 181.685 101.029 181.881C101.173 182.075 101.245 182.316 101.245 182.605C101.245 183.052 101.067 183.408 100.711 183.672C100.356 183.934 99.882 184.065 99.2896 184.065C98.7404 184.065 98.2847 183.936 97.9224 183.679C97.5601 183.419 97.3789 183.066 97.3789 182.619H98.582C98.582 182.767 98.6481 182.893 98.7803 182.995C98.9125 183.095 99.0822 183.146 99.2896 183.146C99.5129 183.146 99.694 183.093 99.833 182.988C99.972 182.883 100.042 182.747 100.042 182.578C100.042 182.332 99.9823 182.159 99.8638 182.059C99.7453 181.956 99.5721 181.905 99.3443 181.905H98.7051V181.016H99.3853C99.7726 181.005 99.9663 180.801 99.9663 180.404ZM104.779 183.07H103.135L102.848 184H101.566L103.391 179.023H104.519L106.358 184H105.069L104.779 183.07ZM103.422 182.144H104.492L103.955 180.418L103.422 182.144ZM108.484 182.031H107.917V184H106.717V179.023H107.917V180.948H108.378L109.335 179.023H110.788L109.42 181.32L110.959 184H109.54L108.484 182.031ZM114.083 183.07H112.438L112.151 184H110.87L112.695 179.023H113.823L115.662 184H114.373L114.083 183.07ZM112.726 182.144H113.795L113.259 180.418L112.726 182.144ZM118.451 180.404C118.451 180.247 118.389 180.121 118.266 180.025C118.145 179.929 117.981 179.881 117.774 179.881C117.58 179.881 117.424 179.928 117.306 180.021C117.189 180.113 117.131 180.233 117.131 180.384H115.935C115.935 180.11 116.013 179.865 116.167 179.649C116.325 179.432 116.546 179.264 116.831 179.143C117.115 179.02 117.43 178.958 117.774 178.958C118.366 178.958 118.827 179.083 119.155 179.331C119.485 179.579 119.65 179.927 119.65 180.374C119.65 180.601 119.583 180.81 119.449 180.999C119.317 181.186 119.133 181.334 118.898 181.443C119.167 181.539 119.372 181.685 119.514 181.881C119.657 182.075 119.729 182.316 119.729 182.605C119.729 183.052 119.551 183.408 119.196 183.672C118.84 183.934 118.366 184.065 117.774 184.065C117.225 184.065 116.769 183.936 116.407 183.679C116.044 183.419 115.863 183.066 115.863 182.619H117.066C117.066 182.767 117.133 182.893 117.265 182.995C117.397 183.095 117.567 183.146 117.774 183.146C117.997 183.146 118.178 183.093 118.317 182.988C118.456 182.883 118.526 182.747 118.526 182.578C118.526 182.332 118.467 182.159 118.348 182.059C118.23 181.956 118.056 181.905 117.829 181.905H117.189V181.016H117.87C118.257 181.005 118.451 180.801 118.451 180.404ZM121.636 180.736H122.255C122.649 180.736 122.998 180.803 123.301 180.938C123.604 181.072 123.836 181.262 123.998 181.508C124.162 181.752 124.244 182.032 124.244 182.349C124.244 182.839 124.062 183.237 123.697 183.542C123.335 183.847 122.847 184 122.234 184H120.433V179.023H121.636V180.736ZM125.803 184H124.606V179.023H125.803V184ZM121.636 181.659V183.077H122.251C122.495 183.077 122.688 183.009 122.829 182.872C122.973 182.735 123.044 182.559 123.044 182.342C123.044 182.137 122.974 181.972 122.833 181.847C122.691 181.721 122.495 181.659 122.245 181.659H121.636Z" fill="black"/>
<path d="M103.934 133.973C97.0681 133.973 91.4834 128.477 91.4834 121.722C91.4834 114.966 97.0688 109.471 103.934 109.471C110.799 109.471 116.384 114.967 116.384 121.722C116.384 128.477 110.799 133.973 103.934 133.973ZM103.934 110.735C97.7767 110.735 92.7681 115.664 92.7681 121.722C92.7681 127.781 97.7773 132.709 103.934 132.709C110.09 132.709 115.099 127.781 115.099 121.722C115.099 115.664 110.09 110.735 103.934 110.735Z" fill="#1D8C00"/>
<path d="M103.031 125.498C102.879 125.498 102.728 125.445 102.606 125.34C101.517 124.397 99.6544 122.763 99.4155 122.41C99.2189 122.119 99.2985 121.727 99.5934 121.533C99.885 121.341 100.277 121.416 100.477 121.698C100.651 121.913 101.831 122.976 103.015 124.009L109.319 118.121C109.575 117.88 109.982 117.89 110.227 118.144C110.471 118.397 110.461 118.798 110.203 119.038L103.472 125.325C103.349 125.44 103.19 125.498 103.031 125.498Z" fill="#1D8C00"/>
<path d="M180.958 99.5242C180.958 99.6152 145.977 99.6886 102.836 99.6886C59.6801 99.6886 24.707 99.6146 24.707 99.5242C24.707 99.4338 59.6801 99.3599 102.836 99.3599C145.977 99.3592 180.958 99.4332 180.958 99.5242Z" fill="#263238"/>
<path d="M29.8572 94.3587C30.3592 94.3587 30.7661 93.9582 30.7661 93.4642C30.7661 92.9703 30.3592 92.5698 29.8572 92.5698C29.3552 92.5698 28.9482 92.9703 28.9482 93.4642C28.9482 93.9582 29.3552 94.3587 29.8572 94.3587Z" fill="#263238"/>
<path d="M33.2488 94.3587C33.7508 94.3587 34.1577 93.9582 34.1577 93.4642C34.1577 92.9703 33.7508 92.5698 33.2488 92.5698C32.7468 92.5698 32.3398 92.9703 32.3398 93.4642C32.3398 93.9582 32.7468 94.3587 33.2488 94.3587Z" fill="#263238"/>
<path d="M37.4986 93.4642C37.4986 93.9585 37.0913 94.3587 36.5896 94.3587C36.0873 94.3587 35.6807 93.9579 35.6807 93.4642C35.6807 92.9699 36.0879 92.5698 36.5896 92.5698C37.0919 92.5692 37.4986 92.9699 37.4986 93.4642Z" fill="#263238"/>
<path d="M181.329 177.085C182.953 179.087 185.805 178.214 187.066 176.853C188.327 175.492 188.776 173.604 189.18 171.805C190.103 167.695 191.022 163.387 189.881 159.33C189.54 158.117 188.995 156.921 188.059 156.064C187.123 155.206 185.739 154.748 184.525 155.144C183.089 155.615 182.272 157.078 181.701 158.457C180.025 162.512 179.283 166.938 179.547 171.308C179.67 173.349 180.052 175.473 181.329 177.085Z" fill="#77BA66"/>
<g opacity="0.2">
<g opacity="0.2">
<path opacity="0.2" d="M181.329 177.085C182.953 179.087 185.805 178.214 187.066 176.853C188.327 175.492 188.776 173.604 189.18 171.805C190.103 167.695 191.022 163.387 189.881 159.33C189.54 158.117 188.995 156.921 188.059 156.064C187.123 155.206 185.739 154.748 184.525 155.144C183.089 155.615 182.272 157.078 181.701 158.457C180.025 162.512 179.283 166.938 179.547 171.308C179.67 173.349 180.052 175.473 181.329 177.085Z" fill="black"/>
</g>
</g>
<path d="M187.589 187.345C189.947 185.957 192.807 185.618 195.54 185.891C197.008 186.038 198.551 186.371 199.609 187.385C200.667 188.398 200.976 190.276 199.899 191.27C199.258 191.862 198.321 192.003 197.443 192.048C195.324 192.154 192.95 191.933 191.338 193.292C190.418 194.066 189.852 195.296 188.721 195.719C187.613 196.133 186.298 195.556 185.634 194.59C184.971 193.625 184.871 192.372 185.078 191.225C185.078 191.226 185.215 188.744 187.589 187.345Z" fill="#77BA66"/>
<path d="M177.429 180.343C178.926 178.354 179.057 175.579 178.186 173.256C177.315 170.934 175.559 169.021 173.579 167.493C171.258 165.702 168.579 164.361 165.74 163.573C164.623 163.262 163.451 163.035 162.305 163.215C161.158 163.395 160.034 164.047 159.561 165.09C158.861 166.632 159.739 168.396 160.659 169.822C162.278 172.334 164.099 174.721 166.099 176.953C167.707 178.749 169.531 180.506 171.853 181.218C174.175 181.931 176.524 181.685 177.628 180.063" fill="#77BA66"/>
<path d="M183.249 208.684C183.277 208.684 183.3 208.342 183.322 207.724C183.347 207.027 183.377 206.152 183.413 205.111C183.466 204.01 183.545 202.7 183.763 201.264C183.98 199.833 184.364 198.272 184.883 196.681C185.424 195.097 186.115 193.647 186.956 192.468C187.789 191.285 188.791 190.404 189.751 189.873C190.708 189.332 191.58 189.082 192.186 188.957C192.799 188.857 193.142 188.787 193.14 188.761C193.139 188.734 192.792 188.751 192.159 188.807C191.534 188.887 190.622 189.101 189.612 189.63C188.598 190.151 187.532 191.048 186.656 192.257C185.771 193.462 185.054 194.946 184.502 196.558C183.974 198.176 183.599 199.752 183.398 201.214C183.197 202.673 183.147 203.996 183.13 205.103C183.116 206.211 183.142 207.106 183.166 207.724C183.192 208.342 183.221 208.684 183.249 208.684Z" fill="#263238"/>
<path d="M183.302 206.674C183.315 206.673 183.315 206.52 183.299 206.231C183.277 205.899 183.249 205.481 183.215 204.969C183.142 203.873 183.041 202.287 182.976 200.325C182.824 196.403 182.821 190.975 183.103 184.992C183.389 179.006 183.931 173.605 184.491 169.719C184.62 168.745 184.756 167.868 184.889 167.099C185.012 166.329 185.117 165.665 185.225 165.126C185.315 164.62 185.388 164.208 185.447 163.881C185.493 163.595 185.511 163.443 185.498 163.44C185.484 163.437 185.44 163.583 185.368 163.864C185.29 164.187 185.192 164.595 185.072 165.097C184.941 165.631 184.813 166.293 184.668 167.061C184.515 167.829 184.359 168.705 184.211 169.678C183.578 173.563 182.99 178.975 182.703 184.973C182.421 190.969 182.469 196.41 182.694 200.337C182.796 202.302 182.94 203.888 183.06 204.982C183.125 205.493 183.178 205.909 183.22 206.239C183.26 206.526 183.288 206.675 183.302 206.674Z" fill="#263238"/>
<path d="M182.66 196.215C182.687 196.212 182.653 195.744 182.566 194.896C182.463 194.052 182.265 192.834 181.927 191.348C181.574 189.867 181.101 188.111 180.413 186.214C179.752 184.309 178.88 182.261 177.806 180.191C175.697 176.02 172.979 172.672 170.671 170.636C170.126 170.092 169.532 169.712 169.053 169.333C168.806 169.152 168.586 168.971 168.365 168.829C168.144 168.698 167.937 168.576 167.746 168.464C167.001 168.028 166.585 167.799 166.572 167.823C166.513 167.913 168.238 168.772 170.479 170.841C172.71 172.906 175.357 176.234 177.449 180.369C178.514 182.423 179.389 184.45 180.065 186.336C180.767 188.213 181.265 189.949 181.651 191.413C182.023 192.882 182.261 194.085 182.411 194.919C182.546 195.755 182.633 196.217 182.66 196.215Z" fill="#263238"/>
<path d="M167.302 125.614C166.116 121.484 160.662 121.885 160.662 121.885L160.812 124.757C163.965 124.221 165.925 127.858 165.925 127.858L167.302 125.614Z" fill="#92C885"/>
<path d="M113.632 77.5654C110.687 77.8726 110.335 81.511 110.335 81.511L112.306 81.7411C112.303 79.6033 115 78.7291 115 78.7291L113.632 77.5654Z" fill="#92C885"/>
<path d="M141.05 39.0222C142.847 43.5259 148.921 42.4785 148.921 42.4785L148.427 39.2725C144.95 40.2182 142.341 36.3535 142.341 36.3535L141.05 39.0222Z" fill="#92C885"/>
<path d="M72.5515 115.104C69.6069 115.411 69.2549 119.049 69.2549 119.049L71.2257 119.279C71.2225 117.141 73.9204 116.267 73.9204 116.267L72.5515 115.104Z" fill="#92C885"/>
<path d="M84.684 53.4133C85.1118 50.5296 81.6179 49.292 81.6179 49.292L80.9023 51.1137C83.008 51.6415 83.1995 54.4297 83.1995 54.4297L84.684 53.4133Z" fill="#92C885"/>
<path d="M34.3411 97.6662C33.8125 102.187 39.8983 103.282 39.8983 103.282L40.9967 100.324C37.3455 99.9986 36.8181 95.7661 36.8181 95.7661L34.3411 97.6662Z" fill="#92C885"/>
<path d="M178.988 75.8508C181.945 76.017 182.89 72.483 182.89 72.483L180.984 71.9419C180.635 74.0518 177.829 74.4848 177.829 74.4848L178.988 75.8508Z" fill="#92C885"/>
<path d="M40.9814 148V139.469H43.7705C44.6963 139.469 45.3916 139.66 45.8564 140.043C46.3252 140.426 46.5596 140.992 46.5596 141.742C46.5596 142.141 46.4463 142.494 46.2197 142.803C45.9932 143.107 45.6846 143.344 45.2939 143.512C45.7549 143.641 46.1182 143.887 46.3838 144.25C46.6533 144.609 46.7881 145.039 46.7881 145.539C46.7881 146.305 46.54 146.906 46.0439 147.344C45.5479 147.781 44.8467 148 43.9404 148H40.9814ZM42.1064 144.01V147.08H43.9639C44.4873 147.08 44.8994 146.945 45.2002 146.676C45.5049 146.402 45.6572 146.027 45.6572 145.551C45.6572 144.523 45.0986 144.01 43.9814 144.01H42.1064ZM42.1064 143.107H43.8057C44.2979 143.107 44.6904 142.984 44.9834 142.738C45.2803 142.492 45.4287 142.158 45.4287 141.736C45.4287 141.268 45.292 140.928 45.0186 140.717C44.7451 140.502 44.3291 140.395 43.7705 140.395H42.1064V143.107ZM52.2021 148C52.1396 147.875 52.0889 147.652 52.0498 147.332C51.5459 147.855 50.9443 148.117 50.2451 148.117C49.6201 148.117 49.1064 147.941 48.7041 147.59C48.3057 147.234 48.1064 146.785 48.1064 146.242C48.1064 145.582 48.3564 145.07 48.8564 144.707C49.3604 144.34 50.0674 144.156 50.9775 144.156H52.0322V143.658C52.0322 143.279 51.9189 142.979 51.6924 142.756C51.4658 142.529 51.1318 142.416 50.6904 142.416C50.3037 142.416 49.9795 142.514 49.7178 142.709C49.4561 142.904 49.3252 143.141 49.3252 143.418H48.2354C48.2354 143.102 48.3467 142.797 48.5693 142.504C48.7959 142.207 49.1006 141.973 49.4834 141.801C49.8701 141.629 50.2939 141.543 50.7549 141.543C51.4854 141.543 52.0576 141.727 52.4717 142.094C52.8857 142.457 53.1006 142.959 53.1162 143.6V146.518C53.1162 147.1 53.1904 147.562 53.3389 147.906V148H52.2021ZM50.4033 147.174C50.7432 147.174 51.0654 147.086 51.3701 146.91C51.6748 146.734 51.8955 146.506 52.0322 146.225V144.924H51.1826C49.8545 144.924 49.1904 145.312 49.1904 146.09C49.1904 146.43 49.3037 146.695 49.5303 146.887C49.7568 147.078 50.0479 147.174 50.4033 147.174ZM55.999 141.66V147.115H58.3193V141.66H59.4033V147.115H61.7178V141.66H62.8076V148H54.9092V141.66H55.999ZM70.9814 143.395C70.9814 143.098 70.8682 142.863 70.6416 142.691C70.415 142.516 70.1045 142.428 69.71 142.428C69.3271 142.428 69.0068 142.527 68.749 142.727C68.4951 142.926 68.3682 143.16 68.3682 143.43H67.29C67.29 142.879 67.5205 142.428 67.9814 142.076C68.4424 141.725 69.0186 141.549 69.71 141.549C70.4521 141.549 71.0303 141.709 71.4443 142.029C71.8584 142.346 72.0654 142.799 72.0654 143.389C72.0654 143.674 71.9795 143.936 71.8076 144.174C71.6357 144.412 71.3916 144.602 71.0752 144.742C71.8135 144.992 72.1826 145.484 72.1826 146.219C72.1826 146.801 71.958 147.262 71.5088 147.602C71.0596 147.941 70.46 148.111 69.71 148.111C68.9795 148.111 68.376 147.934 67.8994 147.578C67.4268 147.219 67.1904 146.734 67.1904 146.125H68.2686C68.2686 146.434 68.4053 146.699 68.6787 146.922C68.9561 147.141 69.2998 147.25 69.71 147.25C70.124 147.25 70.458 147.154 70.7119 146.963C70.9658 146.771 71.0928 146.523 71.0928 146.219C71.0928 145.863 70.9854 145.609 70.7705 145.457C70.5596 145.301 70.2295 145.223 69.7803 145.223H68.6963V144.309H69.874C70.6123 144.289 70.9814 143.984 70.9814 143.395ZM77.5029 148C77.4404 147.875 77.3896 147.652 77.3506 147.332C76.8467 147.855 76.2451 148.117 75.5459 148.117C74.9209 148.117 74.4072 147.941 74.0049 147.59C73.6064 147.234 73.4072 146.785 73.4072 146.242C73.4072 145.582 73.6572 145.07 74.1572 144.707C74.6611 144.34 75.3682 144.156 76.2783 144.156H77.333V143.658C77.333 143.279 77.2197 142.979 76.9932 142.756C76.7666 142.529 76.4326 142.416 75.9912 142.416C75.6045 142.416 75.2803 142.514 75.0186 142.709C74.7568 142.904 74.626 143.141 74.626 143.418H73.5361C73.5361 143.102 73.6475 142.797 73.8701 142.504C74.0967 142.207 74.4014 141.973 74.7842 141.801C75.1709 141.629 75.5947 141.543 76.0557 141.543C76.7861 141.543 77.3584 141.727 77.7725 142.094C78.1865 142.457 78.4014 142.959 78.417 143.6V146.518C78.417 147.1 78.4912 147.562 78.6396 147.906V148H77.5029ZM75.7041 147.174C76.0439 147.174 76.3662 147.086 76.6709 146.91C76.9756 146.734 77.1963 146.506 77.333 146.225V144.924H76.4834C75.1553 144.924 74.4912 145.312 74.4912 146.09C74.4912 146.43 74.6045 146.695 74.8311 146.887C75.0576 147.078 75.3486 147.174 75.7041 147.174ZM82.0908 145.299H81.2998V148H80.21V141.66H81.2998V144.344H82.0088L84.1416 141.66H85.4541L82.9463 144.707L85.665 148H84.2881L82.0908 145.299ZM90.5107 148C90.4482 147.875 90.3975 147.652 90.3584 147.332C89.8545 147.855 89.2529 148.117 88.5537 148.117C87.9287 148.117 87.415 147.941 87.0127 147.59C86.6143 147.234 86.415 146.785 86.415 146.242C86.415 145.582 86.665 145.07 87.165 144.707C87.6689 144.34 88.376 144.156 89.2861 144.156H90.3408V143.658C90.3408 143.279 90.2275 142.979 90.001 142.756C89.7744 142.529 89.4404 142.416 88.999 142.416C88.6123 142.416 88.2881 142.514 88.0264 142.709C87.7646 142.904 87.6338 143.141 87.6338 143.418H86.5439C86.5439 143.102 86.6553 142.797 86.8779 142.504C87.1045 142.207 87.4092 141.973 87.792 141.801C88.1787 141.629 88.6025 141.543 89.0635 141.543C89.7939 141.543 90.3662 141.727 90.7803 142.094C91.1943 142.457 91.4092 142.959 91.4248 143.6V146.518C91.4248 147.1 91.499 147.562 91.6475 147.906V148H90.5107ZM88.7119 147.174C89.0518 147.174 89.374 147.086 89.6787 146.91C89.9834 146.734 90.2041 146.506 90.3408 146.225V144.924H89.4912C88.1631 144.924 87.499 145.312 87.499 146.09C87.499 146.43 87.6123 146.695 87.8389 146.887C88.0654 147.078 88.3564 147.174 88.7119 147.174ZM96.6104 143.395C96.6104 143.098 96.4971 142.863 96.2705 142.691C96.0439 142.516 95.7334 142.428 95.3389 142.428C94.9561 142.428 94.6357 142.527 94.3779 142.727C94.124 142.926 93.9971 143.16 93.9971 143.43H92.9189C92.9189 142.879 93.1494 142.428 93.6104 142.076C94.0713 141.725 94.6475 141.549 95.3389 141.549C96.0811 141.549 96.6592 141.709 97.0732 142.029C97.4873 142.346 97.6943 142.799 97.6943 143.389C97.6943 143.674 97.6084 143.936 97.4365 144.174C97.2646 144.412 97.0205 144.602 96.7041 144.742C97.4424 144.992 97.8115 145.484 97.8115 146.219C97.8115 146.801 97.5869 147.262 97.1377 147.602C96.6885 147.941 96.0889 148.111 95.3389 148.111C94.6084 148.111 94.0049 147.934 93.5283 147.578C93.0557 147.219 92.8193 146.734 92.8193 146.125H93.8975C93.8975 146.434 94.0342 146.699 94.3076 146.922C94.585 147.141 94.9287 147.25 95.3389 147.25C95.7529 147.25 96.0869 147.154 96.3408 146.963C96.5947 146.771 96.7217 146.523 96.7217 146.219C96.7217 145.863 96.6143 145.609 96.3994 145.457C96.1885 145.301 95.8584 145.223 95.4092 145.223H94.3252V144.309H95.5029C96.2412 144.289 96.6104 143.984 96.6104 143.395ZM101.907 144.771C101.907 144.15 102.028 143.592 102.271 143.096C102.517 142.6 102.856 142.217 103.29 141.947C103.728 141.678 104.226 141.543 104.784 141.543C105.647 141.543 106.345 141.842 106.876 142.439C107.411 143.037 107.679 143.832 107.679 144.824V144.9C107.679 145.518 107.56 146.072 107.321 146.564C107.087 147.053 106.749 147.434 106.308 147.707C105.87 147.98 105.366 148.117 104.796 148.117C103.937 148.117 103.239 147.818 102.704 147.221C102.173 146.623 101.907 145.832 101.907 144.848V144.771ZM102.997 144.9C102.997 145.604 103.159 146.168 103.483 146.594C103.812 147.02 104.249 147.232 104.796 147.232C105.347 147.232 105.784 147.018 106.108 146.588C106.433 146.154 106.595 145.549 106.595 144.771C106.595 144.076 106.429 143.514 106.097 143.084C105.769 142.65 105.331 142.434 104.784 142.434C104.249 142.434 103.817 142.646 103.489 143.072C103.161 143.498 102.997 144.107 102.997 144.9ZM108.804 144.947C108.804 143.889 109.009 143.057 109.419 142.451C109.829 141.846 110.392 141.543 111.106 141.543C111.438 141.543 111.729 141.6 111.979 141.713V139H113.063V141.748C113.337 141.611 113.657 141.543 114.024 141.543C114.743 141.543 115.308 141.846 115.718 142.451C116.128 143.057 116.333 143.93 116.333 145.07C116.333 146.004 116.128 146.746 115.718 147.297C115.312 147.848 114.751 148.123 114.036 148.123C113.657 148.123 113.333 148.061 113.063 147.936V150.438H111.979V147.953C111.722 148.066 111.427 148.123 111.095 148.123C110.384 148.123 109.823 147.848 109.413 147.297C109.007 146.746 108.804 145.992 108.804 145.035V144.947ZM115.249 144.947C115.249 144.15 115.112 143.533 114.839 143.096C114.565 142.654 114.188 142.434 113.708 142.434C113.462 142.434 113.247 142.473 113.063 142.551V147.139C113.239 147.205 113.458 147.238 113.72 147.238C114.204 147.238 114.579 147.051 114.845 146.676C115.114 146.301 115.249 145.725 115.249 144.947ZM109.888 145.07C109.888 145.781 110.015 146.32 110.269 146.688C110.522 147.055 110.888 147.238 111.364 147.238C111.591 147.238 111.796 147.203 111.979 147.133V142.533C111.815 142.467 111.614 142.434 111.376 142.434C110.899 142.434 110.532 142.646 110.274 143.072C110.017 143.498 109.888 144.164 109.888 145.07ZM117.458 144.771C117.458 144.15 117.579 143.592 117.821 143.096C118.067 142.6 118.407 142.217 118.841 141.947C119.278 141.678 119.776 141.543 120.335 141.543C121.198 141.543 121.896 141.842 122.427 142.439C122.962 143.037 123.229 143.832 123.229 144.824V144.9C123.229 145.518 123.11 146.072 122.872 146.564C122.638 147.053 122.3 147.434 121.858 147.707C121.421 147.98 120.917 148.117 120.347 148.117C119.487 148.117 118.79 147.818 118.255 147.221C117.724 146.623 117.458 145.832 117.458 144.848V144.771ZM118.548 144.9C118.548 145.604 118.71 146.168 119.034 146.594C119.362 147.02 119.8 147.232 120.347 147.232C120.897 147.232 121.335 147.018 121.659 146.588C121.983 146.154 122.146 145.549 122.146 144.771C122.146 144.076 121.979 143.514 121.647 143.084C121.319 142.65 120.882 142.434 120.335 142.434C119.8 142.434 119.368 142.646 119.04 143.072C118.712 143.498 118.548 144.107 118.548 144.9ZM129.944 144.9C129.944 145.865 129.724 146.643 129.282 147.232C128.841 147.822 128.243 148.117 127.489 148.117C126.72 148.117 126.114 147.873 125.673 147.385V150.438H124.589V141.66H125.579L125.632 142.363C126.073 141.816 126.687 141.543 127.472 141.543C128.233 141.543 128.835 141.83 129.276 142.404C129.722 142.979 129.944 143.777 129.944 144.801V144.9ZM128.86 144.777C128.86 144.062 128.708 143.498 128.403 143.084C128.099 142.67 127.681 142.463 127.149 142.463C126.493 142.463 126.001 142.754 125.673 143.336V146.365C125.997 146.943 126.493 147.232 127.161 147.232C127.681 147.232 128.093 147.027 128.397 146.617C128.706 146.203 128.86 145.59 128.86 144.777ZM134.978 146.564L137.134 141.66H138.487V148H137.403V143.389L135.353 148H134.603L132.511 143.289V148H131.427V141.66H132.833L134.978 146.564ZM145.431 141.66V148H144.341V142.557H142.185L142.056 144.93C141.985 146.02 141.802 146.799 141.505 147.268C141.212 147.736 140.745 147.98 140.104 148H139.671V147.045L139.981 147.021C140.333 146.982 140.585 146.779 140.737 146.412C140.89 146.045 140.987 145.365 141.03 144.373L141.147 141.66H145.431ZM149.802 148.117C148.942 148.117 148.243 147.836 147.704 147.273C147.165 146.707 146.896 145.951 146.896 145.006V144.807C146.896 144.178 147.015 143.617 147.253 143.125C147.495 142.629 147.831 142.242 148.261 141.965C148.694 141.684 149.163 141.543 149.667 141.543C150.491 141.543 151.132 141.814 151.589 142.357C152.046 142.9 152.274 143.678 152.274 144.689V145.141H147.979C147.995 145.766 148.177 146.271 148.524 146.658C148.876 147.041 149.321 147.232 149.86 147.232C150.243 147.232 150.567 147.154 150.833 146.998C151.099 146.842 151.331 146.635 151.53 146.377L152.192 146.893C151.661 147.709 150.864 148.117 149.802 148.117ZM149.667 142.434C149.229 142.434 148.862 142.594 148.565 142.914C148.269 143.23 148.085 143.676 148.015 144.25H151.19V144.168C151.159 143.617 151.011 143.191 150.745 142.891C150.479 142.586 150.12 142.434 149.667 142.434ZM158.714 148H157.63V145.293H154.718V148H153.628V141.66H154.718V144.408H157.63V141.66H158.714V148ZM161.673 145.592H160.694L160.618 139.469H161.755L161.673 145.592ZM160.577 147.455C160.577 147.279 160.63 147.133 160.735 147.016C160.845 146.895 161.005 146.834 161.216 146.834C161.427 146.834 161.587 146.895 161.696 147.016C161.806 147.133 161.86 147.279 161.86 147.455C161.86 147.631 161.806 147.777 161.696 147.895C161.587 148.008 161.427 148.064 161.216 148.064C161.005 148.064 160.845 148.008 160.735 147.895C160.63 147.777 160.577 147.631 160.577 147.455Z" fill="black"/>
<path d="M65.8721 159.783C65.7907 160.532 65.5221 161.105 65.0664 161.502C64.6139 161.899 64.0101 162.098 63.2549 162.098C62.7275 162.098 62.2604 161.966 61.8535 161.702C61.4499 161.438 61.1374 161.066 60.916 160.584C60.6947 160.099 60.5824 159.546 60.5791 158.924V158.001C60.5791 157.369 60.6898 156.81 60.9111 156.321C61.1325 155.833 61.4499 155.457 61.8633 155.193C62.2799 154.926 62.7585 154.793 63.2988 154.793C64.0605 154.793 64.6611 155 65.1006 155.413C65.5433 155.823 65.8005 156.391 65.8721 157.117H65.2666C65.1169 155.91 64.4609 155.306 63.2988 155.306C62.6543 155.306 62.14 155.547 61.7559 156.028C61.375 156.51 61.1846 157.176 61.1846 158.025V158.895C61.1846 159.715 61.3701 160.369 61.7412 160.857C62.1156 161.346 62.6201 161.59 63.2549 161.59C63.8831 161.59 64.3568 161.44 64.6758 161.141C64.9948 160.838 65.1917 160.385 65.2666 159.783H65.8721ZM71.2529 162H70.667V157.22H67.8203V162H67.2344V156.717H71.2529V162ZM76.1553 162C76.0967 161.834 76.0592 161.588 76.043 161.263C75.8379 161.53 75.5758 161.736 75.2568 161.883C74.9411 162.026 74.6058 162.098 74.251 162.098C73.7432 162.098 73.3314 161.956 73.0156 161.673C72.7031 161.39 72.5469 161.032 72.5469 160.599C72.5469 160.084 72.7601 159.677 73.1865 159.378C73.6162 159.078 74.2135 158.929 74.9785 158.929H76.0381V158.328C76.0381 157.951 75.9209 157.654 75.6865 157.439C75.4554 157.221 75.1169 157.112 74.6709 157.112C74.264 157.112 73.9271 157.216 73.6602 157.425C73.3932 157.633 73.2598 157.884 73.2598 158.177L72.6738 158.172C72.6738 157.752 72.8691 157.389 73.2598 157.083C73.6504 156.774 74.1305 156.619 74.7002 156.619C75.2894 156.619 75.7533 156.767 76.0918 157.063C76.4336 157.356 76.6094 157.767 76.6191 158.294V160.794C76.6191 161.305 76.6729 161.688 76.7803 161.941V162H76.1553ZM74.3193 161.58C74.71 161.58 75.0583 161.486 75.3643 161.297C75.6735 161.108 75.8981 160.856 76.0381 160.54V159.378H74.9932C74.4105 159.384 73.9548 159.492 73.626 159.7C73.2972 159.905 73.1328 160.188 73.1328 160.55C73.1328 160.846 73.2419 161.092 73.46 161.287C73.6813 161.482 73.9678 161.58 74.3193 161.58ZM80.1348 161.604C80.5417 161.604 80.8818 161.491 81.1553 161.263C81.432 161.032 81.5817 160.734 81.6045 160.369H82.166C82.1497 160.691 82.0488 160.986 81.8633 161.253C81.6777 161.517 81.4303 161.723 81.1211 161.873C80.8151 162.023 80.4863 162.098 80.1348 162.098C79.4414 162.098 78.8913 161.857 78.4844 161.375C78.0807 160.893 77.8789 160.245 77.8789 159.432V159.256C77.8789 158.735 77.9701 158.274 78.1523 157.874C78.3346 157.474 78.5951 157.164 78.9336 156.946C79.2754 156.728 79.6742 156.619 80.1299 156.619C80.7093 156.619 81.1862 156.792 81.5605 157.137C81.9382 157.482 82.14 157.936 82.166 158.499H81.6045C81.5785 158.086 81.4287 157.752 81.1553 157.498C80.8851 157.244 80.5433 157.117 80.1299 157.117C79.6025 157.117 79.1924 157.308 78.8994 157.688C78.6097 158.069 78.4648 158.603 78.4648 159.29V159.461C78.4648 160.135 78.6097 160.66 78.8994 161.038C79.1924 161.416 79.6042 161.604 80.1348 161.604ZM86.8096 156.717H87.3955V162H86.8096V157.659L83.958 162H83.377V156.717H83.958V161.062L86.8096 156.717ZM91.0918 157.068C91.7624 157.068 92.306 157.288 92.7227 157.728C93.1393 158.164 93.3477 158.743 93.3477 159.466V159.593C93.3477 160.071 93.2516 160.503 93.0596 160.887C92.8708 161.268 92.5973 161.565 92.2393 161.78C91.8844 161.992 91.4759 162.098 91.0137 162.098C90.3171 162.098 89.7523 161.867 89.3193 161.404C88.8896 160.939 88.6748 160.319 88.6748 159.544V159.075C88.6748 157.981 88.8831 157.107 89.2998 156.453C89.7165 155.799 90.3089 155.408 91.0771 155.281C91.5622 155.203 91.9023 155.097 92.0977 154.964C92.2962 154.83 92.3955 154.648 92.3955 154.417H92.8984C92.8984 154.69 92.8415 154.917 92.7275 155.096C92.6136 155.275 92.4427 155.42 92.2148 155.53C91.987 155.638 91.6387 155.729 91.1699 155.804C90.6328 155.888 90.1999 156.118 89.8711 156.492C89.5456 156.863 89.334 157.361 89.2363 157.986C89.4447 157.713 89.7051 157.492 90.0176 157.322C90.3333 157.153 90.6914 157.068 91.0918 157.068ZM89.2607 159.471V159.593C89.2607 160.188 89.4219 160.674 89.7441 161.048C90.0664 161.419 90.4896 161.604 91.0137 161.604C91.541 161.604 91.9642 161.417 92.2832 161.043C92.6022 160.665 92.7617 160.171 92.7617 159.559V159.432C92.7617 158.882 92.599 158.432 92.2734 158.084C91.9512 157.736 91.528 157.562 91.0039 157.562C90.4798 157.562 90.0583 157.739 89.7393 158.094C89.4202 158.445 89.2607 158.904 89.2607 159.471ZM94.1484 159.28C94.1484 158.772 94.2461 158.315 94.4414 157.908C94.64 157.501 94.9183 157.186 95.2764 156.961C95.6377 156.733 96.0462 156.619 96.502 156.619C97.2051 156.619 97.7747 156.867 98.2109 157.361C98.6471 157.853 98.8652 158.506 98.8652 159.319V159.441C98.8652 159.952 98.766 160.413 98.5674 160.823C98.3721 161.23 98.0954 161.544 97.7373 161.766C97.3792 161.987 96.9707 162.098 96.5117 162.098C95.8118 162.098 95.2422 161.852 94.8027 161.36C94.3665 160.866 94.1484 160.211 94.1484 159.397V159.28ZM94.7344 159.441C94.7344 160.073 94.8971 160.592 95.2227 160.999C95.5514 161.403 95.9811 161.604 96.5117 161.604C97.0391 161.604 97.4655 161.403 97.791 160.999C98.1198 160.592 98.2842 160.057 98.2842 159.393V159.28C98.2842 158.877 98.2093 158.507 98.0596 158.172C97.9098 157.837 97.6999 157.578 97.4297 157.396C97.1595 157.21 96.8503 157.117 96.502 157.117C95.9811 157.117 95.5563 157.322 95.2275 157.732C94.8988 158.139 94.7344 158.673 94.7344 159.334V159.441ZM105.604 158.113C105.604 157.794 105.485 157.549 105.247 157.376C105.009 157.203 104.682 157.117 104.266 157.117C103.888 157.117 103.564 157.215 103.294 157.41C103.027 157.602 102.894 157.846 102.894 158.143H102.312C102.312 157.703 102.5 157.34 102.874 157.054C103.252 156.767 103.715 156.624 104.266 156.624C104.871 156.624 105.343 156.754 105.682 157.015C106.02 157.275 106.189 157.645 106.189 158.123C106.189 158.377 106.111 158.606 105.955 158.812C105.799 159.017 105.571 159.176 105.271 159.29C105.949 159.476 106.287 159.896 106.287 160.55C106.287 161.025 106.103 161.401 105.735 161.678C105.368 161.954 104.879 162.093 104.271 162.093C103.681 162.093 103.193 161.945 102.806 161.648C102.418 161.352 102.225 160.965 102.225 160.486H102.811C102.811 160.805 102.951 161.072 103.23 161.287C103.514 161.499 103.86 161.604 104.271 161.604C104.716 161.604 105.065 161.512 105.315 161.326C105.569 161.137 105.696 160.882 105.696 160.56C105.696 160.205 105.581 159.949 105.35 159.793C105.118 159.637 104.765 159.559 104.29 159.559H103.484V159.051H104.388C105.198 159.031 105.604 158.719 105.604 158.113ZM110.911 162C110.853 161.834 110.815 161.588 110.799 161.263C110.594 161.53 110.332 161.736 110.013 161.883C109.697 162.026 109.362 162.098 109.007 162.098C108.499 162.098 108.087 161.956 107.771 161.673C107.459 161.39 107.303 161.032 107.303 160.599C107.303 160.084 107.516 159.677 107.942 159.378C108.372 159.078 108.969 158.929 109.734 158.929H110.794V158.328C110.794 157.951 110.677 157.654 110.442 157.439C110.211 157.221 109.873 157.112 109.427 157.112C109.02 157.112 108.683 157.216 108.416 157.425C108.149 157.633 108.016 157.884 108.016 158.177L107.43 158.172C107.43 157.752 107.625 157.389 108.016 157.083C108.406 156.774 108.886 156.619 109.456 156.619C110.045 156.619 110.509 156.767 110.848 157.063C111.189 157.356 111.365 157.767 111.375 158.294V160.794C111.375 161.305 111.429 161.688 111.536 161.941V162H110.911ZM109.075 161.58C109.466 161.58 109.814 161.486 110.12 161.297C110.429 161.108 110.654 160.856 110.794 160.54V159.378H109.749C109.166 159.384 108.711 159.492 108.382 159.7C108.053 159.905 107.889 160.188 107.889 160.55C107.889 160.846 107.998 161.092 108.216 161.287C108.437 161.482 108.724 161.58 109.075 161.58ZM118.465 158.113C118.465 157.794 118.346 157.549 118.108 157.376C117.871 157.203 117.544 157.117 117.127 157.117C116.749 157.117 116.425 157.215 116.155 157.41C115.888 157.602 115.755 157.846 115.755 158.143H115.174C115.174 157.703 115.361 157.34 115.735 157.054C116.113 156.767 116.577 156.624 117.127 156.624C117.732 156.624 118.204 156.754 118.543 157.015C118.882 157.275 119.051 157.645 119.051 158.123C119.051 158.377 118.973 158.606 118.816 158.812C118.66 159.017 118.432 159.176 118.133 159.29C118.81 159.476 119.148 159.896 119.148 160.55C119.148 161.025 118.965 161.401 118.597 161.678C118.229 161.954 117.741 162.093 117.132 162.093C116.543 162.093 116.054 161.945 115.667 161.648C115.28 161.352 115.086 160.965 115.086 160.486H115.672C115.672 160.805 115.812 161.072 116.092 161.287C116.375 161.499 116.722 161.604 117.132 161.604C117.578 161.604 117.926 161.512 118.177 161.326C118.431 161.137 118.558 160.882 118.558 160.56C118.558 160.205 118.442 159.949 118.211 159.793C117.98 159.637 117.627 159.559 117.151 159.559H116.346V159.051H117.249C118.06 159.031 118.465 158.719 118.465 158.113ZM123.772 162C123.714 161.834 123.676 161.588 123.66 161.263C123.455 161.53 123.193 161.736 122.874 161.883C122.558 162.026 122.223 162.098 121.868 162.098C121.36 162.098 120.949 161.956 120.633 161.673C120.32 161.39 120.164 161.032 120.164 160.599C120.164 160.084 120.377 159.677 120.804 159.378C121.233 159.078 121.831 158.929 122.596 158.929H123.655V158.328C123.655 157.951 123.538 157.654 123.304 157.439C123.073 157.221 122.734 157.112 122.288 157.112C121.881 157.112 121.544 157.216 121.277 157.425C121.01 157.633 120.877 157.884 120.877 158.177L120.291 158.172C120.291 157.752 120.486 157.389 120.877 157.083C121.268 156.774 121.748 156.619 122.317 156.619C122.907 156.619 123.37 156.767 123.709 157.063C124.051 157.356 124.227 157.767 124.236 158.294V160.794C124.236 161.305 124.29 161.688 124.397 161.941V162H123.772ZM121.937 161.58C122.327 161.58 122.675 161.486 122.981 161.297C123.291 161.108 123.515 160.856 123.655 160.54V159.378H122.61C122.028 159.384 121.572 159.492 121.243 159.7C120.914 159.905 120.75 160.188 120.75 160.55C120.75 160.846 120.859 161.092 121.077 161.287C121.299 161.482 121.585 161.58 121.937 161.58ZM127.234 159.578H126.424V162H125.833V156.717H126.424V159.061H127.225L129.163 156.717H129.9L127.732 159.28L130.14 162H129.368L127.234 159.578ZM134.319 162C134.261 161.834 134.223 161.588 134.207 161.263C134.002 161.53 133.74 161.736 133.421 161.883C133.105 162.026 132.77 162.098 132.415 162.098C131.907 162.098 131.495 161.956 131.18 161.673C130.867 161.39 130.711 161.032 130.711 160.599C130.711 160.084 130.924 159.677 131.351 159.378C131.78 159.078 132.378 158.929 133.143 158.929H134.202V158.328C134.202 157.951 134.085 157.654 133.851 157.439C133.619 157.221 133.281 157.112 132.835 157.112C132.428 157.112 132.091 157.216 131.824 157.425C131.557 157.633 131.424 157.884 131.424 158.177L130.838 158.172C130.838 157.752 131.033 157.389 131.424 157.083C131.814 156.774 132.295 156.619 132.864 156.619C133.453 156.619 133.917 156.767 134.256 157.063C134.598 157.356 134.773 157.767 134.783 158.294V160.794C134.783 161.305 134.837 161.688 134.944 161.941V162H134.319ZM132.483 161.58C132.874 161.58 133.222 161.486 133.528 161.297C133.838 161.108 134.062 160.856 134.202 160.54V159.378H133.157C132.575 159.384 132.119 159.492 131.79 159.7C131.461 159.905 131.297 160.188 131.297 160.55C131.297 160.846 131.406 161.092 131.624 161.287C131.845 161.482 132.132 161.58 132.483 161.58ZM139.441 158.113C139.441 157.794 139.323 157.549 139.085 157.376C138.847 157.203 138.52 157.117 138.104 157.117C137.726 157.117 137.402 157.215 137.132 157.41C136.865 157.602 136.731 157.846 136.731 158.143H136.15C136.15 157.703 136.338 157.34 136.712 157.054C137.09 156.767 137.553 156.624 138.104 156.624C138.709 156.624 139.181 156.754 139.52 157.015C139.858 157.275 140.027 157.645 140.027 158.123C140.027 158.377 139.949 158.606 139.793 158.812C139.637 159.017 139.409 159.176 139.109 159.29C139.786 159.476 140.125 159.896 140.125 160.55C140.125 161.025 139.941 161.401 139.573 161.678C139.205 161.954 138.717 162.093 138.108 162.093C137.519 162.093 137.031 161.945 136.644 161.648C136.256 161.352 136.062 160.965 136.062 160.486H136.648C136.648 160.805 136.788 161.072 137.068 161.287C137.352 161.499 137.698 161.604 138.108 161.604C138.554 161.604 138.903 161.512 139.153 161.326C139.407 161.137 139.534 160.882 139.534 160.56C139.534 160.205 139.419 159.949 139.188 159.793C138.956 159.637 138.603 159.559 138.128 159.559H137.322V159.051H138.226C139.036 159.031 139.441 158.719 139.441 158.113ZM142.039 160.022H141.497L141.468 154.891H142.073L142.039 160.022ZM141.399 161.658C141.399 161.548 141.435 161.455 141.507 161.38C141.578 161.302 141.676 161.263 141.8 161.263C141.924 161.263 142.021 161.302 142.093 161.38C142.168 161.455 142.205 161.548 142.205 161.658C142.205 161.766 142.168 161.857 142.093 161.932C142.021 162.003 141.924 162.039 141.8 162.039C141.676 162.039 141.578 162.003 141.507 161.932C141.435 161.857 141.399 161.766 141.399 161.658Z" fill="black"/>
</svg>
