<svg width="220" height="240" viewBox="0 0 220 240" fill="none" xmlns="http://www.w3.org/2000/svg">
<rect width="220" height="240" fill="#1D8C00"/>
<path d="M183.339 170.943C183.339 172.915 182.143 174.528 180.681 174.528H36.9259C35.4638 174.528 34.2675 172.915 34.2675 170.943L33.0713 59.4408C33.0713 57.4693 34.7922 53.6204 37.9462 53.9096L178.439 49.003C180.274 48.939 182.047 49.892 183.347 51.6397C184.646 53.3875 185.357 55.7771 185.313 58.2508L183.339 170.943Z" fill="url(#paint0_linear)"/>
<path d="M180.715 167.504C180.715 169.371 179.583 170.899 178.2 170.899H40.3928C39.0096 170.899 37.8778 169.371 37.8778 167.504L36.749 66.2814C36.882 60.1901 40.8387 58.0007 43.2372 58.1299L177.887 53.2542C179.176 53.2076 180.422 53.8778 181.335 55.1067C182.248 56.3355 182.75 58.0175 182.717 59.757L180.715 167.504Z" fill="url(#paint1_linear)"/>
<path d="M39.3672 119.206C39.2512 119.206 39.1564 119.08 39.1547 118.923L39.0655 110.714C39.0637 110.556 39.1575 110.425 39.275 110.423C39.3921 110.418 39.4889 110.547 39.4907 110.706L39.5799 118.915C39.5816 119.073 39.4879 119.204 39.3704 119.206C39.3693 119.206 39.3683 119.206 39.3672 119.206Z" fill="#296614"/>
<path d="M39.1483 99.0895C39.0323 99.0895 38.9375 98.9638 38.9358 98.8067L38.5938 67.3662C38.6007 65.2627 39.081 63.5822 40.0212 62.3665C41.7091 60.1834 44.3372 60.2638 44.5134 60.272L87.518 58.7145C87.6365 58.7102 87.733 58.8352 87.7363 58.9937C87.7395 59.1521 87.6469 59.284 87.5294 59.2883L44.5111 60.846L44.5027 60.8455C44.397 60.8399 41.8964 60.7357 40.3153 62.7807C39.4616 63.8849 39.0254 65.4265 39.019 67.3631L39.3611 98.7981C39.3629 98.9567 39.2691 99.087 39.1516 99.0893C39.1504 99.0895 39.1493 99.0895 39.1483 99.0895Z" fill="#296614"/>
<path d="M194.182 180.219H26.3381C25.8878 180.219 25.5195 179.722 25.5195 179.114V171.527C25.5195 170.919 25.8878 170.422 26.3381 170.422H194.182C194.632 170.422 195 170.919 195 171.527V179.114C195.001 179.722 194.632 180.219 194.182 180.219Z" fill="url(#paint2_linear)"/>
<path d="M172.148 163.366H53.5488C52.4518 163.366 51.5625 162.166 51.5625 160.686V159.928C51.5625 158.448 52.4518 157.248 53.5488 157.248H172.148C173.245 157.248 174.134 158.448 174.134 159.928V160.686C174.134 162.166 173.245 163.366 172.148 163.366Z" fill="#77BA66"/>
<g opacity="0.68">
<g opacity="0.68">
<path opacity="0.68" d="M72.6821 74.0088C72.4482 74.5746 72.2325 75.1534 72.0313 75.7401C71.6825 76.7555 71.3766 77.7949 71.0965 78.8455C70.5392 80.9484 70.0891 83.0973 69.7009 85.2634C69.3137 87.4303 68.9908 89.6163 68.713 91.8115C68.1594 96.203 67.7831 100.631 67.5271 105.07C67.3998 107.289 67.303 109.512 67.2353 111.736C67.2009 112.849 67.1745 113.961 67.154 115.074L67.129 116.743L67.1202 117.578L67.1169 117.996L67.1153 118.204C67.1142 118.274 67.1266 118.344 67.1268 118.413C67.1521 122.867 67.2959 127.32 67.5749 131.758C67.8558 136.196 68.2681 140.621 68.8687 145.004C69.1696 147.196 69.5185 149.376 69.9334 151.536C69.9991 151.877 70.0671 152.218 70.1361 152.558H70.7628C70.6832 152.15 70.6053 151.742 70.5306 151.332C70.1404 149.188 69.8152 147.021 69.5374 144.843C68.983 140.486 68.6154 136.085 68.3784 131.673C68.1432 127.261 68.0421 122.835 68.0594 118.412C68.0273 109.566 68.3269 100.693 69.3036 91.9403C69.55 89.7537 69.8412 87.5763 70.1962 85.4186C70.5521 83.2616 70.9694 81.1223 71.4918 79.0315C71.7544 77.9873 72.0424 76.9546 72.3718 75.9479C72.5873 75.2881 72.8206 74.639 73.0775 74.0089H72.6821V74.0088Z" fill="white"/>
<path opacity="0.68" d="M85.0937 85.1387C84.6455 82.9934 84.1298 80.8711 83.5106 78.8004C83.1995 77.7662 82.8629 76.7444 82.4851 75.7487C82.2615 75.1582 82.0233 74.5764 81.767 74.0088H81.3721C81.6562 74.6446 81.9185 75.2995 82.1609 75.9679C82.5203 76.9564 82.84 77.9721 83.1343 79.0011C83.7208 81.0609 84.1981 83.1777 84.6125 85.3149C85.0248 87.4537 85.3703 89.6161 85.666 91.7906C86.2617 96.1395 86.658 100.537 86.9168 104.946C87.0497 107.15 87.1418 109.359 87.205 111.57C87.2694 113.78 87.298 115.992 87.2948 118.204C87.2941 120.417 87.265 122.629 87.2034 124.84C87.1428 127.051 87.0569 129.26 86.9335 131.466C86.6929 135.878 86.329 140.279 85.7769 144.637C85.5031 146.816 85.1831 148.984 84.7984 151.13C84.7126 151.607 84.6231 152.083 84.5308 152.558H85.1583C85.2414 152.15 85.3228 151.742 85.4009 151.333C85.8129 149.172 86.1595 146.991 86.4592 144.799C87.633 136.024 88.1104 127.106 88.1075 118.204C88.0949 109.299 87.5445 100.38 86.2501 91.638C85.9206 89.4551 85.5409 87.2848 85.0937 85.1387Z" fill="white"/>
</g>
<g opacity="0.68">
<path opacity="0.68" d="M63.9866 74.0088C62.3764 75.4318 60.8793 77.0859 59.514 78.9179C58.0024 80.9418 56.6449 83.1737 55.4461 85.55C53.0458 90.3056 51.2766 95.6207 50.1017 101.151C49.521 103.92 49.0826 106.744 48.7931 109.596C48.506 112.448 48.3688 115.326 48.3584 118.204C48.3666 121.082 48.5016 123.96 48.7866 126.813C49.0737 129.666 49.5096 132.491 50.0879 135.262C51.2581 140.796 53.0227 146.117 55.4204 150.881C55.7058 151.448 56.0007 152.007 56.304 152.558H57.2115C56.8099 151.824 56.4228 151.076 56.0541 150.312C54.9155 147.951 53.9349 145.454 53.1011 142.873C52.2645 140.293 51.5828 137.624 51.0344 134.908C49.9474 129.47 49.417 123.836 49.4176 118.204C49.4127 112.572 49.9387 106.936 51.0206 101.495C51.5668 98.7772 52.246 96.1057 53.0805 93.5226C53.9123 90.9387 54.8912 88.4382 56.0285 86.0729C57.1655 83.7084 58.4582 81.476 59.9116 79.448C61.3665 77.4245 62.9758 75.5939 64.7366 74.0694C64.7604 74.049 64.7844 74.0292 64.8082 74.0089H63.9866V74.0088Z" fill="white"/>
<path opacity="0.68" d="M104.315 109.607C104.026 106.759 103.591 103.938 103.012 101.172C101.839 95.6485 100.076 90.3399 97.689 85.5811C96.4946 83.2048 95.1415 80.9723 93.634 78.9467C92.2653 77.1036 90.7628 75.4395 89.1459 74.0088H88.3975C88.4127 74.0219 88.4281 74.0344 88.4433 74.0475C90.2073 75.5692 91.8206 77.3971 93.2797 79.4191C94.7372 81.4455 96.0343 83.6773 97.1757 86.0417C99.4619 90.774 101.115 96.0329 102.205 101.474C103.292 106.921 103.82 112.564 103.816 118.204C103.816 123.843 103.283 129.485 102.191 134.928C101.096 140.366 99.4388 145.619 97.1501 150.343C96.7851 151.096 96.4023 151.834 96.0053 152.558H96.8178C97.1259 151.997 97.4252 151.428 97.7147 150.849C100.099 146.082 101.858 140.768 103.026 135.241C103.602 132.473 104.035 129.651 104.321 126.802C104.606 123.953 104.74 121.078 104.748 118.204C104.738 115.33 104.601 112.456 104.315 109.607Z" fill="white"/>
</g>
<g opacity="0.68">
<path opacity="0.68" d="M43.9391 98.6313L46.0396 98.5842L48.14 98.5486L52.3409 98.4787L60.7426 98.3921C66.3437 98.3342 71.9449 98.3273 77.5459 98.3213L85.9476 98.3387L90.1485 98.3637L92.249 98.3762L94.3494 98.3992L102.751 98.4937L106.952 98.5696L109.052 98.6079L111.153 98.6585C111.176 98.6591 111.194 98.6843 111.193 98.7151C111.193 98.7449 111.175 98.7689 111.153 98.7695L109.052 98.8202L106.952 98.8584L102.751 98.9344L94.3494 99.0289L92.249 99.0519L90.1485 99.0644L85.9476 99.0894L77.5459 99.1068C71.9448 99.1006 66.3436 99.0938 60.7426 99.036L52.3409 98.9494L48.14 98.8795L46.0396 98.8439L43.9391 98.7968C43.9053 98.796 43.8784 98.7583 43.8789 98.7127C43.8795 98.668 43.9063 98.6322 43.9391 98.6313Z" fill="white"/>
</g>
<g opacity="0.68">
<path opacity="0.68" d="M59.6504 79.485C61.6387 79.448 63.627 79.4148 65.6154 79.3943C69.592 79.3447 73.5687 79.3319 77.5452 79.3276L83.5102 79.345C85.4986 79.3649 87.4869 79.3712 89.4752 79.4023L92.4577 79.4444L95.4401 79.4999L98.4226 79.5758L99.9138 79.6141L101.405 79.6647C101.428 79.6656 101.446 79.6909 101.445 79.7217C101.444 79.7514 101.427 79.775 101.405 79.7759L99.9138 79.8265L98.4226 79.8648L95.4401 79.9407L92.4577 79.9962L89.4752 80.0383C87.4869 80.0694 85.4986 80.0757 83.5102 80.0956L77.5452 80.113C73.5686 80.1087 69.5919 80.0959 65.6154 80.0463C63.627 80.0258 61.6387 79.9924 59.6504 79.9556V79.485Z" fill="white"/>
</g>
<g opacity="0.68">
<path opacity="0.68" d="M41.0193 117.624L43.3022 117.577L45.5851 117.542L50.1509 117.472L59.2826 117.385C65.3703 117.327 71.4581 117.32 77.5459 117.314L86.6775 117.332L91.2433 117.357L93.5262 117.369L95.8091 117.392L104.941 117.487L109.507 117.563L111.79 117.601L114.072 117.652C114.095 117.652 114.113 117.677 114.113 117.708C114.113 117.738 114.094 117.762 114.072 117.763L111.79 117.813L109.507 117.852L104.941 117.928L95.8091 118.022L93.5262 118.045L91.2433 118.058L86.6775 118.083L77.5459 118.1C71.4582 118.094 65.3704 118.087 59.2826 118.029L50.1509 117.943L45.5851 117.873L43.3022 117.837L41.0193 117.79C40.9855 117.789 40.9584 117.752 40.959 117.706C40.9594 117.661 40.9864 117.625 41.0193 117.624Z" fill="white"/>
</g>
<g opacity="0.68">
<path opacity="0.68" d="M43.9391 136.618L46.0396 136.571L48.14 136.535L52.3409 136.465L60.7426 136.379C66.3437 136.321 71.9449 136.314 77.5459 136.308L85.9476 136.325L90.1485 136.351L92.249 136.363L94.3494 136.386L102.751 136.48L106.952 136.556L109.052 136.595L111.153 136.645C111.176 136.646 111.194 136.671 111.193 136.702C111.193 136.732 111.175 136.756 111.153 136.756L109.052 136.807L106.952 136.845L102.751 136.921L94.3494 137.016L92.249 137.039L90.1485 137.051L85.9476 137.076L77.5459 137.093C71.9448 137.087 66.3436 137.08 60.7426 137.023L52.3409 136.936L48.14 136.866L46.0396 136.831L43.9391 136.783C43.9053 136.783 43.8784 136.745 43.8789 136.699C43.8795 136.655 43.9063 136.619 43.9391 136.618Z" fill="white"/>
</g>
</g>
<path d="M53.8542 66.5732C50.0362 66.5732 46.9404 70.7516 46.9404 75.9048C46.9404 81.058 50.0362 85.2349 53.8542 85.2349C57.6721 85.2349 60.7668 81.058 60.7668 75.9048C60.7668 70.7516 57.672 66.5732 53.8542 66.5732ZM54.0016 70.838C54.9927 70.838 55.7961 71.7865 55.7961 73.1241C55.7961 74.4603 54.9927 75.9048 54.0016 75.9048C53.0116 75.9048 52.2081 74.4603 52.2081 73.1241C52.2081 71.7863 53.0116 70.838 54.0016 70.838ZM57.3999 79.0632L57.1647 80.0583C57.0236 80.6511 56.616 81.0521 56.1552 81.0521H51.7755C51.2973 81.0521 50.8777 80.6203 50.7529 79.9969L50.5708 79.094C50.4255 78.3681 50.7194 77.6041 51.2474 77.367C53.1353 76.5195 54.9786 76.4054 56.7603 77.285C57.2926 77.5483 57.5723 78.3357 57.3999 79.0632Z" fill="#81CE6E"/>
<path d="M177.154 114.771H102.437C100.974 114.771 99.7881 113.171 99.7881 111.196V85.1149C99.7881 83.1406 100.974 81.54 102.437 81.54H177.154C178.617 81.54 179.803 83.1406 179.803 85.1149V111.196C179.803 113.171 178.617 114.771 177.154 114.771Z" fill="#1D8C00"/>
<path d="M112.999 90.8633C112.999 90.6387 112.911 90.458 112.735 90.3213C112.563 90.1846 112.328 90.1162 112.032 90.1162C111.756 90.1162 111.533 90.1829 111.363 90.3164C111.197 90.4466 111.114 90.6191 111.114 90.834H109.405C109.405 90.4434 109.516 90.0934 109.737 89.7842C109.962 89.4749 110.278 89.234 110.685 89.0615C111.091 88.8857 111.541 88.7979 112.032 88.7979C112.879 88.7979 113.536 88.9753 114.005 89.3301C114.477 89.6849 114.713 90.1813 114.713 90.8193C114.713 91.1449 114.617 91.4427 114.425 91.7129C114.236 91.9798 113.974 92.1914 113.639 92.3477C114.023 92.4844 114.316 92.6927 114.518 92.9727C114.723 93.2493 114.825 93.5944 114.825 94.0078C114.825 94.6458 114.571 95.1536 114.063 95.5312C113.556 95.9056 112.879 96.0928 112.032 96.0928C111.248 96.0928 110.597 95.9089 110.079 95.541C109.562 95.1699 109.303 94.6654 109.303 94.0273H111.021C111.021 94.2389 111.116 94.418 111.305 94.5645C111.493 94.7077 111.736 94.7793 112.032 94.7793C112.351 94.7793 112.61 94.7044 112.809 94.5547C113.007 94.4049 113.106 94.2096 113.106 93.9688C113.106 93.6172 113.022 93.3698 112.853 93.2266C112.683 93.0801 112.436 93.0068 112.11 93.0068H111.197V91.7373H112.169C112.722 91.721 112.999 91.4297 112.999 90.8633ZM119.874 94.6719H117.525L117.115 96H115.284L117.892 88.8906H119.503L122.13 96H120.289L119.874 94.6719ZM117.936 93.3486H119.464L118.697 90.8828L117.936 93.3486ZM128.624 96H126.91V90.2139H124.356V96H122.643V88.8906H128.624V96ZM132.452 91.9766V91.9814L133.629 88.8906H135.436L133.043 94.5303C132.786 95.0999 132.496 95.502 132.174 95.7363C131.855 95.9674 131.48 96.0895 131.051 96.1025H130.704L130.44 96.0928L130.411 94.7646C130.45 94.7777 130.564 94.7842 130.753 94.7842C131.013 94.7842 131.209 94.7402 131.339 94.6523C131.472 94.5612 131.58 94.387 131.661 94.1299L131.744 93.8955L129.176 88.8906H130.997L132.452 91.9766ZM141.656 93.5928C141.633 94.0876 141.5 94.5254 141.256 94.9062C141.012 95.2839 140.668 95.5768 140.226 95.7852C139.786 95.9935 139.283 96.0977 138.717 96.0977C137.783 96.0977 137.047 95.7933 136.51 95.1846C135.973 94.5758 135.704 93.7165 135.704 92.6064V92.2549C135.704 91.5583 135.825 90.9495 136.065 90.4287C136.31 89.9046 136.66 89.501 137.115 89.2178C137.571 88.9313 138.098 88.7881 138.697 88.7881C139.56 88.7881 140.253 89.016 140.777 89.4717C141.301 89.9242 141.599 90.5492 141.671 91.3467H139.962C139.949 90.9137 139.84 90.6029 139.635 90.4141C139.43 90.2253 139.117 90.1309 138.697 90.1309C138.271 90.1309 137.958 90.2904 137.76 90.6094C137.561 90.9284 137.457 91.4378 137.447 92.1377V92.6406C137.447 93.3991 137.542 93.9411 137.73 94.2666C137.923 94.5921 138.251 94.7549 138.717 94.7549C139.111 94.7549 139.412 94.6621 139.62 94.4766C139.828 94.291 139.939 93.9964 139.952 93.5928H141.656ZM147.901 90.2139H145.768V96H144.054V90.2139H141.959V88.8906H147.901V90.2139ZM152.799 88.8906H154.513V96H152.799V91.5176L150.245 96H148.531V88.8906H150.245V93.3779L152.799 88.8906ZM160.997 90.2139H158.863V96H157.149V90.2139H155.055V88.8906H160.997V90.2139ZM163.526 91.3369H164.41C164.973 91.3369 165.471 91.4329 165.904 91.625C166.337 91.8171 166.669 92.0889 166.9 92.4404C167.135 92.7887 167.252 93.1891 167.252 93.6416C167.252 94.3415 166.992 94.9095 166.471 95.3457C165.953 95.7819 165.257 96 164.381 96H161.808V88.8906H163.526V91.3369ZM163.526 92.6553V94.6816H164.405C164.754 94.6816 165.029 94.584 165.23 94.3887C165.436 94.1934 165.538 93.9411 165.538 93.6318C165.538 93.3389 165.437 93.1029 165.235 92.9238C165.034 92.7448 164.754 92.6553 164.396 92.6553H163.526ZM113.575 106.672H111.227L110.816 108H108.985L111.593 100.891H113.204L115.831 108H113.99L113.575 106.672ZM111.637 105.349H113.165L112.398 102.883L111.637 105.349ZM119.112 103.977V103.981L120.289 100.891H122.096L119.703 106.53C119.446 107.1 119.156 107.502 118.834 107.736C118.515 107.967 118.141 108.09 117.711 108.103H117.364L117.101 108.093L117.071 106.765C117.11 106.778 117.224 106.784 117.413 106.784C117.674 106.784 117.869 106.74 117.999 106.652C118.132 106.561 118.24 106.387 118.321 106.13L118.404 105.896L115.836 100.891H117.657L119.112 103.977ZM125.196 105.188H124.386V108H122.672V100.891H124.386V103.64H125.045L126.412 100.891H128.487L126.534 104.172L128.731 108H126.705L125.196 105.188ZM129.039 100.891H130.743V106.682H133.297V100.891H135.016V106.696H136.104L136.007 109.714H134.391V108H129.039V100.891ZM141.041 100.891H142.755V108H141.041V103.518L138.487 108H136.773V100.891H138.487V105.378L141.041 100.891ZM149.825 104.592C149.825 105.285 149.697 105.899 149.439 106.433C149.182 106.966 148.816 107.378 148.341 107.668C147.869 107.954 147.33 108.098 146.725 108.098C146.119 108.098 145.582 107.959 145.113 107.683C144.645 107.403 144.278 107.004 144.015 106.486C143.754 105.969 143.618 105.375 143.604 104.704V104.304C143.604 103.607 143.731 102.993 143.985 102.463C144.243 101.929 144.609 101.517 145.084 101.228C145.562 100.938 146.106 100.793 146.715 100.793C147.317 100.793 147.854 100.936 148.326 101.223C148.798 101.509 149.164 101.918 149.425 102.448C149.688 102.976 149.822 103.581 149.825 104.265V104.592ZM148.082 104.294C148.082 103.588 147.963 103.052 147.726 102.688C147.491 102.32 147.154 102.136 146.715 102.136C145.855 102.136 145.401 102.78 145.353 104.069L145.348 104.592C145.348 105.288 145.463 105.824 145.694 106.198C145.925 106.573 146.269 106.76 146.725 106.76C147.158 106.76 147.491 106.576 147.726 106.208C147.96 105.84 148.079 105.311 148.082 104.621V104.294ZM156.651 108H154.947V105.031H152.423V108H150.709V100.891H152.423V103.713H154.947V100.891H156.651V108Z" fill="white"/>
<path d="M174.992 122.84L169.906 114.676C169.866 114.612 169.854 114.525 169.874 114.446C169.894 114.367 169.944 114.307 170.005 114.287L174.497 112.869C174.68 112.811 174.818 112.616 174.849 112.372C174.88 112.128 174.796 111.884 174.638 111.752L161.821 101.095C161.665 100.966 161.467 100.969 161.313 101.102C161.16 101.236 161.081 101.476 161.111 101.715L163.776 122.885C163.808 123.14 163.957 123.341 164.15 123.388C164.342 123.436 164.537 123.321 164.637 123.099L167.124 117.608C167.155 117.539 167.21 117.495 167.27 117.49C167.331 117.485 167.39 117.52 167.427 117.583L172.164 125.576C172.435 126.034 172.93 126.136 173.295 125.809L174.815 124.449C175.009 124.275 175.139 124.002 175.173 123.696C175.207 123.39 175.141 123.079 174.992 122.84Z" fill="white"/>
<path d="M151.427 139.343H98.4047C97.3366 139.343 96.4707 138.175 96.4707 136.733V124.351C96.4707 122.91 97.3366 121.741 98.4047 121.741H151.427C152.495 121.741 153.361 122.909 153.361 124.351V136.733C153.361 138.175 152.495 139.343 151.427 139.343Z" fill="#77BA66"/>
<path d="M109.513 136.741C109.507 136.741 109.501 136.741 109.495 136.741L102.854 136.848C101.897 136.864 101.095 135.898 100.989 134.603L100.305 126.251C100.264 125.754 100.361 125.259 100.578 124.856C100.82 124.407 101.191 124.118 101.596 124.064C102.156 123.989 102.926 123.867 103.773 123.732C105.619 123.439 107.71 123.107 108.94 123.046C108.95 123.046 108.959 123.045 108.968 123.045C109.848 123.018 110.615 123.801 110.839 124.961C111.209 126.875 111.222 130.514 111.202 134.392C111.196 135.664 110.44 136.712 109.513 136.741ZM101.643 124.875C101.384 124.909 101.149 125.089 100.999 125.368C100.876 125.596 100.82 125.874 100.843 126.15L101.527 134.501C101.599 135.386 102.168 136.045 102.849 136.034L109.491 135.927C109.495 135.927 109.499 135.927 109.504 135.927C110.138 135.907 110.656 135.221 110.66 134.388C110.68 130.573 110.668 126.998 110.318 125.189C110.164 124.388 109.579 123.807 108.957 123.86C107.746 123.92 105.574 124.265 103.829 124.542C102.978 124.677 102.205 124.8 101.643 124.875Z" fill="white"/>
<path d="M102.367 125.693C103.76 125.507 106.786 124.952 108.224 124.881C108.833 124.851 109.374 125.388 109.526 126.177C109.822 127.71 109.822 130.784 109.808 133.621C109.804 134.471 109.292 135.164 108.658 135.175L103.351 135.26C102.698 135.271 102.149 134.619 102.078 133.75L101.531 127.077C101.475 126.386 101.85 125.762 102.367 125.693Z" fill="#92C885"/>
<path d="M115.335 127.878C114.982 127.876 114.764 128.252 114.851 128.714L115.469 131.993C115.557 132.455 115.917 132.824 116.269 132.813L149.51 131.797C149.863 131.786 150.142 131.388 150.129 130.912L150.076 128.924C150.063 128.448 149.764 128.057 149.411 128.055L115.335 127.878Z" fill="#92C885"/>
<path d="M102.665 126.996C103.153 126.547 103.79 126.787 104.078 127.528L105.429 131.015C105.565 131.364 105.907 131.331 106.013 130.959L109.132 119.996C109.287 119.449 109.827 119.616 109.828 120.21C109.835 123.534 109.323 129.868 105.852 135.264C105.852 135.264 103.89 134.186 102.26 129.059C102.024 128.319 102.198 127.426 102.665 126.996Z" fill="#1D8C00"/>
<defs>
<linearGradient id="paint0_linear" x1="95.6728" y1="165.956" x2="152.827" y2="38.9192" gradientUnits="userSpaceOnUse">
<stop/>
<stop offset="1" stop-color="#010400"/>
</linearGradient>
<linearGradient id="paint1_linear" x1="201.742" y1="16.8437" x2="59.8716" y2="99.6824" gradientUnits="userSpaceOnUse">
<stop stop-color="#04170C" stop-opacity="0.9"/>
<stop offset="1" stop-color="#479517"/>
</linearGradient>
<linearGradient id="paint2_linear" x1="126.023" y1="78.2517" x2="113.769" y2="119.675" gradientUnits="userSpaceOnUse">
<stop/>
<stop offset="1"/>
</linearGradient>
</defs>
</svg>
