<svg width="220" height="240" viewBox="0 0 220 240" fill="none" xmlns="http://www.w3.org/2000/svg">
<rect width="220" height="240" fill="#1D8C00"/>
<path d="M176.156 195.147H42.6022C34.8544 195.147 28.5732 188.824 28.5732 181.024V55.3456C28.5732 47.5459 34.8544 41.2227 42.6022 41.2227H176.155C183.903 41.2227 190.184 47.5455 190.184 55.3456V181.024C190.184 188.824 183.904 195.147 176.156 195.147Z" stroke="black" stroke-width="0.7057" stroke-miterlimit="10" stroke-linecap="round" stroke-linejoin="round"/>
<path d="M65.8468 50.9561H36.2168V54.6275H65.8468V50.9561Z" fill="#77BA66"/>
<path d="M75.8749 50.9561H67.2139V54.6275H75.8749V50.9561Z" fill="#77BA66"/>
<path d="M75.8752 57.3809H36.2168V61.0518H75.8752V57.3809Z" fill="#77BA66"/>
<path d="M45.8996 64.52H36.2168V68.191H45.8996V64.52Z" fill="#77BA66"/>
<path d="M75.875 64.52H46.9121V68.191H75.875V64.52Z" fill="#77BA66"/>
<path d="M64.3359 71.6582H51.3691V75.3292H64.3359V71.6582Z" fill="#77BA66"/>
<path d="M75.8755 71.6582H65.5527V75.3292H75.8755V71.6582Z" fill="#77BA66"/>
<path d="M50.3569 71.6582H36.2168V75.3292H50.3569V71.6582Z" fill="#77BA66"/>
<path d="M67.1843 167.975H27.5847C24.7991 167.975 22.541 165.702 22.541 162.898V117.526C22.541 114.722 24.7991 112.449 27.5847 112.449H67.1843C69.9699 112.449 72.228 114.722 72.228 117.526V162.898C72.228 165.702 69.9699 167.975 67.1843 167.975Z" fill="#77BA66"/>
<path d="M143.021 80.7845H84.8548C83.4202 80.7845 82.2568 79.6138 82.2568 78.1691V50.818C82.2568 49.3734 83.4198 48.2026 84.8548 48.2026H143.021C144.456 48.2026 145.619 49.3734 145.619 50.818V78.1691C145.619 79.6138 144.456 80.7845 143.021 80.7845Z" stroke="black" stroke-width="0.7057" stroke-miterlimit="10" stroke-linecap="round" stroke-linejoin="round"/>
<path d="M82.2568 78.169L97.7558 65.6406L105.505 72.9834L120.092 61.5106L127.386 68.853L145.619 50.8179" stroke="black" stroke-width="0.7057" stroke-miterlimit="10" stroke-linecap="round" stroke-linejoin="round"/>
<path d="M89.2566 73.4846C89.2566 74.118 88.7463 74.6317 88.1171 74.6317C87.4878 74.6317 86.9775 74.118 86.9775 73.4846C86.9775 72.8507 87.4878 72.3374 88.1171 72.3374C88.7463 72.3374 89.2566 72.8511 89.2566 73.4846Z" fill="#4EC72E"/>
<path d="M98.906 65.6066C98.906 66.2401 98.3957 66.7538 97.7665 66.7538C97.1372 66.7538 96.627 66.2401 96.627 65.6066C96.627 64.9728 97.1372 64.4595 97.7665 64.4595C98.3957 64.4591 98.906 64.9728 98.906 65.6066Z" fill="#4EC72E"/>
<path d="M113.039 68.4362C113.039 69.0697 112.529 69.5834 111.899 69.5834C111.27 69.5834 110.76 69.0697 110.76 68.4362C110.76 67.8024 111.27 67.2891 111.899 67.2891C112.529 67.2891 113.039 67.8024 113.039 68.4362Z" fill="#4EC72E"/>
<path d="M138.111 59.4875C138.111 60.1213 137.601 60.6346 136.972 60.6346C136.342 60.6346 135.832 60.1209 135.832 59.4875C135.832 58.854 136.342 58.3403 136.972 58.3403C137.601 58.3403 138.111 58.8536 138.111 59.4875Z" fill="#4EC72E"/>
<path d="M146.62 51.0734C146.62 51.7073 146.11 52.2206 145.48 52.2206C144.851 52.2206 144.341 51.7069 144.341 51.0734C144.341 50.44 144.851 49.9263 145.48 49.9263C146.11 49.9263 146.62 50.44 146.62 51.0734Z" fill="#4EC72E"/>
<path d="M121.319 61.4758C121.319 62.1096 120.809 62.6229 120.18 62.6229C119.55 62.6229 119.04 62.1092 119.04 61.4758C119.04 60.8423 119.55 60.3286 120.18 60.3286C120.809 60.3286 121.319 60.8423 121.319 61.4758Z" fill="#4EC72E"/>
<path d="M103.682 56.4633H90.0062C89.2539 56.4633 88.6387 55.8439 88.6387 55.0866C88.6387 54.3293 89.2539 53.71 90.0062 53.71H103.682C104.434 53.71 105.049 54.3293 105.049 55.0866C105.049 55.8435 104.433 56.4633 103.682 56.4633Z" fill="#4EC72E"/>
<path d="M137.87 77.5722H124.195C123.442 77.5722 122.827 76.9528 122.827 76.1955C122.827 75.4382 123.442 74.8188 124.195 74.8188H137.87C138.622 74.8188 139.238 75.4382 139.238 76.1955C139.238 76.9528 138.622 77.5722 137.87 77.5722Z" fill="#4EC72E"/>
<path d="M39.8632 101.894H35.3047V150.079H39.8632V101.894Z" fill="#FEFDFF"/>
<path d="M47.6122 91.3394H43.0537V139.524H47.6122V91.3394Z" fill="#FEFDFF"/>
<path d="M56.2724 103.73H51.7139V151.915H56.2724V103.73Z" stroke="#FEFDFF" stroke-width="0.7385" stroke-miterlimit="10"/>
<path d="M106.416 87.6685H101.857V135.853H106.416V87.6685Z" fill="#FEFDFF"/>
<path d="M64.0233 84.9146H59.4648V115.661H64.0233V84.9146Z" fill="#FEFDFF"/>
<path d="M79.9774 90.4219H75.4189V121.168H79.9774V90.4219Z" fill="#FEFDFF"/>
<path d="M88.4862 102.353H83.9277V133.099H88.4862V102.353Z" fill="#FEFDFF"/>
<path d="M148.354 103.73H143.796V134.476H148.354V103.73Z" fill="#FEFDFF"/>
<path d="M133.992 90.9492H129.006V124.584H133.992V90.9492Z" fill="#FEFDFF"/>
<path d="M114.166 90.4219H109.607V121.168H114.166V90.4219Z" fill="#FEFDFF"/>
<path d="M123.283 87.2095H118.725V117.956H123.283V87.2095Z" stroke="#FEFDFF" stroke-width="0.7385" stroke-miterlimit="10"/>
<path d="M165.068 87.2095H160.51V117.956H165.068V87.2095Z" stroke="#FEFDFF" stroke-width="0.7385" stroke-miterlimit="10"/>
<path d="M72.2284 81.2437H67.6699V99.5998H72.2284V81.2437Z" stroke="#FEFDFF" stroke-width="0.7385" stroke-miterlimit="10"/>
<path d="M97.9071 107.401H93.3486V125.757H97.9071V107.401Z" stroke="#FEFDFF" stroke-width="0.7385" stroke-miterlimit="10"/>
<path d="M174.039 102.844H169.48V121.2H174.039V102.844Z" stroke="#FEFDFF" stroke-width="0.7385" stroke-miterlimit="10"/>
<path d="M181.859 114.029H177.301V132.385H181.859V114.029Z" stroke="#FEFDFF" stroke-width="0.7385" stroke-miterlimit="10"/>
<path d="M155.8 92.2568H151.241V110.613H155.8V92.2568Z" stroke="#FEFDFF" stroke-width="0.7385" stroke-miterlimit="10"/>
<path d="M164.423 63.212C164.423 67.6055 160.885 71.1667 156.521 71.1667C152.418 71.1667 149.048 68.0215 148.656 63.9954C148.631 63.7386 148.619 63.4755 148.619 63.212C148.619 59.9628 150.555 57.1697 153.327 55.9334C154.302 55.4989 155.384 55.2573 156.521 55.2573C160.885 55.2577 164.423 58.8189 164.423 63.212Z" stroke="#FEFDFF" stroke-width="0.7385" stroke-miterlimit="10"/>
<path d="M183.891 63.171C183.891 66.7504 181.542 69.7797 178.309 70.7769C177.576 71.0035 176.798 71.1257 175.99 71.1257C171.625 71.1257 168.088 67.5645 168.088 63.171C168.088 58.7775 171.625 55.2163 175.99 55.2163C177.658 55.2163 179.205 55.7362 180.481 56.6265C182.542 58.0616 183.891 60.4574 183.891 63.171Z" stroke="#FEFDFF" stroke-width="0.7385" stroke-miterlimit="10"/>
<path d="M156.522 63.4137L148.656 63.9941C148.631 63.7373 148.619 63.4742 148.619 63.2107C148.619 59.9615 150.555 57.1684 153.327 55.9321L156.522 63.4137Z" fill="#FEFDFF"/>
<path d="M183.891 63.1709C183.891 66.7504 181.542 69.7796 178.308 70.7768L175.163 63.6175L180.482 56.6265C182.542 58.0615 183.891 60.4574 183.891 63.1709Z" fill="#FEFDFF"/>
<path d="M54.2822 94.9966H57.2432L55.7629 97.578L54.2822 100.159L52.802 97.578L51.3213 94.9966H54.2822Z" fill="#4EC72E"/>
<path d="M95.5898 99.8921H98.5508L97.0705 102.474L95.5898 105.055L94.1096 102.474L92.6289 99.8921H95.5898Z" fill="#4EC72E"/>
<path d="M146.049 96.2207H149.01L147.53 98.8021L146.049 101.384L144.569 98.8021L143.088 96.2207H146.049Z" fill="#4EC72E"/>
<path d="M70.0615 109.065H67.1006L68.5808 106.483L70.0615 103.902L71.5422 106.483L73.0225 109.065H70.0615Z" fill="#4EC72E"/>
<path d="M45.4453 147.612H42.4844L43.9646 145.031L45.4453 142.449L46.9256 145.031L48.4062 147.612H45.4453Z" fill="#4EC72E"/>
<path d="M163.51 125.126H160.549L162.029 122.545L163.51 119.963L164.99 122.545L166.471 125.126H163.51Z" fill="#4EC72E"/>
<path d="M46.8483 173.974H35.2881C33.0153 173.974 31.1729 172.119 31.1729 169.831V158.193C31.1729 155.905 33.0153 154.05 35.2881 154.05H46.8487C49.1216 154.05 50.964 155.905 50.964 158.193V169.831C50.964 172.119 49.1212 173.974 46.8483 173.974Z" fill="#4EC72E"/>
<path d="M195.208 104.579H184.556C182.462 104.579 180.765 102.87 180.765 100.761V90.0379C180.765 87.9296 182.462 86.2207 184.556 86.2207H195.208C197.303 86.2207 199 87.9296 199 90.0379V100.761C199 102.869 197.302 104.579 195.208 104.579Z" fill="#4EC72E"/>
<path d="M33.8298 99.5093H25.1058C23.3905 99.5093 22 98.1094 22 96.3827V87.6002C22 85.8735 23.3905 84.4736 25.1058 84.4736H33.8298C35.545 84.4736 36.9356 85.8735 36.9356 87.6002V96.3827C36.9356 98.1094 35.545 99.5093 33.8298 99.5093Z" fill="#4EC72E"/>
<path d="M27.3909 91.6646H26.0439V95.8443H27.3909V91.6646Z" fill="#FFF8F3"/>
<path d="M29.7255 89.2617H28.251V95.9056H29.7255V89.2617Z" fill="#FFF8F3"/>
<path d="M32.2138 87.584H30.7393V95.9061H32.2138V87.584Z" fill="#FFF8F3"/>
<path d="M195.096 154.43H184.669C182.619 154.43 180.957 152.757 180.957 150.693V140.196C180.957 138.133 182.619 136.459 184.669 136.459H195.096C197.146 136.459 198.807 138.132 198.807 140.196V150.693C198.808 152.757 197.146 154.43 195.096 154.43Z" fill="#4EC72E"/>
<path d="M183.622 149.951L187.529 144.706L190.608 148.402L194.87 142.204" stroke="#FFF8F3" stroke-miterlimit="10"/>
<path d="M195.783 140.881L195.589 143.075L195.394 145.269L193.605 144.003L191.814 142.736L193.799 141.809L195.783 140.881Z" fill="#FFF8F3"/>
<path d="M79.613 203V181.811L60.7877 171L42.8594 181.811V203H79.613Z" fill="#4EC72E"/>
<path d="M48.2031 188.676H47.5273V191H46.3555V185.312H47.5273V187.59H48.0625L49.4531 185.312H50.8828L49.1289 188.004L51.0664 191H49.668L48.2031 188.676ZM53.6523 188L54.6875 185.312H55.9531L53.9648 190.004L53.8047 190.312C53.5104 190.826 53.0599 191.082 52.4531 191.082L52.043 191.066L52.0312 190.125C52.0938 190.135 52.1953 190.141 52.3359 190.141C52.5 190.141 52.6315 190.112 52.7305 190.055C52.832 189.997 52.9167 189.892 52.9844 189.738L53.1289 189.367L51.1328 185.312H52.3945L53.6523 188ZM61.207 191H60.0312V186.262H57.7539V191H56.582V185.312H61.207V191ZM65.6484 185.312H66.8242V191H65.6484V187.223L63.3711 191H62.1992V185.312H63.3711V189.098L65.6484 185.312ZM72.0039 186.262H70.2617V191H69.0898V186.262H67.3711V185.312H72.0039V186.262ZM73.9102 187.363H74.8242C75.4935 187.363 76.0234 187.526 76.4141 187.852C76.8073 188.174 77.0039 188.611 77.0039 189.16C77.0039 189.712 76.8086 190.156 76.418 190.492C76.0299 190.826 75.513 190.995 74.8672 191H72.7305V185.312H73.9102V187.363ZM73.9102 188.309V190.059H74.8438C75.1432 190.059 75.3815 189.977 75.5586 189.812C75.7383 189.648 75.8281 189.428 75.8281 189.152C75.8281 188.895 75.7422 188.691 75.5703 188.543C75.401 188.392 75.168 188.314 74.8711 188.309H73.9102Z" fill="black"/>
<path d="M61.7422 171.227V115.323" stroke="black" stroke-width="0.7057" stroke-miterlimit="10" stroke-linecap="round" stroke-linejoin="round"/>
<path d="M61.6008 173.147C62.4402 173.147 63.1206 172.462 63.1206 171.617C63.1206 170.772 62.4402 170.087 61.6008 170.087C60.7615 170.087 60.0811 170.772 60.0811 171.617C60.0811 172.462 60.7615 173.147 61.6008 173.147Z" fill="#FEFDFF"/>
<path d="M185.901 203V181.811L165.041 171L145.174 181.811V203H185.901Z" fill="#4EC72E"/>
<path d="M152.302 192H151.126V187.262H148.849V192H147.677V186.312H152.302V192ZM154.505 189.996V192H153.333V186.312H155.552C155.979 186.312 156.354 186.391 156.677 186.547C157.002 186.703 157.252 186.926 157.427 187.215C157.601 187.501 157.688 187.828 157.688 188.195C157.688 188.753 157.497 189.193 157.114 189.516C156.734 189.836 156.207 189.996 155.532 189.996H154.505ZM154.505 189.047H155.552C155.862 189.047 156.097 188.974 156.259 188.828C156.423 188.682 156.505 188.474 156.505 188.203C156.505 187.924 156.423 187.699 156.259 187.527C156.095 187.355 155.868 187.267 155.579 187.262H154.505V189.047ZM163.169 189.285C163.169 189.845 163.07 190.336 162.872 190.758C162.674 191.18 162.39 191.505 162.021 191.734C161.653 191.964 161.231 192.078 160.755 192.078C160.284 192.078 159.863 191.965 159.493 191.738C159.123 191.512 158.837 191.189 158.634 190.77C158.431 190.348 158.328 189.863 158.325 189.316V189.035C158.325 188.475 158.425 187.983 158.626 187.559C158.829 187.132 159.114 186.805 159.481 186.578C159.851 186.349 160.273 186.234 160.747 186.234C161.221 186.234 161.642 186.349 162.009 186.578C162.379 186.805 162.664 187.132 162.864 187.559C163.067 187.983 163.169 188.474 163.169 189.031V189.285ZM161.981 189.027C161.981 188.431 161.875 187.978 161.661 187.668C161.448 187.358 161.143 187.203 160.747 187.203C160.354 187.203 160.05 187.357 159.837 187.664C159.623 187.969 159.515 188.417 159.513 189.008V189.285C159.513 189.866 159.619 190.316 159.833 190.637C160.047 190.957 160.354 191.117 160.755 191.117C161.148 191.117 161.45 190.964 161.661 190.656C161.872 190.346 161.979 189.896 161.981 189.305V189.027ZM169.161 193.398H168.079V192H164.649V193.395H163.54L163.478 191.059H163.907C164.139 190.866 164.317 190.583 164.442 190.211C164.57 189.836 164.656 189.372 164.7 188.82L164.864 186.312H168.591V191.059H169.255L169.161 193.398ZM165.251 191.059H167.419V187.262H165.978L165.88 188.758C165.802 189.76 165.592 190.527 165.251 191.059ZM173.146 190.828H171.091L170.7 192H169.454L171.571 186.312H172.657L174.786 192H173.54L173.146 190.828ZM171.407 189.879H172.829L172.114 187.75L171.407 189.879ZM179.13 187.262H177.388V192H176.216V187.262H174.497V186.312H179.13V187.262ZM181.036 188.363H181.95C182.619 188.363 183.149 188.526 183.54 188.852C183.933 189.174 184.13 189.611 184.13 190.16C184.13 190.712 183.935 191.156 183.544 191.492C183.156 191.826 182.639 191.995 181.993 192H179.856V186.312H181.036V188.363ZM181.036 189.309V191.059H181.97C182.269 191.059 182.507 190.977 182.685 190.812C182.864 190.648 182.954 190.428 182.954 190.152C182.954 189.895 182.868 189.691 182.696 189.543C182.527 189.392 182.294 189.314 181.997 189.309H181.036Z" fill="black"/>
<path d="M163.411 172.23C164.251 172.23 164.931 171.545 164.931 170.7C164.931 169.855 164.251 169.17 163.411 169.17C162.572 169.17 161.892 169.855 161.892 170.7C161.892 171.545 162.572 172.23 163.411 172.23Z" fill="#FEFDFF"/>
<path d="M163.411 170.7V125.126" stroke="#FEFDFF" stroke-width="0.7385" stroke-miterlimit="10"/>
<path d="M173.44 37H161.892V48.6261H173.44V37Z" fill="#77BA66"/>
<path d="M156.119 143.924H144.57V155.55H156.119V143.924Z" fill="#77BA66"/>
<path d="M143.07 202.831C157.741 202.824 172.633 202.824 187.357 202.852" stroke="black" stroke-width="0.7057" stroke-miterlimit="10" stroke-linecap="round" stroke-linejoin="round"/>
<path d="M41.8662 203C54.7415 203 67.7174 203 80.6066 203" stroke="black" stroke-width="0.7057" stroke-miterlimit="10" stroke-linecap="round" stroke-linejoin="round"/>
<path d="M103.682 194.592C103.682 195.606 102.866 196.428 101.859 196.428C100.852 196.428 100.035 195.606 100.035 194.592C100.035 193.578 100.852 192.756 101.859 192.756C102.866 192.756 103.682 193.578 103.682 194.592Z" fill="#FEFDFF"/>
<path d="M140.605 195.051C140.605 196.064 139.788 196.886 138.781 196.886C137.774 196.886 136.958 196.064 136.958 195.051C136.958 194.037 137.774 193.215 138.781 193.215C139.788 193.215 140.605 194.037 140.605 195.051Z" fill="#FEFDFF"/>
<path d="M192.115 119.332C192.115 120.346 191.298 121.168 190.291 121.168C189.284 121.168 188.468 120.346 188.468 119.332C188.468 118.319 189.284 117.497 190.291 117.497C191.298 117.497 192.115 118.319 192.115 119.332Z" fill="#FEFDFF"/>
<path d="M191.659 172.565C191.659 173.578 190.842 174.4 189.835 174.4C188.828 174.4 188.012 173.578 188.012 172.565C188.012 171.551 188.828 170.729 189.835 170.729C190.842 170.729 191.659 171.551 191.659 172.565Z" fill="#FEFDFF"/>
<path d="M29.8921 70.9607C29.8921 71.9745 29.0756 72.7964 28.0686 72.7964C27.0616 72.7964 26.2451 71.9745 26.2451 70.9607C26.2451 69.9469 27.0616 69.125 28.0686 69.125C29.0756 69.125 29.8921 69.9469 29.8921 70.9607Z" fill="#FEFDFF"/>
</svg>
