<svg width="220" height="240" viewBox="0 0 220 240" fill="none" xmlns="http://www.w3.org/2000/svg">
<rect width="220" height="240" fill="#1D8C00"/>
<g opacity="0.3">
<path opacity="0.3" d="M173.197 35.552C174.414 35.552 175.404 36.944 175.404 38.654V183.346C175.404 185.056 174.414 186.448 173.197 186.448H35.9457C34.7289 186.448 33.7385 185.056 33.7385 183.346V38.653C33.7385 36.943 34.7289 35.551 35.9457 35.551H173.197V35.552ZM173.197 35H35.9457C34.5098 35 33.3457 36.636 33.3457 38.653V183.345C33.3457 185.363 34.5098 186.999 35.9457 186.999H173.198C174.634 186.999 175.798 185.362 175.798 183.345V38.653C175.797 36.636 174.633 35 173.197 35Z" fill="white"/>
</g>
<mask id="mask0" mask-type="alpha" maskUnits="userSpaceOnUse" x="33" y="35" width="143" height="152">
<path d="M175.797 183.346C175.797 185.364 174.633 187 173.197 187H35.9457C34.5098 187 33.3457 185.363 33.3457 183.346V38.653C33.3457 36.635 34.5098 35 35.9457 35H173.198C174.634 35 175.798 36.636 175.798 38.653V183.346H175.797Z" fill="url(#paint0_linear)"/>
</mask>
<g mask="url(#mask0)">
<path opacity="0.4" d="M175.797 183.346C175.797 185.364 174.633 187 173.197 187H35.9457C34.5098 187 33.3457 185.363 33.3457 183.346V38.653C33.3457 36.635 34.5098 35 35.9457 35H173.198C174.634 35 175.798 36.636 175.798 38.653V183.346H175.797Z" fill="url(#paint1_linear)"/>
</g>
<mask id="mask1" mask-type="alpha" maskUnits="userSpaceOnUse" x="33" y="35" width="138" height="152">
<path d="M35.9457 187H40.3565C50.6204 159.544 63.7988 134.172 79.5943 111.973C105.092 76.138 136.465 49.862 170.488 35H35.9457C34.5098 35 33.3457 36.636 33.3457 38.653V183.345C33.3457 185.363 34.5098 187 35.9457 187Z" fill="url(#paint2_linear)"/>
</mask>
<g mask="url(#mask1)">
<path opacity="0.2" d="M35.9457 187H40.3565C50.6204 159.544 63.7988 134.172 79.5943 111.973C105.092 76.138 136.465 49.862 170.488 35H35.9457C34.5098 35 33.3457 36.636 33.3457 38.653V183.345C33.3457 185.363 34.5098 187 35.9457 187Z" fill="url(#paint3_linear)"/>
</g>
<path opacity="0.6" d="M109.357 148.064H53.7627V167.707H109.357V148.064Z" fill="#1D8C00"/>
<path d="M65.6602 161V153.891H67.9844C68.7559 153.891 69.3353 154.05 69.7227 154.369C70.1133 154.688 70.3086 155.16 70.3086 155.785C70.3086 156.117 70.2142 156.412 70.0254 156.669C69.8366 156.923 69.5794 157.12 69.2539 157.26C69.638 157.367 69.9408 157.572 70.1621 157.875C70.3867 158.174 70.499 158.533 70.499 158.949C70.499 159.587 70.2923 160.089 69.8789 160.453C69.4655 160.818 68.8812 161 68.126 161H65.6602ZM66.5977 157.675V160.233H68.1455C68.5817 160.233 68.9251 160.121 69.1758 159.896C69.4297 159.669 69.5566 159.356 69.5566 158.959C69.5566 158.103 69.0911 157.675 68.1602 157.675H66.5977ZM66.5977 156.923H68.0137C68.4238 156.923 68.751 156.82 68.9951 156.615C69.2425 156.41 69.3662 156.132 69.3662 155.78C69.3662 155.39 69.2523 155.106 69.0244 154.931C68.7965 154.752 68.4499 154.662 67.9844 154.662H66.5977V156.923ZM77.3594 157.675C77.3594 158.371 77.2422 158.98 77.0078 159.501C76.7734 160.019 76.4414 160.414 76.0117 160.688C75.582 160.961 75.0807 161.098 74.5078 161.098C73.9479 161.098 73.4515 160.961 73.0186 160.688C72.5856 160.411 72.2487 160.019 72.0078 159.511C71.7702 159 71.6481 158.409 71.6416 157.738V157.226C71.6416 156.542 71.7604 155.938 71.998 155.414C72.2357 154.89 72.571 154.49 73.0039 154.213C73.4401 153.933 73.9382 153.793 74.498 153.793C75.0677 153.793 75.569 153.931 76.002 154.208C76.4382 154.481 76.7734 154.88 77.0078 155.404C77.2422 155.925 77.3594 156.532 77.3594 157.226V157.675ZM76.4268 157.216C76.4268 156.373 76.2575 155.727 75.9189 155.277C75.5804 154.825 75.1068 154.599 74.498 154.599C73.9056 154.599 73.4385 154.825 73.0967 155.277C72.7581 155.727 72.584 156.352 72.5742 157.152V157.675C72.5742 158.492 72.7451 159.135 73.0869 159.604C73.432 160.069 73.9056 160.302 74.5078 160.302C75.1133 160.302 75.582 160.082 75.9141 159.643C76.2461 159.2 76.417 158.567 76.4268 157.743V157.216ZM83.248 153.891H84.1855V161H83.248V155.521L79.7471 161H78.8047V153.891H79.7471V159.369L83.248 153.891ZM82.9844 152.123C82.9844 152.517 82.8493 152.834 82.5791 153.075C82.3122 153.313 81.9606 153.432 81.5244 153.432C81.0882 153.432 80.735 153.311 80.4648 153.07C80.1947 152.829 80.0596 152.514 80.0596 152.123H80.7969C80.7969 152.351 80.8587 152.53 80.9824 152.66C81.1061 152.787 81.2868 152.851 81.5244 152.851C81.7523 152.851 81.9297 152.787 82.0566 152.66C82.1868 152.533 82.252 152.354 82.252 152.123H82.9844ZM90.8066 154.662H88.5215V161H87.5889V154.662H85.3086V153.891H90.8066V154.662ZM96.3438 153.891H97.2812V161H96.3438V155.521L92.8428 161H91.9004V153.891H92.8428V159.369L96.3438 153.891Z" fill="black"/>
<path d="M66.1152 58.6602V62H64.9902V53.4688H68.1367C69.0703 53.4688 69.8008 53.707 70.3281 54.1836C70.8594 54.6602 71.125 55.291 71.125 56.0762C71.125 56.9043 70.8652 57.543 70.3457 57.9922C69.8301 58.4375 69.0898 58.6602 68.125 58.6602H66.1152ZM66.1152 57.7402H68.1367C68.7383 57.7402 69.1992 57.5996 69.5195 57.3184C69.8398 57.0332 70 56.623 70 56.0879C70 55.5801 69.8398 55.1738 69.5195 54.8691C69.1992 54.5645 68.7598 54.4062 68.2012 54.3945H66.1152V57.7402ZM77.3828 58.0566H73.6855V61.0801H77.9805V62H72.5605V53.4688H77.9219V54.3945H73.6855V57.1367H77.3828V58.0566ZM84.6719 54.3945H80.5586V62H79.4277V53.4688H84.6719V54.3945ZM91.4395 53.4688H92.5645V62H91.4395V55.4258L87.2383 62H86.1074V53.4688H87.2383V60.043L91.4395 53.4688ZM100.891 59.293C100.785 60.1953 100.451 60.8926 99.8887 61.3848C99.3301 61.873 98.5859 62.1172 97.6562 62.1172C96.6484 62.1172 95.8398 61.7559 95.2305 61.0332C94.625 60.3105 94.3223 59.3438 94.3223 58.1328V57.3125C94.3223 56.5195 94.4629 55.8223 94.7441 55.2207C95.0293 54.6191 95.4316 54.1582 95.9512 53.8379C96.4707 53.5137 97.0723 53.3516 97.7559 53.3516C98.6621 53.3516 99.3887 53.6055 99.9355 54.1133C100.482 54.6172 100.801 55.3164 100.891 56.2109H99.7598C99.6621 55.5312 99.4492 55.0391 99.1211 54.7344C98.7969 54.4297 98.3418 54.2773 97.7559 54.2773C97.0371 54.2773 96.4727 54.543 96.0625 55.0742C95.6562 55.6055 95.4531 56.3613 95.4531 57.3418V58.168C95.4531 59.0938 95.6465 59.8301 96.0332 60.377C96.4199 60.9238 96.9609 61.1973 97.6562 61.1973C98.2812 61.1973 98.7598 61.0566 99.0918 60.7754C99.4277 60.4902 99.6504 59.9961 99.7598 59.293H100.891ZM108.15 54.3945H105.408V62H104.289V54.3945H101.553V53.4688H108.15V54.3945ZM110.541 58.6602V62H109.416V53.4688H112.562C113.496 53.4688 114.227 53.707 114.754 54.1836C115.285 54.6602 115.551 55.291 115.551 56.0762C115.551 56.9043 115.291 57.543 114.771 57.9922C114.256 58.4375 113.516 58.6602 112.551 58.6602H110.541ZM110.541 57.7402H112.562C113.164 57.7402 113.625 57.5996 113.945 57.3184C114.266 57.0332 114.426 56.623 114.426 56.0879C114.426 55.5801 114.266 55.1738 113.945 54.8691C113.625 54.5645 113.186 54.4062 112.627 54.3945H110.541V57.7402ZM120.889 59.7734H117.314L116.512 62H115.352L118.609 53.4688H119.594L122.857 62H121.703L120.889 59.7734ZM117.654 58.8477H120.555L119.102 54.8574L117.654 58.8477ZM124.041 53.4688H125.172V61.0801H129.379V53.4688H130.504V61.0566H131.4L131.295 64.0566H130.281V62H124.041V53.4688ZM138.162 53.4688H139.287V62H138.162V55.4258L133.961 62H132.83V53.4688H133.961V60.043L138.162 53.4688ZM145.803 62V58.6777H143.834L142.07 62H140.869L142.85 58.3672C141.748 57.9336 141.197 57.1582 141.197 56.041C141.197 55.2285 141.463 54.5977 141.994 54.1484C142.529 53.6953 143.271 53.4688 144.221 53.4688H146.934V62H145.803ZM142.322 56.041C142.322 56.5566 142.482 56.9707 142.803 57.2832C143.127 57.5957 143.576 57.7539 144.15 57.7578H145.803V54.3945H144.203C143.594 54.3945 143.127 54.5391 142.803 54.8281C142.482 55.1172 142.322 55.5215 142.322 56.041Z" fill="black"/>
<path opacity="0.8" d="M161.009 76.1792H53.7627V98.9282H161.009V76.1792Z" fill="white"/>
<g opacity="0.9">
<path opacity="0.9" d="M160.831 76.4292V98.6782H53.9406V76.4292H160.831ZM161.009 76.1792H53.7627V98.9282H161.009V76.1792Z" fill="white"/>
</g>
<path d="M65.3702 89.3351V89.9411H62.374V84.5571H65.3144V85.1631H62.9339V86.9071H65.0038V87.4761H62.9339V89.3341H65.3702V89.3351Z" fill="#6B6B6B"/>
<path d="M70.9578 89.942H70.411V87.728C70.411 87.314 70.3561 87.008 70.2463 86.81C70.1364 86.613 69.9733 86.515 69.7585 86.515C69.5347 86.515 69.3347 86.612 69.1585 86.807C68.9822 87.001 68.8568 87.253 68.7822 87.561V89.942H68.2354V87.728C68.2354 87.304 68.1822 86.995 68.074 86.803C67.9657 86.611 67.8043 86.515 67.5887 86.515C67.369 86.515 67.1698 86.61 66.9919 86.799C66.814 86.988 66.6869 87.24 66.6132 87.553V89.942H66.0664V85.984H66.5632V86.833C66.696 86.54 66.8681 86.313 67.0788 86.154C67.2903 85.995 67.528 85.915 67.7936 85.915C68.0666 85.915 68.2838 86.005 68.4428 86.184C68.6019 86.364 68.7002 86.595 68.7379 86.878C69.0281 86.236 69.4405 85.915 69.9749 85.915C70.161 85.915 70.3176 85.957 70.4438 86.04C70.5701 86.124 70.6709 86.24 70.7455 86.389C70.8201 86.538 70.8742 86.714 70.907 86.916C70.9406 87.118 70.957 87.338 70.957 87.576V89.942H70.9578Z" fill="#6B6B6B"/>
<path d="M72.6619 90.018C72.5004 90.018 72.3512 89.987 72.2143 89.923C72.0774 89.86 71.9594 89.774 71.8602 89.665C71.7602 89.557 71.6831 89.428 71.6274 89.278C71.5717 89.129 71.543 88.971 71.543 88.804C71.543 88.617 71.5766 88.446 71.6422 88.292C71.7086 88.138 71.8028 88.007 71.925 87.898C72.0471 87.789 72.1922 87.706 72.3603 87.648C72.5283 87.59 72.7111 87.561 72.9103 87.561C73.0677 87.561 73.2275 87.579 73.389 87.614C73.5505 87.65 73.694 87.697 73.8177 87.759V87.44C73.8177 87.117 73.7432 86.863 73.594 86.678C73.4448 86.493 73.2333 86.401 72.9603 86.401C72.6332 86.401 72.2889 86.555 71.9282 86.863L71.7479 86.431C71.9594 86.259 72.1684 86.13 72.3758 86.044C72.5832 85.958 72.7988 85.915 73.0226 85.915C73.4366 85.915 73.7645 86.054 74.0047 86.332C74.2448 86.61 74.3645 87.002 74.3645 87.507V89.122C74.3645 89.279 74.4227 89.36 74.5383 89.365V89.941C74.4965 89.951 74.4571 89.958 74.4203 89.964C74.3834 89.969 74.3481 89.971 74.3145 89.971C74.2235 89.971 74.1342 89.941 74.0473 89.88C73.9604 89.819 73.9128 89.715 73.9046 89.569L73.8923 89.288C73.8178 89.41 73.7325 89.516 73.6374 89.607C73.5423 89.698 73.4407 89.774 73.3325 89.835C73.2251 89.896 73.1136 89.941 73.0005 89.971C72.8865 90.002 72.7734 90.018 72.6619 90.018ZM72.7988 89.517C72.9726 89.517 73.1431 89.472 73.3087 89.381C73.4743 89.29 73.6046 89.179 73.7005 89.048C73.7792 88.937 73.8186 88.833 73.8186 88.737V88.153C73.6899 88.092 73.5546 88.046 73.4112 88.013C73.2685 87.98 73.1308 87.964 72.998 87.964C72.716 87.964 72.4898 88.033 72.3201 88.173C72.1496 88.312 72.0651 88.503 72.0651 88.745C72.0651 88.847 72.0824 88.944 72.1152 89.037C72.1479 89.131 72.1955 89.213 72.2578 89.284C72.3201 89.355 72.3963 89.412 72.4873 89.454C72.5791 89.496 72.6824 89.517 72.7988 89.517Z" fill="#6B6B6B"/>
<path d="M75.2471 85.2412V84.4072H75.7938V85.2412H75.2471ZM75.2471 89.9422V85.9842H75.7938V89.9422H75.2471Z" fill="#6B6B6B"/>
<path d="M76.665 84.4072H77.2118V88.9192C77.2118 89.0652 77.2438 89.1802 77.3085 89.2642C77.3725 89.3482 77.4626 89.3892 77.579 89.3892C77.625 89.3892 77.6791 89.3802 77.7405 89.3632C77.802 89.3462 77.8602 89.3242 77.9143 89.2992L78.0012 89.8382C77.9102 89.8832 77.802 89.9212 77.6782 89.9522C77.5536 89.9822 77.4438 89.9972 77.3487 89.9972C77.1372 89.9972 76.9708 89.9242 76.8487 89.7772C76.7265 89.6312 76.665 89.4262 76.665 89.1632V84.4072Z" fill="#6B6B6B"/>
<path opacity="0.8" d="M161.009 110.775H53.7627V133.523H161.009V110.775Z" fill="white"/>
<g opacity="0.9">
<path opacity="0.9" d="M160.831 111.025V133.273H53.9406V111.025H160.831ZM161.009 110.775H53.7627V133.523H161.009V110.775Z" fill="white"/>
</g>
<path d="M62.374 124.538V119.154H64.1735C64.3634 119.154 64.5389 119.203 64.6993 119.302C64.8596 119.401 64.9974 119.532 65.1128 119.696C65.2283 119.861 65.318 120.045 65.383 120.25C65.4479 120.455 65.4799 120.663 65.4799 120.876C65.4799 121.099 65.4495 121.314 65.3886 121.521C65.3276 121.729 65.2411 121.913 65.1305 122.075C65.0191 122.237 64.8852 122.365 64.7289 122.462C64.5726 122.558 64.3995 122.606 64.2095 122.606H62.9215V124.54H62.374V124.538ZM62.9215 121.997H64.1791C64.2929 121.997 64.3955 121.968 64.486 121.91C64.5774 121.852 64.6552 121.771 64.7201 121.667C64.785 121.563 64.8355 121.443 64.8724 121.307C64.9084 121.171 64.9269 121.027 64.9269 120.875C64.9269 120.718 64.906 120.572 64.8628 120.436C64.8203 120.299 64.7634 120.181 64.6928 120.08C64.6223 119.979 64.5389 119.9 64.4436 119.845C64.3482 119.789 64.248 119.761 64.143 119.761H62.9215V121.997Z" fill="#6B6B6B"/>
<path d="M66.848 124.613C66.6901 124.613 66.5442 124.582 66.4104 124.518C66.2765 124.455 66.1611 124.369 66.0641 124.26C65.9663 124.152 65.891 124.023 65.8365 123.873C65.782 123.724 65.7539 123.566 65.7539 123.399C65.7539 123.212 65.786 123.041 65.8509 122.887C65.9158 122.733 66.008 122.602 66.1274 122.493C66.2468 122.384 66.3887 122.301 66.553 122.243C66.7173 122.185 66.8961 122.156 67.0909 122.156C67.2447 122.156 67.401 122.174 67.5589 122.209C67.7168 122.245 67.8571 122.292 67.9781 122.354V122.035C67.9781 121.712 67.9052 121.458 67.7593 121.273C67.6134 121.088 67.4067 120.996 67.1397 120.996C66.8199 120.996 66.4833 121.15 66.1306 121.458L65.9543 121.026C66.1611 120.854 66.3655 120.725 66.5683 120.639C66.7702 120.553 66.9818 120.51 67.1999 120.51C67.6046 120.51 67.9252 120.649 68.1601 120.927C68.3949 121.205 68.512 121.597 68.512 122.102V123.717C68.512 123.874 68.5689 123.955 68.6819 123.96V124.536C68.641 124.546 68.6025 124.554 68.5665 124.559C68.5304 124.564 68.4959 124.566 68.4631 124.566C68.3741 124.566 68.2867 124.536 68.2018 124.475C68.1168 124.414 68.0703 124.31 68.0623 124.164L68.0503 123.883C67.9773 124.005 67.894 124.111 67.801 124.202C67.708 124.293 67.6086 124.369 67.5036 124.429C67.3986 124.49 67.2896 124.535 67.179 124.565C67.0676 124.598 66.9578 124.613 66.848 124.613ZM66.9818 124.113C67.1518 124.113 67.3177 124.068 67.4804 123.977C67.6423 123.886 67.7697 123.775 67.8635 123.644C67.9405 123.533 67.9789 123.429 67.9789 123.333V122.749C67.8531 122.688 67.7209 122.642 67.5806 122.609C67.4411 122.576 67.3065 122.56 67.1766 122.56C66.9009 122.56 66.6797 122.629 66.5138 122.769C66.347 122.908 66.2645 123.099 66.2645 123.341C66.2645 123.443 66.2813 123.54 66.3134 123.633C66.3454 123.727 66.3919 123.809 66.4528 123.88C66.5137 123.951 66.5883 124.008 66.6773 124.05C66.767 124.091 66.868 124.113 66.9818 124.113Z" fill="#6B6B6B"/>
<path d="M70.4998 124.613C70.245 124.613 69.9933 124.564 69.7464 124.465C69.4987 124.367 69.2863 124.224 69.1084 124.037L69.3392 123.59C69.5252 123.767 69.7119 123.9 69.8987 123.988C70.0855 124.076 70.2818 124.121 70.4878 124.121C70.7195 124.121 70.9022 124.064 71.0385 123.95C71.1739 123.837 71.2421 123.676 71.2421 123.468C71.2421 123.372 71.2236 123.29 71.1876 123.222C71.1515 123.154 71.0962 123.094 71.0232 123.044C70.9503 122.993 70.8573 122.948 70.7435 122.907C70.6297 122.867 70.4982 122.824 70.3484 122.778C70.1576 122.717 69.9941 122.659 69.8562 122.604C69.7184 122.548 69.6053 122.483 69.5164 122.407C69.4274 122.331 69.3625 122.241 69.3216 122.134C69.2807 122.028 69.2607 121.897 69.2607 121.74C69.2607 121.543 69.2919 121.367 69.3553 121.213C69.4186 121.059 69.5044 120.93 69.6134 120.826C69.7232 120.722 69.8514 120.644 69.9989 120.591C70.1472 120.538 70.3059 120.511 70.4758 120.511C70.7147 120.511 70.9383 120.559 71.1443 120.655C71.3511 120.751 71.525 120.878 71.6669 121.034L71.424 121.436C71.2902 121.29 71.1403 121.18 70.9744 121.106C70.8084 121.033 70.6377 120.996 70.4638 120.996C70.269 120.996 70.1039 121.048 69.9684 121.151C69.833 121.255 69.7648 121.42 69.7648 121.648C69.7648 121.739 69.7785 121.815 69.8041 121.876C69.8306 121.936 69.8739 121.99 69.9348 122.035C69.9957 122.08 70.0734 122.121 70.1688 122.157C70.2642 122.192 70.3788 122.23 70.5127 122.271C70.7235 122.332 70.9062 122.394 71.0625 122.457C71.218 122.521 71.3479 122.595 71.4513 122.681C71.5547 122.767 71.6316 122.868 71.6821 122.984C71.7326 123.101 71.7582 123.242 71.7582 123.409C71.7582 123.778 71.6444 124.072 71.4176 124.289C71.1908 124.505 70.8854 124.613 70.4998 124.613Z" fill="#6B6B6B"/>
<path d="M73.4959 124.613C73.2411 124.613 72.9894 124.564 72.7425 124.465C72.4948 124.367 72.2824 124.224 72.1045 124.037L72.3353 123.59C72.5213 123.767 72.708 123.9 72.8948 123.988C73.0808 124.076 73.2779 124.121 73.4839 124.121C73.7156 124.121 73.8983 124.064 74.0346 123.95C74.17 123.837 74.2382 123.676 74.2382 123.468C74.2382 123.372 74.2197 123.29 74.1837 123.222C74.1476 123.154 74.0923 123.094 74.0201 123.044C73.9472 122.993 73.8534 122.948 73.7404 122.907C73.6266 122.867 73.4951 122.824 73.3453 122.778C73.1545 122.717 72.991 122.659 72.8531 122.604C72.7153 122.548 72.6022 122.483 72.5133 122.407C72.4243 122.331 72.3594 122.241 72.3185 122.134C72.2776 122.028 72.2576 121.897 72.2576 121.74C72.2576 121.543 72.2896 121.367 72.3522 121.213C72.4155 121.059 72.5012 120.93 72.6103 120.826C72.7201 120.722 72.8483 120.644 72.9958 120.591C73.1441 120.538 73.3028 120.511 73.4727 120.511C73.7116 120.511 73.9352 120.559 74.1412 120.655C74.348 120.751 74.5219 120.878 74.6638 121.034L74.4209 121.436C74.287 121.29 74.1372 121.18 73.9712 121.106C73.8045 121.033 73.6346 120.996 73.4607 120.996C73.2659 120.996 73.1008 121.048 72.9653 121.151C72.8299 121.255 72.7617 121.42 72.7617 121.648C72.7617 121.739 72.7754 121.815 72.801 121.876C72.8275 121.936 72.8707 121.99 72.9317 122.035C72.9926 122.08 73.0703 122.121 73.1657 122.157C73.2611 122.192 73.3757 122.23 73.5096 122.271C73.7204 122.332 73.9031 122.394 74.0594 122.457C74.2149 122.521 74.3448 122.595 74.4482 122.681C74.5516 122.767 74.6285 122.868 74.679 122.984C74.7295 123.101 74.7551 123.242 74.7551 123.409C74.7551 123.778 74.6413 124.072 74.4145 124.289C74.1877 124.505 73.8815 124.613 73.4959 124.613Z" fill="#6B6B6B"/>
<path d="M79.2945 120.58H79.8115L78.4618 124.538H78.0185L77.3805 122.604L76.7481 124.538H76.304L74.9551 120.58H75.4657L76.5597 123.878L77.0944 122.233L76.5477 120.587H76.991L77.3797 121.854L77.7684 120.587H78.2125L77.6715 122.233L78.2061 123.878L79.2945 120.58Z" fill="#6B6B6B"/>
<path d="M81.5797 124.613C81.3408 124.613 81.1228 124.557 80.9264 124.446C80.7301 124.335 80.5617 124.186 80.4223 123.998C80.2828 123.812 80.1738 123.594 80.0969 123.346C80.0199 123.098 79.9814 122.838 79.9814 122.565C79.9814 122.287 80.0207 122.025 80.1001 121.776C80.1794 121.529 80.2884 121.311 80.4279 121.124C80.5682 120.937 80.7357 120.787 80.9321 120.677C81.1284 120.566 81.3448 120.51 81.5797 120.51C81.8145 120.51 82.0317 120.566 82.2305 120.677C82.4293 120.788 82.5984 120.937 82.7379 121.124C82.8774 121.311 82.9872 121.528 83.0657 121.776C83.1451 122.024 83.1843 122.287 83.1843 122.565C83.1843 122.838 83.1459 123.099 83.0689 123.346C82.992 123.594 82.883 123.811 82.7403 123.998C82.5984 124.186 82.4293 124.334 82.2329 124.446C82.0366 124.558 81.8193 124.613 81.5797 124.613ZM80.5289 122.574C80.5289 122.782 80.5561 122.973 80.6106 123.15C80.6651 123.327 80.7405 123.481 80.8359 123.612C80.9312 123.744 81.0427 123.847 81.1701 123.923C81.2975 123.999 81.4346 124.037 81.5805 124.037C81.7264 124.037 81.8634 123.999 81.9909 123.923C82.1183 123.847 82.2305 123.742 82.3275 123.609C82.4253 123.475 82.5006 123.318 82.5559 123.139C82.6105 122.959 82.6377 122.766 82.6377 122.559C82.6377 122.357 82.6105 122.166 82.5559 121.986C82.5014 121.807 82.4253 121.65 82.3275 121.516C82.2305 121.382 82.1183 121.277 81.9909 121.201C81.8626 121.125 81.7264 121.087 81.5805 121.087C81.4346 121.087 81.2975 121.126 81.1701 121.205C81.0427 121.283 80.9312 121.39 80.8359 121.523C80.7405 121.657 80.6659 121.814 80.6106 121.993C80.5561 122.173 80.5289 122.366 80.5289 122.574Z" fill="#6B6B6B"/>
<path d="M85.494 121.163C85.2263 121.173 84.9898 121.259 84.7855 121.421C84.5811 121.583 84.436 121.808 84.351 122.096V124.537H83.8164V120.579H84.315V121.496C84.424 121.223 84.5682 120.997 84.7462 120.817C84.9241 120.637 85.1149 120.548 85.3169 120.548C85.3577 120.548 85.3922 120.548 85.4203 120.548C85.4491 120.548 85.4732 120.55 85.4932 120.555V121.163H85.494Z" fill="#6B6B6B"/>
<path d="M87.2076 124.613C86.9888 124.613 86.786 124.557 86.6001 124.446C86.4141 124.335 86.2538 124.186 86.1199 123.998C85.9861 123.812 85.8819 123.594 85.8065 123.346C85.732 123.098 85.6943 122.838 85.6943 122.565C85.6943 122.287 85.7296 122.023 85.8009 121.773C85.8715 121.523 85.9709 121.304 86.0991 121.117C86.2265 120.93 86.3788 120.782 86.5544 120.674C86.7307 120.565 86.9239 120.511 87.1355 120.511C87.3904 120.511 87.6188 120.594 87.8192 120.761C88.0196 120.928 88.1783 121.13 88.2961 121.368V119.002H88.8307V123.718C88.8307 123.875 88.8876 123.956 89.0006 123.961V124.537C88.9557 124.547 88.9165 124.555 88.882 124.56C88.8475 124.565 88.8163 124.567 88.7882 124.567C88.6664 124.567 88.5694 124.528 88.4965 124.449C88.4235 124.371 88.3851 124.276 88.3811 124.165L88.369 123.793C88.2432 124.051 88.0765 124.252 87.8673 124.396C87.6581 124.542 87.4385 124.613 87.2076 124.613ZM87.3351 124.037C87.432 124.037 87.533 124.014 87.6356 123.969C87.739 123.924 87.836 123.861 87.9274 123.78C88.0188 123.699 88.0973 123.604 88.1646 123.496C88.232 123.387 88.2752 123.272 88.2953 123.151V122.014C88.2584 121.888 88.2039 121.767 88.131 121.654C88.058 121.54 87.9763 121.442 87.8849 121.358C87.7935 121.275 87.6965 121.209 87.5931 121.161C87.4898 121.113 87.3872 121.089 87.2862 121.089C87.1283 121.089 86.9848 121.131 86.8573 121.214C86.7299 121.297 86.6201 121.409 86.5287 121.548C86.4374 121.687 86.3676 121.846 86.3195 122.025C86.2706 122.205 86.2466 122.388 86.2466 122.575C86.2466 122.772 86.2754 122.96 86.3323 123.14C86.3893 123.319 86.4654 123.475 86.5632 123.606C86.6602 123.737 86.7748 123.842 86.9062 123.92C87.0385 123.998 87.1812 124.037 87.3351 124.037Z" fill="#6B6B6B"/>
<path d="M45.5482 87.0715C46.2551 86.7063 46.7439 85.9947 46.7439 85.1674C46.7439 83.9699 45.7387 83 44.5 83C43.2602 83 42.2561 83.9689 42.2561 85.1674C42.2561 85.9947 42.7449 86.7063 43.4508 87.0715C42.0338 87.5049 41 88.7895 41 90.2958V92H48V90.2958C48 88.7895 46.9662 87.504 45.5482 87.0715Z" fill="#262626"/>
<path d="M47.2397 119.306H46.7106V118.545C46.7106 117.142 45.7166 116 44.4966 116C43.2766 116 42.2844 117.142 42.2844 118.545V119.306H41.7535C41.3395 119.306 41 119.697 41 120.173V125.126C41 125.61 41.3395 126 41.7535 126H47.2389C47.6597 126 48 125.61 48 125.126V120.172C48.0008 119.697 47.6605 119.306 47.2397 119.306ZM43.2851 118.545C43.2851 117.776 43.8286 117.149 44.4975 117.149C45.1663 117.149 45.7098 117.776 45.7098 118.545V119.306H43.2859V118.545H43.2851ZM44.9064 123.707V124.972C44.9064 125.026 44.8674 125.064 44.82 125.064H44.2926C44.2528 125.064 44.213 125.026 44.213 124.972V123.707C43.8532 123.545 43.5932 123.147 43.5932 122.671C43.5932 122.059 44.0267 121.56 44.5601 121.56C45.0926 121.56 45.5261 122.059 45.5261 122.671C45.5261 123.147 45.2662 123.545 44.9064 123.707Z" fill="#262626"/>
<defs>
<linearGradient id="paint0_linear" x1="104.571" y1="183.011" x2="104.571" y2="2.3132" gradientUnits="userSpaceOnUse">
<stop stop-color="#333333"/>
<stop offset="1" stop-color="white"/>
</linearGradient>
<linearGradient id="paint1_linear" x1="104.571" y1="183.011" x2="104.571" y2="2.3132" gradientUnits="userSpaceOnUse">
<stop stop-color="white"/>
<stop offset="1" stop-color="white"/>
</linearGradient>
<linearGradient id="paint2_linear" x1="101.917" y1="115.011" x2="101.917" y2="-123.258" gradientUnits="userSpaceOnUse">
<stop stop-color="#333333"/>
<stop offset="1" stop-color="white"/>
</linearGradient>
<linearGradient id="paint3_linear" x1="101.917" y1="115.011" x2="101.917" y2="-123.258" gradientUnits="userSpaceOnUse">
<stop stop-color="white"/>
<stop offset="1" stop-color="white"/>
</linearGradient>
</defs>
</svg>
