<svg width="220" height="240" viewBox="0 0 220 240" fill="none" xmlns="http://www.w3.org/2000/svg">
<rect width="220" height="240" fill="#1D8C00"/>
<path d="M77.4443 87H23.3294C22.2031 87 21.29 85.7058 21.29 84.109V82.8914C21.29 81.2945 22.2031 80 23.3294 80H77.4443C78.5706 80 79.4836 81.2945 79.4836 82.8914V84.109C79.4838 85.7058 78.5708 87 77.4443 87Z" fill="#77BA66"/>
<path d="M49.6991 110.902H22.9761C22.0449 110.902 21.29 109.838 21.29 108.526C21.29 107.214 22.0449 106.151 22.9761 106.151H49.6993C50.6305 106.151 51.3854 107.214 51.3854 108.526C51.3852 109.838 50.6306 110.902 49.6991 110.902Z" fill="#92C885"/>
<path d="M70.1619 100.938H22.859C21.9925 100.938 21.29 99.9487 21.29 98.7278V98.3984C21.29 97.1772 21.9925 96.1875 22.859 96.1875H70.1617C71.0283 96.1875 71.7309 97.1772 71.7309 98.3984V98.7278C71.7311 99.9487 71.0285 100.938 70.1619 100.938Z" fill="#92C885"/>
<path d="M121.913 100.938H77.8444C77.007 100.938 76.3281 99.9815 76.3281 98.8014V98.3229C76.3281 97.1431 77.0068 96.1865 77.8444 96.1865H121.913C122.751 96.1865 123.43 97.1431 123.43 98.3229V98.8014C123.43 99.9815 122.751 100.938 121.913 100.938Z" fill="#92C885"/>
<path d="M83.0311 110.902H56.3082C55.3769 110.902 54.6221 109.838 54.6221 108.526C54.6221 107.214 55.3769 106.151 56.3082 106.151H83.0311C83.9623 106.151 84.7172 107.214 84.7172 108.526C84.7172 109.838 83.9623 110.902 83.0311 110.902Z" fill="#92C885"/>
<path d="M143.444 87H89.3293C88.2031 87 87.29 85.7058 87.29 84.109V82.8914C87.29 81.2945 88.2031 80 89.3293 80H143.444C144.571 80 145.484 81.2945 145.484 82.8914V84.109C145.484 85.7058 144.571 87 143.444 87Z" fill="#77BA66"/>
<path d="M77.4443 149H23.3294C22.2031 149 21.29 147.706 21.29 146.109V144.891C21.29 143.295 22.2031 142 23.3294 142H77.4443C78.5706 142 79.4836 143.295 79.4836 144.891V146.109C79.4838 147.706 78.5708 149 77.4443 149Z" fill="#77BA66"/>
<path d="M49.6991 173.229H22.9761C22.0449 173.229 21.29 172.166 21.29 170.854C21.29 169.542 22.0449 168.478 22.9761 168.478H49.6993C50.6305 168.478 51.3854 169.542 51.3854 170.854C51.3852 172.166 50.6306 173.229 49.6991 173.229Z" fill="#92C885"/>
<path d="M70.1619 163.266H22.859C21.9925 163.266 21.29 162.276 21.29 161.055V160.726C21.29 159.505 21.9925 158.515 22.859 158.515H70.1617C71.0283 158.515 71.7309 159.505 71.7309 160.726V161.055C71.7311 162.276 71.0285 163.266 70.1619 163.266Z" fill="#92C885"/>
<path d="M121.913 163.265H77.8444C77.007 163.265 76.3281 162.309 76.3281 161.129V160.651C76.3281 159.471 77.0068 158.514 77.8444 158.514H121.913C122.751 158.514 123.43 159.471 123.43 160.651V161.129C123.43 162.309 122.751 163.265 121.913 163.265Z" fill="#92C885"/>
<path d="M83.0311 173.229H56.3082C55.3769 173.229 54.6221 172.166 54.6221 170.854C54.6221 169.542 55.3769 168.478 56.3082 168.478H83.0311C83.9623 168.478 84.7172 169.542 84.7172 170.854C84.7172 172.166 83.9623 173.229 83.0311 173.229Z" fill="#92C885"/>
<path d="M143.444 149H89.3293C88.2031 149 87.29 147.706 87.29 146.109V144.891C87.29 143.295 88.2031 142 89.3293 142H143.444C144.571 142 145.484 143.295 145.484 144.891V146.109C145.484 147.706 144.571 149 143.444 149Z" fill="#77BA66"/>
<path d="M198.709 30H21.29V60H198.709V30Z" fill="#92C885"/>
<path fill-rule="evenodd" clip-rule="evenodd" d="M30.2725 40.2694C30.88 39.6633 31.6541 39.2505 32.4967 39.0833C33.3394 38.916 34.2128 39.0019 35.0065 39.33C35.8002 39.6581 36.4786 40.2137 36.9559 40.9265C37.4333 41.6393 37.688 42.4773 37.688 43.3346C37.688 44.1919 37.4333 45.03 36.9559 45.7428C36.4786 46.4556 35.8002 47.0112 35.0065 47.3393C34.2128 47.6674 33.3394 47.7532 32.4967 47.586C31.6541 47.4188 30.88 47.006 30.2725 46.3999C29.8691 45.9973 29.5491 45.5195 29.3307 44.9935C29.1124 44.4676 29 43.9039 29 43.3346C29 42.7654 29.1124 42.2017 29.3307 41.6757C29.5491 41.1498 29.8691 40.6719 30.2725 40.2694ZM36.9703 45.5208L40.7331 49.2755C41.2669 49.8081 40.8898 50.2404 40.5562 50.5743C40.2225 50.9082 39.8135 51.2585 39.2796 50.7258L35.5168 46.9711L36.9703 45.5208ZM31.3159 41.2932C31.7144 40.8956 32.222 40.6249 32.7746 40.5151C33.3273 40.4054 33.9001 40.4617 34.4207 40.6768C34.9413 40.892 35.3863 41.2564 35.6994 41.7239C36.0124 42.1914 36.1795 42.741 36.1795 43.3033C36.1795 43.8655 36.0124 44.4152 35.6994 44.8827C35.3863 45.3502 34.9413 45.7146 34.4207 45.9297C33.9001 46.1449 33.3273 46.2011 32.7746 46.0914C32.222 45.9817 31.7144 45.7109 31.3159 45.3133C30.7817 44.7802 30.4816 44.0572 30.4816 43.3033C30.4816 42.5494 30.7817 41.8264 31.3159 41.2932Z" fill="black"/>
<path d="M198.71 30H156.129V60H198.71V30Z" fill="#77BA66"/>
<path d="M164.188 49H163.057V41.3945H158.85V49H157.725V40.4688H164.188V49ZM172.801 45.0098C172.801 45.8457 172.661 46.5762 172.379 47.2012C172.098 47.8223 171.7 48.2969 171.184 48.625C170.668 48.9531 170.067 49.1172 169.379 49.1172C168.707 49.1172 168.112 48.9531 167.592 48.625C167.073 48.293 166.668 47.8223 166.379 47.2129C166.094 46.5996 165.948 45.8906 165.94 45.0859V44.4707C165.94 43.6504 166.082 42.9258 166.368 42.2969C166.653 41.668 167.055 41.1875 167.575 40.8555C168.098 40.5195 168.696 40.3516 169.368 40.3516C170.051 40.3516 170.653 40.5176 171.172 40.8496C171.696 41.1777 172.098 41.6562 172.379 42.2852C172.661 42.9102 172.801 43.6387 172.801 44.4707V45.0098ZM171.682 44.459C171.682 43.4473 171.479 42.6719 171.073 42.1328C170.666 41.5898 170.098 41.3184 169.368 41.3184C168.657 41.3184 168.096 41.5898 167.686 42.1328C167.28 42.6719 167.071 43.4219 167.059 44.3828V45.0098C167.059 45.9902 167.264 46.7617 167.674 47.3242C168.088 47.8828 168.657 48.1621 169.379 48.1621C170.106 48.1621 170.668 47.8984 171.067 47.3711C171.465 46.8398 171.67 46.0801 171.682 45.0918V44.459ZM179.868 40.4688H180.993V49H179.868V42.4258L175.666 49H174.536V40.4688H175.666V47.043L179.868 40.4688ZM189.319 46.293C189.213 47.1953 188.879 47.8926 188.317 48.3848C187.758 48.873 187.014 49.1172 186.084 49.1172C185.077 49.1172 184.268 48.7559 183.659 48.0332C183.053 47.3105 182.75 46.3438 182.75 45.1328V44.3125C182.75 43.5195 182.891 42.8223 183.172 42.2207C183.457 41.6191 183.86 41.1582 184.379 40.8379C184.899 40.5137 185.5 40.3516 186.184 40.3516C187.09 40.3516 187.817 40.6055 188.364 41.1133C188.911 41.6172 189.229 42.3164 189.319 43.2109H188.188C188.09 42.5312 187.877 42.0391 187.549 41.7344C187.225 41.4297 186.77 41.2773 186.184 41.2773C185.465 41.2773 184.901 41.543 184.491 42.0742C184.084 42.6055 183.881 43.3613 183.881 44.3418V45.168C183.881 46.0938 184.075 46.8301 184.461 47.377C184.848 47.9238 185.389 48.1973 186.084 48.1973C186.709 48.1973 187.188 48.0566 187.52 47.7754C187.856 47.4902 188.079 46.9961 188.188 46.293H189.319ZM193.075 45.168H192.038V49H190.913V40.4688H192.038V44.2305H192.916L195.899 40.4688H197.299L194.041 44.6055L197.539 49H196.163L193.075 45.168Z" fill="black"/>
</svg>
