<svg width="35" height="38" viewBox="0 0 35 38" fill="none" xmlns="http://www.w3.org/2000/svg">
<path d="M11.604 38C5.25323 37.9631 0 24.8992 0 18.246C0 7.37811 8.09045 4.99883 11.2085 4.99883C12.6136 4.99883 14.114 5.55489 15.4374 6.04696C16.3628 6.3902 17.3199 6.74453 17.8522 6.74453C18.1709 6.74453 18.9217 6.44311 19.5846 6.17864C20.9983 5.6115 22.7575 4.90662 24.8061 4.90662C24.8097 4.90662 24.8147 4.90662 24.8182 4.90662C26.3479 4.90662 30.9859 5.24491 33.7743 9.46462L34.4274 10.4537L33.4874 11.1685C32.1445 12.1896 29.6943 14.0522 29.6943 17.7417C29.6943 22.1115 32.4692 23.792 33.8024 24.6003C34.3909 24.957 35 25.3249 35 26.1295C35 26.6548 30.8394 37.9348 24.7975 37.9348C23.3191 37.9348 22.2741 37.487 21.3523 37.0921C20.4196 36.6923 19.615 36.3478 18.2855 36.3478C17.6116 36.3478 16.7595 36.6689 15.8573 37.0097C14.6244 37.4734 13.2289 38 11.6455 38H11.604Z" fill="#EBF005"/>
<path d="M25.4462 0C25.6036 5.71732 21.546 9.68373 17.4933 9.43497C16.8254 4.87235 21.5455 0 25.4462 0Z" fill="#EBF005"/>
</svg>
