<svg width="105" height="20" viewBox="0 0 105 20" fill="none" xmlns="http://www.w3.org/2000/svg">
<path fill-rule="evenodd" clip-rule="evenodd" d="M102.536 5.18583C102.952 5.18583 103.356 5.28972 103.749 5.49748C104.141 5.70525 104.45 6.00049 104.669 6.38321C104.888 6.76593 105 7.17053 105 7.58606C105 8.00159 104.893 8.39524 104.675 8.77796C104.456 9.16068 104.153 9.45593 103.765 9.66916C103.373 9.88239 102.968 9.98627 102.536 9.98627C102.104 9.98627 101.7 9.88239 101.307 9.66916C100.914 9.45593 100.611 9.16068 100.392 8.77796C100.174 8.39524 100.067 8.00159 100.067 7.58606C100.067 7.17053 100.179 6.76593 100.398 6.38321C100.617 6.00049 100.926 5.69978 101.318 5.49748C101.723 5.28972 102.127 5.18583 102.536 5.18583ZM102.536 5.57949C102.188 5.57949 101.852 5.66697 101.526 5.83646C101.201 6.01142 100.942 6.25746 100.757 6.57457C100.572 6.89715 100.482 7.23067 100.482 7.58059C100.482 7.92504 100.572 8.25856 100.757 8.57567C100.937 8.89278 101.195 9.13881 101.52 9.31924C101.846 9.49419 102.188 9.58715 102.542 9.58715C102.895 9.58715 103.238 9.49966 103.563 9.31924C103.889 9.14428 104.141 8.89278 104.321 8.57567C104.501 8.25856 104.59 7.92504 104.59 7.58059C104.59 7.23067 104.501 6.89715 104.315 6.57457C104.13 6.25199 103.878 6.00595 103.547 5.83646C103.215 5.66697 102.879 5.57949 102.536 5.57949ZM101.459 6.334H102.368C102.682 6.334 102.907 6.35588 103.047 6.40508C103.187 6.45429 103.294 6.5363 103.378 6.65658C103.462 6.77687 103.502 6.90262 103.502 7.03384C103.502 7.2252 103.434 7.38922 103.294 7.52591C103.154 7.66806 102.974 7.74462 102.744 7.76102C102.839 7.79929 102.912 7.84303 102.968 7.89771C103.075 8.00159 103.204 8.17107 103.361 8.41163L103.687 8.91465H103.165L102.929 8.51006C102.744 8.19295 102.598 7.99065 102.48 7.90864C102.402 7.8485 102.289 7.82116 102.138 7.82116H101.885V8.92012H101.459V6.334ZM102.407 7.4603C102.654 7.4603 102.823 7.42204 102.912 7.35096C103.002 7.27988 103.047 7.18146 103.047 7.06664C103.047 6.9901 103.025 6.92449 102.98 6.85888C102.935 6.79873 102.879 6.75499 102.8 6.72219C102.721 6.68938 102.581 6.67846 102.368 6.67846H101.88V7.4603H102.407Z" fill="#EBF005"/>
<path fill-rule="evenodd" clip-rule="evenodd" d="M55.1013 0.0273473V5.54947H49.3768V0.0273473H55.1013ZM30.1042 11.7004L43.3436 12.4986C43.8936 12.4986 44.3426 12.936 44.3426 13.4718C44.3426 14.0077 43.8936 14.4451 43.3436 14.4451H24.4751V7.26079C25.0588 9.48059 27.0512 11.2958 30.1042 11.7004ZM24.4751 20H43.7645C46.5763 20 48.9391 18.0262 49.4554 15.4292C49.9156 18.0153 52.2391 20 55.0172 20H67.3417C70.0974 20 72.404 18.0481 72.8923 15.4893V20H92.6531C95.8409 20 98.4506 17.4576 98.4506 14.3521V13.5539C98.4506 10.4483 95.8409 7.90595 92.6531 7.90595L91.5699 7.85675C85.4189 7.59431 79.2903 7.29359 73.1504 6.98195C73.6275 9.32749 75.6647 11.2848 78.8469 11.7004L92.2322 12.4986C92.7822 12.4986 93.2312 12.936 93.2312 13.4718C93.2312 14.0077 92.7822 14.4451 92.2322 14.4451H72.9877V6.96555L67.2631 6.67577V13.0727C67.2631 13.9694 66.5111 14.702 65.5907 14.702H56.7738C55.8534 14.702 55.1013 13.9694 55.1013 13.0727V6.06342L49.3768 5.77364V12.1159C48.7202 9.71569 46.4472 7.98798 43.7645 7.98798L18.5542 6.38054V19.9891H24.4751V20ZM48.4676 5.54947V0H30.1042C27.3935 0 25.1037 1.83707 24.4751 4.29196V0.0273473H13.5143L9.77658 5.54947H48.4676ZM16.1353 6.25478L7.08269 20H0L9.55207 5.883L16.1353 6.25478ZM98.4562 5.54947V0H78.8469C75.6928 0 73.1055 2.48769 73.0494 5.54947H98.4562ZM67.2631 5.54402V0.0218745H72.9877V5.54402H67.2631Z" fill="#EBF005"/>
</svg>
