<svg width="310" height="240" viewBox="0 0 310 240" fill="none" xmlns="http://www.w3.org/2000/svg">
<rect width="310" height="240" fill="#1D8C00"/>
<path d="M249.011 170.943C249.011 172.915 247.396 174.528 245.423 174.528H51.395C49.4216 174.528 47.8069 172.915 47.8069 170.943L46.1924 59.4408C46.1924 57.4693 48.5151 53.6204 52.7721 53.9096L242.398 49.003C244.874 48.939 247.268 49.892 249.021 51.6397C250.775 53.3875 251.734 55.7771 251.676 58.2508L249.011 170.943Z" fill="url(#paint0_linear)"/>
<path d="M245.469 167.504C245.469 169.371 243.941 170.899 242.074 170.899H56.0743C54.2074 170.899 52.6798 169.371 52.6798 167.504L51.1562 66.2814C51.3357 60.19 56.6761 58.0007 59.9134 58.1299L241.652 53.2542C243.392 53.2076 245.074 53.8778 246.306 55.1066C247.538 56.3355 248.215 58.0175 248.172 59.757L245.469 167.504Z" fill="url(#paint1_linear)"/>
<path d="M54.6896 119.206C54.5329 119.206 54.405 119.08 54.4027 118.923L54.2823 110.714C54.2799 110.555 54.4065 110.425 54.565 110.423C54.7231 110.418 54.8539 110.547 54.8562 110.706L54.9766 118.915C54.979 119.073 54.8524 119.203 54.6938 119.206C54.6924 119.206 54.691 119.206 54.6896 119.206Z" fill="#296614"/>
<path d="M54.394 99.0893C54.2374 99.0893 54.1095 98.9636 54.1071 98.8065L53.6455 67.3661C53.6549 65.2625 54.3032 63.5821 55.5721 62.3663C57.8504 60.1833 61.3976 60.2636 61.6353 60.2719L119.679 58.7143C119.839 58.7101 119.97 58.835 119.974 58.9936C119.978 59.152 119.853 59.2839 119.695 59.2881L61.6322 60.8458L61.6209 60.8454C61.4782 60.8398 58.1031 60.7356 55.9691 62.7805C54.8168 63.8847 54.2281 65.4264 54.2195 67.363L54.6812 98.798C54.6836 98.9565 54.557 99.0868 54.3985 99.0892C54.3968 99.0893 54.3954 99.0893 54.394 99.0893Z" fill="#296614"/>
<path d="M263.646 180.219H37.1048C36.4971 180.219 36 179.722 36 179.114V171.527C36 170.919 36.4971 170.422 37.1048 170.422H263.646C264.254 170.422 264.751 170.919 264.751 171.527V179.114C264.751 179.722 264.254 180.219 263.646 180.219Z" fill="url(#paint2_linear)"/>
<path d="M233.905 163.367H73.8303C72.3497 163.367 71.1494 162.166 71.1494 160.686V159.929C71.1494 158.448 72.3497 157.248 73.8303 157.248H233.905C235.386 157.248 236.586 158.448 236.586 159.929V160.686C236.586 162.166 235.386 163.367 233.905 163.367Z" fill="#77BA66"/>
<g opacity="0.68">
<g opacity="0.68">
<path opacity="0.68" d="M99.6553 74.0091C99.3395 74.5749 99.0485 75.1537 98.7769 75.7403C98.3062 76.7558 97.8933 77.7952 97.5152 78.8458C96.763 80.9487 96.1555 83.0976 95.6315 85.2637C95.1089 87.4306 94.673 89.6165 94.2981 91.8118C93.5509 96.2033 93.043 100.632 92.6975 105.07C92.5257 107.29 92.395 109.512 92.3036 111.737C92.2572 112.849 92.2216 113.961 92.1939 115.074L92.1602 116.744L92.1483 117.579L92.1439 117.996L92.1417 118.205C92.1402 118.274 92.157 118.344 92.1571 118.414C92.1913 122.868 92.3855 127.32 92.762 131.759C93.1412 136.196 93.6976 140.621 94.5083 145.005C94.9144 147.196 95.3853 149.376 95.9453 151.536C96.0341 151.878 96.1258 152.218 96.219 152.558H97.0648C96.9573 152.15 96.8522 151.742 96.7514 151.332C96.2247 149.188 95.7857 147.021 95.4108 144.843C94.6626 140.486 94.1663 136.085 93.8465 131.674C93.5291 127.261 93.3926 122.836 93.4159 118.412C93.3726 109.566 93.777 100.694 95.0953 91.9406C95.4279 89.754 95.8209 87.5766 96.3001 85.4189C96.7804 83.2619 97.3436 81.1226 98.0487 79.0318C98.4032 77.9876 98.7919 76.9549 99.2365 75.9482C99.5274 75.2884 99.8422 74.6393 100.189 74.0092H99.6553V74.0091Z" fill="white"/>
<path opacity="0.68" d="M116.408 85.139C115.803 82.9936 115.107 80.8714 114.271 78.8007C113.851 77.7664 113.397 76.7447 112.887 75.749C112.585 75.1584 112.264 74.5767 111.918 74.0091H111.385C111.768 74.6448 112.122 75.2997 112.449 75.9682C112.935 76.9567 113.366 77.9724 113.763 79.0013C114.555 81.0612 115.199 83.178 115.758 85.3152C116.315 87.4539 116.781 89.6164 117.18 91.7909C117.984 96.1397 118.519 100.537 118.869 104.946C119.048 107.151 119.172 109.36 119.258 111.57C119.345 113.78 119.383 115.992 119.379 118.204C119.378 120.417 119.339 122.629 119.255 124.84C119.174 127.051 119.058 129.261 118.891 131.467C118.566 135.878 118.075 140.279 117.33 144.637C116.96 146.816 116.529 148.984 116.009 151.13C115.893 151.607 115.773 152.083 115.648 152.558H116.495C116.607 152.15 116.717 151.742 116.822 151.333C117.379 149.173 117.846 146.991 118.251 144.8C119.835 136.024 120.48 127.106 120.476 118.204C120.459 109.299 119.716 100.38 117.969 91.6382C117.524 89.4553 117.012 87.2851 116.408 85.139Z" fill="white"/>
</g>
<g opacity="0.68">
<path opacity="0.68" d="M87.9188 74.0091C85.7455 75.4321 83.7248 77.0862 81.8821 78.9182C79.8419 80.9421 78.0096 83.174 76.3916 85.5503C73.1519 90.3059 70.7639 95.621 69.1781 101.151C68.3944 103.92 67.8026 106.744 67.4119 109.596C67.0244 112.448 66.8392 115.326 66.8252 118.204C66.8362 121.082 67.0185 123.96 67.4031 126.814C67.7907 129.666 68.3789 132.491 69.1596 135.262C70.7389 140.796 73.1207 146.117 76.357 150.881C76.742 151.449 77.1401 152.008 77.5495 152.558H78.7743C78.2323 151.825 77.7099 151.076 77.2122 150.312C75.6754 147.951 74.3519 145.454 73.2265 142.873C72.0973 140.293 71.1773 137.624 70.437 134.908C68.97 129.471 68.254 123.836 68.2548 118.204C68.2482 112.572 68.9582 106.937 70.4184 101.495C71.1556 98.7775 72.0723 96.106 73.1987 93.5229C74.3214 90.939 75.6426 88.4385 77.1776 86.0732C78.7122 83.7086 80.457 81.4763 82.4187 79.4483C84.3824 77.4248 86.5545 75.5942 88.9311 74.0697C88.9632 74.0493 88.9956 74.0295 89.0277 74.0092H87.9188V74.0091Z" fill="white"/>
<path opacity="0.68" d="M142.351 109.607C141.962 106.759 141.374 103.938 140.593 101.172C139.01 95.6488 136.63 90.3402 133.408 85.5814C131.796 83.205 129.97 80.9725 127.935 78.947C126.088 77.1039 124.06 75.4397 121.877 74.0091H120.867C120.888 74.0222 120.909 74.0347 120.929 74.0478C123.31 75.5694 125.487 77.3974 127.457 79.4194C129.424 81.4458 131.175 83.6776 132.715 86.042C135.801 90.7743 138.032 96.0331 139.504 101.474C140.971 106.921 141.683 112.565 141.678 118.204C141.678 123.844 140.959 129.485 139.485 134.929C138.007 140.366 135.77 145.619 132.681 150.343C132.188 151.096 131.671 151.834 131.136 152.558H132.232C132.648 151.997 133.052 151.428 133.443 150.85C136.661 146.083 139.035 140.768 140.611 135.241C141.389 132.473 141.974 129.651 142.36 126.802C142.744 123.953 142.925 121.078 142.935 118.204C142.922 115.33 142.737 112.456 142.351 109.607Z" fill="white"/>
</g>
<g opacity="0.68">
<path opacity="0.68" d="M60.8596 98.6315L63.6946 98.5844L66.5296 98.5487L72.1996 98.4788L83.5395 98.3923C91.0995 98.3344 98.6594 98.3275 106.219 98.3215L117.559 98.3388L123.229 98.3639L126.064 98.3764L128.899 98.3993L140.239 98.4938L145.909 98.5698L148.744 98.6081L151.579 98.6587C151.61 98.6593 151.634 98.6845 151.633 98.7152C151.633 98.7451 151.609 98.7691 151.579 98.7697L148.744 98.8203L145.909 98.8586L140.239 98.9346L128.899 99.0291L126.064 99.052L123.229 99.0645L117.559 99.0896L106.219 99.1069C98.6593 99.1008 91.0993 99.094 83.5395 99.0361L72.1996 98.9496L66.5296 98.8797L63.6946 98.844L60.8596 98.7969C60.814 98.7962 60.7776 98.7585 60.7783 98.7129C60.7791 98.6681 60.8153 98.6324 60.8596 98.6315Z" fill="white"/>
</g>
<g opacity="0.68">
<path opacity="0.68" d="M82.0664 79.4853C84.7501 79.4483 87.4338 79.4151 90.1174 79.3946C95.4848 79.345 100.852 79.3322 106.219 79.3279L114.27 79.3453C116.954 79.3652 119.638 79.3715 122.321 79.4025L126.347 79.4446L130.372 79.5001L134.398 79.5761L136.41 79.6144L138.423 79.665C138.454 79.6659 138.478 79.6912 138.477 79.722C138.477 79.7517 138.453 79.7753 138.423 79.7761L136.41 79.8268L134.398 79.8651L130.372 79.941L126.347 79.9965L122.321 80.0386C119.638 80.0697 116.954 80.076 114.27 80.0959L106.219 80.1132C100.852 80.109 95.4846 80.0962 90.1174 80.0466C87.4338 80.0261 84.7501 79.9927 82.0664 79.9559V79.4853Z" fill="white"/>
</g>
<g opacity="0.68">
<path opacity="0.68" d="M56.9193 117.625L60.0006 117.578L63.0819 117.542L69.2444 117.472L81.5695 117.386C89.7862 117.328 98.0029 117.321 106.22 117.315L118.545 117.332L124.707 117.357L127.789 117.37L130.87 117.393L143.195 117.487L149.358 117.563L152.439 117.601L155.52 117.652C155.551 117.652 155.575 117.678 155.575 117.708C155.574 117.738 155.55 117.762 155.52 117.763L152.439 117.814L149.358 117.852L143.195 117.928L130.87 118.022L127.789 118.045L124.707 118.058L118.545 118.083L106.22 118.1C98.0031 118.094 89.7863 118.087 81.5695 118.029L69.2444 117.943L63.0819 117.873L60.0006 117.837L56.9193 117.79C56.8737 117.789 56.8372 117.752 56.8379 117.706C56.8385 117.661 56.8749 117.625 56.9193 117.625Z" fill="white"/>
</g>
<g opacity="0.68">
<path opacity="0.68" d="M60.8596 136.618L63.6946 136.571L66.5296 136.535L72.1996 136.466L83.5395 136.379C91.0995 136.321 98.6594 136.314 106.219 136.308L117.559 136.326L123.229 136.351L126.064 136.363L128.899 136.386L140.239 136.481L145.909 136.556L148.744 136.595L151.579 136.645C151.61 136.646 151.634 136.671 151.633 136.702C151.633 136.732 151.609 136.756 151.579 136.756L148.744 136.807L145.909 136.845L140.239 136.921L128.899 137.016L126.064 137.039L123.229 137.051L117.559 137.076L106.219 137.093C98.6593 137.087 91.0993 137.081 83.5395 137.023L72.1996 136.936L66.5296 136.866L63.6946 136.831L60.8596 136.783C60.814 136.783 60.7776 136.745 60.7783 136.699C60.7791 136.655 60.8153 136.619 60.8596 136.618Z" fill="white"/>
</g>
</g>
<path d="M74.2437 66.5733C69.0905 66.5733 64.9121 70.7517 64.9121 75.9049C64.9121 81.058 69.0905 85.2349 74.2437 85.2349C79.3969 85.2349 83.5738 81.058 83.5738 75.9049C83.5738 70.7517 79.3967 66.5733 74.2437 66.5733ZM74.4427 70.8381C75.7803 70.8381 76.8648 71.7865 76.8648 73.1242C76.8648 74.4603 75.7803 75.9049 74.4427 75.9049C73.1065 75.9049 72.0219 74.4603 72.0219 73.1242C72.0219 71.7864 73.1065 70.8381 74.4427 70.8381ZM79.0294 79.0633L78.7119 80.0584C78.5216 80.6512 77.9713 81.0521 77.3494 81.0521H71.4381C70.7926 81.0521 70.2263 80.6204 70.0579 79.997L69.8121 79.094C69.616 78.3682 70.0126 77.6042 70.7254 77.367C73.2735 76.5196 75.7614 76.4055 78.1661 77.285C78.8846 77.5484 79.2622 78.3358 79.0294 79.0633Z" fill="#81CE6E"/>
<path d="M240.664 114.771H139.816C137.842 114.771 136.241 113.171 136.241 111.196V85.1149C136.241 83.1406 137.842 81.54 139.816 81.54H240.664C242.638 81.54 244.239 83.1406 244.239 85.1149V111.196C244.239 113.171 242.638 114.771 240.664 114.771Z" fill="#1D8C00"/>
<path d="M237.744 122.84L230.879 114.676C230.825 114.612 230.809 114.525 230.836 114.446C230.863 114.367 230.93 114.307 231.013 114.287L237.077 112.869C237.323 112.811 237.51 112.616 237.551 112.372C237.593 112.128 237.48 111.884 237.266 111.752L219.967 101.095C219.757 100.966 219.489 100.969 219.282 101.102C219.075 101.236 218.968 101.476 219.008 101.715L222.605 122.885C222.648 123.14 222.85 123.341 223.11 123.388C223.37 123.436 223.633 123.321 223.768 123.099L227.124 117.608C227.166 117.539 227.24 117.495 227.322 117.49C227.404 117.485 227.483 117.52 227.534 117.583L233.927 125.576C234.293 126.034 234.961 126.136 235.454 125.809L237.505 124.449C237.768 124.275 237.943 124.002 237.988 123.696C238.034 123.39 237.945 123.079 237.744 122.84Z" fill="white"/>
<path d="M205.94 139.343H134.375C132.933 139.343 131.765 138.175 131.765 136.733V124.351C131.765 122.909 132.933 121.741 134.375 121.741H205.94C207.381 121.741 208.55 122.909 208.55 124.351V136.733C208.55 138.174 207.381 139.343 205.94 139.343Z" fill="#77BA66"/>
<path d="M149.369 136.74C149.36 136.741 149.352 136.741 149.344 136.741L140.38 136.848C139.088 136.863 138.006 135.898 137.863 134.602L136.94 126.251C136.885 125.754 137.016 125.259 137.309 124.856C137.636 124.406 138.136 124.117 138.683 124.063C139.438 123.989 140.477 123.866 141.621 123.732C144.112 123.439 146.935 123.107 148.595 123.046C148.608 123.046 148.62 123.045 148.632 123.045C149.82 123.018 150.856 123.801 151.158 124.96C151.657 126.874 151.674 130.513 151.648 134.391C151.639 135.664 150.619 136.712 149.369 136.74ZM138.746 124.875C138.396 124.909 138.079 125.088 137.877 125.367C137.711 125.596 137.636 125.874 137.666 126.149L138.589 134.501C138.687 135.386 139.454 136.045 140.374 136.034L149.338 135.927C149.344 135.927 149.35 135.927 149.356 135.926C150.212 135.907 150.911 135.22 150.917 134.387C150.943 130.572 150.927 126.998 150.455 125.189C150.246 124.388 149.458 123.807 148.618 123.86C146.984 123.919 144.052 124.265 141.696 124.541C140.548 124.677 139.504 124.799 138.746 124.875Z" fill="white"/>
<path d="M139.722 125.692C141.603 125.507 145.687 124.952 147.628 124.881C148.45 124.851 149.18 125.387 149.386 126.177C149.785 127.71 149.785 130.783 149.766 133.621C149.76 134.47 149.07 135.164 148.214 135.174L141.051 135.26C140.17 135.271 139.428 134.619 139.332 133.75L138.595 127.076C138.518 126.386 139.025 125.761 139.722 125.692Z" fill="#92C885"/>
<path d="M157.226 127.878C156.75 127.876 156.456 128.252 156.574 128.714L157.408 131.993C157.526 132.455 158.012 132.824 158.488 132.813L203.354 131.797C203.83 131.786 204.206 131.388 204.189 130.912L204.117 128.924C204.1 128.448 203.696 128.057 203.22 128.055L157.226 127.878Z" fill="#92C885"/>
<path d="M140.124 126.996C140.783 126.547 141.643 126.787 142.031 127.528L143.856 131.015C144.038 131.364 144.501 131.331 144.644 130.959L148.853 119.996C149.063 119.449 149.791 119.615 149.792 120.21C149.801 123.534 149.111 129.868 144.426 135.264C144.426 135.264 141.779 134.186 139.578 129.059C139.26 128.319 139.495 127.426 140.124 126.996Z" fill="#1D8C00"/>
<path d="M148.779 91.8633C148.779 91.6387 148.691 91.458 148.516 91.3213C148.343 91.1846 148.109 91.1162 147.812 91.1162C147.536 91.1162 147.313 91.1829 147.144 91.3164C146.978 91.4466 146.895 91.6191 146.895 91.834H145.186C145.186 91.4434 145.296 91.0934 145.518 90.7842C145.742 90.4749 146.058 90.234 146.465 90.0615C146.872 89.8857 147.321 89.7979 147.812 89.7979C148.659 89.7979 149.316 89.9753 149.785 90.3301C150.257 90.6849 150.493 91.1813 150.493 91.8193C150.493 92.1449 150.397 92.4427 150.205 92.7129C150.016 92.9798 149.754 93.1914 149.419 93.3477C149.803 93.4844 150.096 93.6927 150.298 93.9727C150.503 94.2493 150.605 94.5944 150.605 95.0078C150.605 95.6458 150.352 96.1536 149.844 96.5312C149.336 96.9056 148.659 97.0928 147.812 97.0928C147.028 97.0928 146.377 96.9089 145.859 96.541C145.342 96.1699 145.083 95.6654 145.083 95.0273H146.802C146.802 95.2389 146.896 95.418 147.085 95.5645C147.274 95.7077 147.516 95.7793 147.812 95.7793C148.132 95.7793 148.39 95.7044 148.589 95.5547C148.787 95.4049 148.887 95.2096 148.887 94.9688C148.887 94.6172 148.802 94.3698 148.633 94.2266C148.464 94.0801 148.216 94.0068 147.891 94.0068H146.978V92.7373H147.949C148.503 92.721 148.779 92.4297 148.779 91.8633ZM155.654 95.6719H153.306L152.896 97H151.064L153.672 89.8906H155.283L157.91 97H156.069L155.654 95.6719ZM153.716 94.3486H155.244L154.478 91.8828L153.716 94.3486ZM164.404 97H162.69V91.2139H160.137V97H158.423V89.8906H164.404V97ZM168.232 92.9766V92.9814L169.409 89.8906H171.216L168.823 95.5303C168.566 96.0999 168.276 96.502 167.954 96.7363C167.635 96.9674 167.261 97.0895 166.831 97.1025H166.484L166.221 97.0928L166.191 95.7646C166.23 95.7777 166.344 95.7842 166.533 95.7842C166.794 95.7842 166.989 95.7402 167.119 95.6523C167.253 95.5612 167.36 95.387 167.441 95.1299L167.524 94.8955L164.956 89.8906H166.777L168.232 92.9766ZM177.437 94.5928C177.414 95.0876 177.28 95.5254 177.036 95.9062C176.792 96.2839 176.449 96.5768 176.006 96.7852C175.566 96.9935 175.063 97.0977 174.497 97.0977C173.563 97.0977 172.827 96.7933 172.29 96.1846C171.753 95.5758 171.484 94.7165 171.484 93.6064V93.2549C171.484 92.5583 171.605 91.9495 171.846 91.4287C172.09 90.9046 172.44 90.501 172.896 90.2178C173.351 89.9313 173.879 89.7881 174.478 89.7881C175.34 89.7881 176.034 90.016 176.558 90.4717C177.082 90.9242 177.38 91.5492 177.451 92.3467H175.742C175.729 91.9137 175.62 91.6029 175.415 91.4141C175.21 91.2253 174.897 91.1309 174.478 91.1309C174.051 91.1309 173.739 91.2904 173.54 91.6094C173.341 91.9284 173.237 92.4378 173.228 93.1377V93.6406C173.228 94.3991 173.322 94.9411 173.511 95.2666C173.703 95.5921 174.032 95.7549 174.497 95.7549C174.891 95.7549 175.192 95.6621 175.4 95.4766C175.609 95.291 175.719 94.9964 175.732 94.5928H177.437ZM183.682 91.2139H181.548V97H179.834V91.2139H177.739V89.8906H183.682V91.2139ZM188.579 89.8906H190.293V97H188.579V92.5176L186.025 97H184.312V89.8906H186.025V94.3779L188.579 89.8906ZM196.777 91.2139H194.644V97H192.93V91.2139H190.835V89.8906H196.777V91.2139ZM199.307 92.3369H200.19C200.754 92.3369 201.252 92.4329 201.685 92.625C202.118 92.8171 202.45 93.0889 202.681 93.4404C202.915 93.7887 203.032 94.1891 203.032 94.6416C203.032 95.3415 202.772 95.9095 202.251 96.3457C201.733 96.7819 201.037 97 200.161 97H197.588V89.8906H199.307V92.3369ZM199.307 93.6553V95.6816H200.186C200.534 95.6816 200.809 95.584 201.011 95.3887C201.216 95.1934 201.318 94.9411 201.318 94.6318C201.318 94.3389 201.217 94.1029 201.016 93.9238C200.814 93.7448 200.534 93.6553 200.176 93.6553H199.307ZM149.355 107.672H147.007L146.597 109H144.766L147.373 101.891H148.984L151.611 109H149.771L149.355 107.672ZM147.417 106.349H148.945L148.179 103.883L147.417 106.349ZM154.893 104.977V104.981L156.069 101.891H157.876L155.483 107.53C155.226 108.1 154.937 108.502 154.614 108.736C154.295 108.967 153.921 109.09 153.491 109.103H153.145L152.881 109.093L152.852 107.765C152.891 107.778 153.005 107.784 153.193 107.784C153.454 107.784 153.649 107.74 153.779 107.652C153.913 107.561 154.02 107.387 154.102 107.13L154.185 106.896L151.616 101.891H153.438L154.893 104.977ZM160.977 106.188H160.166V109H158.452V101.891H160.166V104.64H160.825L162.192 101.891H164.268L162.314 105.172L164.512 109H162.485L160.977 106.188ZM164.819 101.891H166.523V107.682H169.077V101.891H170.796V107.696H171.885L171.787 110.714H170.171V109H164.819V101.891ZM176.821 101.891H178.535V109H176.821V104.518L174.268 109H172.554V101.891H174.268V106.378L176.821 101.891ZM185.605 105.592C185.605 106.285 185.477 106.899 185.22 107.433C184.963 107.966 184.596 108.378 184.121 108.668C183.649 108.954 183.11 109.098 182.505 109.098C181.899 109.098 181.362 108.959 180.894 108.683C180.425 108.403 180.059 108.004 179.795 107.486C179.535 106.969 179.398 106.375 179.385 105.704V105.304C179.385 104.607 179.512 103.993 179.766 103.463C180.023 102.929 180.389 102.517 180.864 102.228C181.343 101.938 181.886 101.793 182.495 101.793C183.097 101.793 183.634 101.936 184.106 102.223C184.578 102.509 184.945 102.918 185.205 103.448C185.469 103.976 185.602 104.581 185.605 105.265V105.592ZM183.862 105.294C183.862 104.588 183.743 104.052 183.506 103.688C183.271 103.32 182.935 103.136 182.495 103.136C181.636 103.136 181.182 103.78 181.133 105.069L181.128 105.592C181.128 106.288 181.243 106.824 181.475 107.198C181.706 107.573 182.049 107.76 182.505 107.76C182.938 107.76 183.271 107.576 183.506 107.208C183.74 106.84 183.859 106.311 183.862 105.621V105.294ZM192.432 109H190.728V106.031H188.203V109H186.489V101.891H188.203V104.713H190.728V101.891H192.432V109Z" fill="white"/>
<defs>
<linearGradient id="paint0_linear" x1="130.687" y1="165.956" x2="176.512" y2="28.4803" gradientUnits="userSpaceOnUse">
<stop/>
<stop offset="1" stop-color="#010400"/>
</linearGradient>
<linearGradient id="paint1_linear" x1="273.85" y1="16.8437" x2="115.458" y2="141.673" gradientUnits="userSpaceOnUse">
<stop stop-color="#04170C" stop-opacity="0.9"/>
<stop offset="1" stop-color="#479517"/>
</linearGradient>
<linearGradient id="paint2_linear" x1="171.651" y1="78.2518" x2="162.23" y2="121.235" gradientUnits="userSpaceOnUse">
<stop/>
<stop offset="1"/>
</linearGradient>
</defs>
</svg>
