<svg width="86" height="49" viewBox="0 0 86 49" fill="none" xmlns="http://www.w3.org/2000/svg">
<path d="M22.0121 14.5781C21.6345 12.5425 20.6859 10.5877 19.2016 9.12747C17.7232 7.63365 15.741 6.69282 13.6821 6.32818C11.4074 5.92828 9.03555 6.11834 6.84771 6.85708C6.84599 4.57206 6.84771 2.28619 6.84771 0.0011699C4.56528 0.000309901 2.28284 0.000309901 0.0012648 0.0011699C0.0012648 6.0074 0.000404804 12.0153 0.0021248 18.0216C0.0399647 18.9357 0.171544 19.8491 0.411484 20.7331C0.949843 22.7791 2.12546 24.6625 3.78526 25.9826C5.45709 27.3285 7.55635 28.0818 9.68312 28.2805C11.4642 28.443 13.2857 28.2899 14.9902 27.7267C16.8538 27.1238 18.5712 26.0213 19.8122 24.4965C20.9353 23.1377 21.65 21.4693 21.9811 19.745C22.301 18.0448 22.3346 16.2818 22.0121 14.5781ZM15.3892 17.3998C15.3755 18.8713 15.1123 20.3848 14.3564 21.6671C13.8369 22.5495 13.0001 23.2882 11.9819 23.5109C11.0118 23.7122 9.948 23.5625 9.12069 22.9975C8.24521 22.4144 7.67331 21.4745 7.33619 20.4966C6.83825 19.0888 6.77805 17.5701 6.88469 16.0935C7.01971 14.7458 7.36887 13.3621 8.20479 12.269C8.78873 11.4916 9.69087 10.9601 10.6601 10.8526C11.4951 10.746 12.3775 10.8999 13.0853 11.3678C13.8576 11.8691 14.3933 12.6646 14.7365 13.5057C15.2413 14.7347 15.4116 16.0771 15.3892 17.3998Z" fill="#EBF005"/>
<path d="M44.5963 0.00118158C46.8005 -0.00139841 49.0038 0.00118158 51.2071 0.000321587C51.214 5.09495 51.2002 10.1913 51.2149 15.2859C51.3361 15.2077 51.4075 15.0787 51.484 14.9608C53.3201 12.1736 55.1691 9.39408 57.0001 6.60339C59.8673 6.59221 62.7345 6.59823 65.6018 6.60081C62.8162 9.92986 60.0221 13.252 57.2348 16.5794C57.1755 16.637 57.1359 16.7238 57.2168 16.7832C60.3154 20.4648 63.4354 24.1301 66.5306 27.8152C63.7253 27.8204 60.9208 27.8161 58.1146 27.8178C58.0329 27.8281 57.9701 27.7989 57.9263 27.7327C55.6877 24.4827 53.462 21.2242 51.2131 17.9803C51.1968 21.2535 51.2217 24.5266 51.2002 27.7989C50.2757 27.841 49.3392 27.8049 48.4095 27.8178C47.1393 27.8178 45.8691 27.8178 44.598 27.8178C44.5937 18.5462 44.5972 9.27454 44.5963 0.00118158Z" fill="#EBF005"/>
<path d="M43.2083 19.3546C43.6374 16.7032 43.4586 13.8987 42.3956 11.4116C41.9312 10.3461 41.2888 9.34934 40.4529 8.53836C39.5705 7.65772 38.4671 7.01358 37.2881 6.62314C35.8605 6.16132 34.3374 6.0435 32.8488 6.1725C31.0462 6.31526 29.2617 6.8906 27.7765 7.93292C26.176 9.03716 24.9626 10.6462 24.2075 12.4281C23.5264 14.0389 23.1807 15.7924 23.2013 17.5408C23.1953 19.3141 23.5109 21.1081 24.2694 22.7189C24.8129 23.8704 25.5912 24.9153 26.563 25.7409C27.4497 26.5046 28.4868 27.0834 29.5842 27.4841C31.1055 28.05 32.7318 28.2616 34.3469 28.2968C37.0283 28.2968 39.752 27.9915 42.2589 26.9922C41.9759 25.4984 41.6775 24.0071 41.3903 22.5142C39.2532 23.1876 36.9982 23.461 34.7614 23.3561C33.3372 23.2392 31.8555 22.859 30.7658 21.8847C30.0323 21.2483 29.5885 20.3195 29.5042 19.3563C34.0717 19.3485 38.64 19.3537 43.2083 19.3546ZM29.4724 14.8172C29.5997 13.5564 30.1114 12.2871 31.0694 11.4297C31.7686 10.7959 32.7284 10.4888 33.664 10.5275C34.61 10.5284 35.581 10.887 36.2131 11.6094C36.9828 12.4806 37.282 13.6777 37.2915 14.8172C34.6848 14.8172 32.0791 14.8181 29.4724 14.8172Z" fill="#EBF005"/>
<path d="M85.9279 15.6127C85.768 13.9779 85.2683 12.368 84.4135 10.961C83.2731 9.0604 81.4516 7.60012 79.3713 6.84934C77.6857 6.22412 75.8608 6.04095 74.0746 6.1579C73.3479 6.21896 72.6229 6.31012 71.9134 6.48126C70.0051 6.92416 68.1844 7.85038 66.8076 9.2582C65.2802 10.7735 64.3377 12.8126 63.9739 14.9187C63.5301 17.4824 63.7408 20.2163 64.8657 22.5865C65.6225 24.1774 66.8171 25.5586 68.2928 26.5235C69.8322 27.5409 71.6416 28.1145 73.4717 28.2857C75.2373 28.4405 77.0398 28.2925 78.7272 27.7378C80.9752 27.0275 83.0014 25.5595 84.2638 23.5557C85.7542 21.2165 86.1919 18.3363 85.9279 15.6127ZM79.0927 18.5728C78.9422 19.7983 78.6059 21.0393 77.8706 22.0498C77.334 22.7989 76.5299 23.3768 75.614 23.5393C74.7892 23.6692 73.9103 23.5746 73.1724 23.1661C72.3847 22.7395 71.7939 22.0154 71.406 21.2199C70.9425 20.2653 70.724 19.2101 70.6389 18.1566C70.5649 16.8786 70.6191 15.5766 70.9751 14.3391C71.2443 13.3905 71.6872 12.4591 72.4191 11.7797C72.9729 11.256 73.703 10.9318 74.4607 10.8475C75.313 10.7434 76.2151 10.9146 76.9272 11.4108C77.7356 11.962 78.2662 12.8341 78.5999 13.7379C79.1572 15.279 79.2612 16.9535 79.0927 18.5728Z" fill="#EBF005"/>
<path d="M19.6186 39.4571C40.8769 36.466 62.1369 33.4904 83.3943 30.4933C83.4107 32.7207 83.4046 34.9481 83.3969 37.1738C77.3322 38.0097 71.2718 38.874 65.2088 39.7194C43.4741 42.7663 21.7393 45.8245 0.00287984 48.8654C0.00201984 46.6441 -0.00486015 44.4235 0.00631983 42.2022C6.54575 41.3035 13.0809 40.3687 19.6186 39.4571Z" fill="#EBF005"/>
</svg>
