<svg width="50" height="50" viewBox="0 0 50 50" fill="none" xmlns="http://www.w3.org/2000/svg">
<rect width="50" height="50" rx="10" fill="#EBF005"/>
<path d="M36.6153 22.3178C37.2153 21.4071 37.1045 20.2222 36.3458 19.4362C36.0115 19.0898 35.8717 18.6031 35.9719 18.1343C36.1994 17.0703 35.6641 16.005 34.6701 15.5437C34.232 15.3403 33.9242 14.9365 33.8467 14.4634C33.6709 13.3899 32.7833 12.5881 31.6883 12.5137C31.2057 12.4809 30.7715 12.2145 30.5267 11.8011C29.9713 10.8631 28.8517 10.4332 27.8032 10.7557C27.3412 10.8978 26.8393 10.8048 26.4603 10.507C25.6004 9.83102 24.3994 9.83102 23.5396 10.507C23.1607 10.8049 22.6586 10.8978 22.1967 10.7557C21.1485 10.4331 20.0285 10.863 19.4732 11.8011C19.2285 12.2145 18.7943 12.4809 18.3117 12.5137C17.2166 12.5881 16.3291 13.3899 16.1532 14.4634C16.0757 14.9365 15.7679 15.3403 15.3299 15.5437C14.336 16.005 13.8006 17.0703 14.028 18.1343C14.1282 18.6031 13.9885 19.0899 13.6542 19.4363C12.8956 20.2222 12.7847 21.4072 13.3847 22.318C13.6491 22.7193 13.6962 23.2232 13.5107 23.6658C13.0898 24.6703 13.4186 25.8149 14.31 26.4493C14.7029 26.729 14.9305 27.182 14.9189 27.6611C14.8927 28.7483 15.6165 29.698 16.679 29.9706C16.9927 30.051 17.2652 30.2308 17.4604 30.4761L15.0167 36.3216C14.6743 37.1408 15.4494 37.9844 16.3041 37.7244L18.9794 36.9109C19.0576 36.8873 19.1419 36.9219 19.1802 36.9933L20.4914 39.443C20.9108 40.2266 22.0607 40.1713 22.4028 39.3531L24.9498 33.2604C24.9832 33.2593 25.0166 33.2593 25.05 33.2604L27.597 39.3531C27.9397 40.1726 29.0895 40.2255 29.5084 39.4431L30.8196 36.9933C30.8578 36.9218 30.9422 36.8872 31.0204 36.9109L33.6957 37.7244C34.5508 37.9845 35.3253 37.1404 34.9831 36.3217L32.5393 30.4762C32.7346 30.2309 33.0071 30.0511 33.3207 29.9706C34.3832 29.6981 35.107 28.7484 35.0809 27.6612C35.0693 27.182 35.2969 26.7291 35.6898 26.4495C36.5813 25.8149 36.9099 24.6703 36.489 23.6659C36.3038 23.2231 36.351 22.7191 36.6153 22.3178ZM21.5834 39.0166C21.5278 39.1497 21.3429 39.1579 21.2751 39.0311L19.9639 36.5815C19.7267 36.1383 19.2033 35.9236 18.7194 36.0707L16.044 36.8842C15.9053 36.9263 15.7808 36.7908 15.8364 36.6579L18.0044 31.4716C18.4935 32.1355 19.3112 32.5055 20.1721 32.4059C20.6525 32.3504 21.1287 32.5331 21.446 32.8949C21.9062 33.4199 22.5547 33.6985 23.2164 33.6985C23.4257 33.6985 23.6362 33.6695 23.8426 33.6127L21.5834 39.0166ZM33.9561 36.8842L31.2807 36.0706C30.7968 35.9236 30.2733 36.1383 30.0362 36.5814L28.725 39.0311C28.6573 39.1577 28.4722 39.1495 28.4166 39.0165L26.1579 33.6137C27.0165 33.8498 27.9484 33.5856 28.5541 32.8947C28.8713 32.5329 29.3474 32.3501 29.828 32.4058C30.6897 32.5056 31.5069 32.1354 31.9957 31.4715L34.1639 36.6576C34.2196 36.7911 34.0944 36.926 33.9561 36.8842ZM35.8726 21.8375C35.4479 22.4822 35.3722 23.2916 35.6701 24.0027C35.9321 24.628 35.7276 25.3404 35.1726 25.7355C34.5415 26.1847 34.1758 26.9123 34.1944 27.682C34.2107 28.3588 33.7601 28.9501 33.0986 29.1197C32.4799 29.2784 31.9603 29.6774 31.6487 30.217C31.6479 30.2186 31.647 30.2201 31.6462 30.2216C31.5801 30.3367 31.5229 30.4577 31.4768 30.5846C31.2453 31.2215 30.61 31.6119 29.931 31.533C29.1593 31.4436 28.3942 31.7373 27.8846 32.3185C27.4366 32.8296 26.7016 32.9657 26.0973 32.6496C25.8918 32.542 25.6742 32.4674 25.452 32.4242C25.4502 32.4238 25.4483 32.4234 25.4465 32.423C25.1513 32.3664 24.8479 32.3664 24.5527 32.4232C24.5517 32.4235 24.5507 32.4237 24.5496 32.4239C24.3268 32.4671 24.1088 32.5418 23.9028 32.6496C23.2986 32.9658 22.5637 32.8296 22.1156 32.3185C21.6663 31.8061 21.0186 31.5173 20.3426 31.5173C20.2519 31.5173 20.1605 31.5225 20.0692 31.5331C19.3908 31.6118 18.7548 31.2217 18.5233 30.5846C18.4772 30.4579 18.4201 30.337 18.3541 30.2221C18.3531 30.2202 18.3521 30.2184 18.3511 30.2166C18.0394 29.6772 17.52 29.2784 16.9015 29.1197C16.24 28.95 15.7895 28.3588 15.8058 27.682C15.8244 26.9123 15.4587 26.1847 14.8276 25.7355C14.2727 25.3405 14.068 24.628 14.33 24.0026C14.6279 23.2915 14.5522 22.4821 14.1275 21.8374C13.7541 21.2705 13.8231 20.5328 14.2954 20.0436C14.8324 19.4872 15.0569 18.7053 14.8959 17.9521C14.7544 17.2898 15.0877 16.6266 15.7064 16.3394C16.41 16.0128 16.9044 15.3641 17.0289 14.6042C17.1384 13.9358 17.6909 13.4367 18.3726 13.3905C19.1478 13.3378 19.8453 12.9099 20.2385 12.2457C20.5842 11.6618 21.2816 11.3942 21.9339 11.595C22.676 11.8233 23.4824 11.674 24.0911 11.1954C24.6263 10.7746 25.374 10.7746 25.9093 11.1954C26.518 11.6739 27.3243 11.8234 28.0665 11.595C28.7191 11.3942 29.4163 11.6618 29.7619 12.2457C30.155 12.9098 30.8526 13.3377 31.6278 13.3905C32.3094 13.4368 32.862 13.9359 32.9715 14.6042C33.096 15.3641 33.5904 16.0128 34.294 16.3395C34.9128 16.6266 35.246 17.2898 35.1045 17.9521C34.9435 18.7053 35.168 19.4872 35.705 20.0436C36.1771 20.5328 36.2461 21.2705 35.8726 21.8375Z" fill="black"/>
<path d="M16.6 21.2575C16.8428 21.2871 17.0644 21.1159 17.0943 20.875C17.584 16.9308 20.9828 13.9565 25 13.9565C29.0192 13.9565 32.4181 16.9324 32.9062 20.8787C32.9338 21.1014 33.125 21.2647 33.3458 21.2647C33.3639 21.2647 33.382 21.2636 33.4004 21.2614C33.6435 21.2319 33.8164 21.0127 33.7866 20.7718C33.244 16.3854 29.4666 13.0777 25 13.0777C20.5355 13.0777 16.7583 16.3837 16.2139 20.7677C16.1841 21.0086 16.3569 21.2278 16.6 21.2575Z" fill="black"/>
<path d="M33.4004 22.437C33.158 22.4077 32.9361 22.5789 32.9063 22.8198C32.4183 26.7663 29.0194 29.7423 25 29.7423C20.9825 29.7423 17.5837 26.7677 17.0942 22.8232C17.0643 22.5824 16.8431 22.4112 16.5998 22.4407C16.3568 22.4703 16.1839 22.6896 16.2138 22.9305C16.758 27.3149 20.5352 30.6211 25 30.6211C29.4668 30.6211 33.2442 27.3132 33.7866 22.9266C33.8164 22.6858 33.6435 22.4666 33.4004 22.437Z" fill="black"/>
<path d="M31.2623 20.0359C31.1496 19.6922 30.8413 19.4617 30.4767 19.4487L26.9995 19.3252L25.8064 16.0866C25.6813 15.7471 25.3648 15.5277 25.0001 15.5277C24.6353 15.5277 24.3188 15.7471 24.1938 16.0866L23.0006 19.3252L19.5234 19.4487C19.1589 19.4617 18.8505 19.6922 18.7378 20.0359C18.6251 20.3796 18.7378 20.7457 19.025 20.9685L21.7648 23.0936L20.809 26.4086C20.7087 26.7561 20.8347 27.1179 21.1298 27.3304C21.4246 27.5426 21.8108 27.5499 22.1136 27.3479L25 25.4227L27.8865 27.3477C28.1889 27.5495 28.5751 27.5427 28.8703 27.3303C29.1654 27.1179 29.2913 26.7561 29.1911 26.4085L28.2352 23.0936L30.975 20.9684C31.2623 20.7457 31.3751 20.3796 31.2623 20.0359ZM27.6734 22.4133C27.397 22.6277 27.2807 22.9824 27.3772 23.3167L28.3168 26.5754L25.4794 24.683C25.3338 24.5859 25.1669 24.5373 25 24.5373C24.8331 24.5373 24.6663 24.5859 24.5207 24.683L21.6832 26.5754L22.6229 23.3167C22.7193 22.9823 22.603 22.6277 22.3266 22.4133L19.6333 20.3242L23.0516 20.2027C23.4024 20.1902 23.7068 19.971 23.8271 19.6443L25.0001 16.4607L26.173 19.6443C26.2934 19.971 26.5978 20.1902 26.9486 20.2026L30.3667 20.3241L27.6734 22.4133Z" fill="black"/>
</svg>
