<svg width="50" height="50" viewBox="0 0 50 50" fill="none" xmlns="http://www.w3.org/2000/svg">
<path d="M25 0C11.1942 0 0 11.1942 0 25C0 38.8058 11.1942 50 25 50C38.8058 50 50 38.8058 50 25C50 11.1942 38.8058 0 25 0ZM34.3192 35.3571C32.0536 37.4442 28.9621 38.6719 25.2734 38.6719C19.933 38.6719 15.3125 35.6083 13.0636 31.144C12.1373 29.2969 11.6071 27.2098 11.6071 25C11.6071 22.7902 12.1373 20.7031 13.0636 18.856C15.3125 14.3862 19.933 11.3225 25.2734 11.3225C28.9565 11.3225 32.048 12.6786 34.4196 14.8828L30.5022 18.8058C29.0848 17.4498 27.2824 16.7634 25.279 16.7634C21.7188 16.7634 18.7054 19.1685 17.6283 22.3996C17.3549 23.2199 17.1987 24.096 17.1987 25C17.1987 25.904 17.3549 26.7801 17.6283 27.6004C18.7054 30.8315 21.7188 33.2366 25.2734 33.2366C27.115 33.2366 28.6775 32.7511 29.8996 31.9308C31.3504 30.9598 32.3103 29.5145 32.6283 27.8013H25.2734V22.5112H38.1473C38.3092 23.4096 38.3929 24.3415 38.3929 25.3069C38.3929 29.4754 36.9029 32.9743 34.3192 35.3571Z" fill="#34971A"/>
</svg>
