<svg width="148" height="37" viewBox="0 0 148 37" fill="none" xmlns="http://www.w3.org/2000/svg">
<path fill-rule="evenodd" clip-rule="evenodd" d="M29.5477 0.200849C27.6253 -0.395806 26.233 1.77311 27.3722 3.03898C32.4352 5.77231 35.8528 11.1422 35.8528 17.262C35.8528 26.1876 28.6142 33.4684 19.6985 33.4684C19.651 33.4684 19.5956 33.4684 19.5482 33.4684C10.7115 33.3878 3.54413 26.1392 3.54413 17.262C3.54413 11.247 6.85883 5.95776 11.7716 3.16799C12.8079 1.70054 11.6213 -0.0571688 9.97581 0.120215C4.02671 3.53082 0 9.92471 0 17.2539C0 28.0662 8.75749 36.9193 19.5482 36.9999C19.5956 36.9999 19.651 36.9999 19.6985 36.9999C30.5366 36.9999 39.397 28.1227 39.397 17.2539C39.397 9.98115 35.4177 3.61146 29.5477 0.200849Z" fill="#EBF005"/>
<path fill-rule="evenodd" clip-rule="evenodd" d="M47.8066 27.0907H51.6276V9.02979H47.8066V27.0907Z" fill="#EBF005"/>
<path fill-rule="evenodd" clip-rule="evenodd" d="M19.5406 7.39406C19.5643 7.39406 19.5643 7.41824 19.588 7.41824C21.0595 7.41824 22.2462 6.17654 22.2462 4.70909C22.2462 3.20939 21.0595 1.99997 19.588 1.99997C19.5643 1.99997 19.5643 1.99997 19.5406 1.99997C18.1008 2.02416 16.9299 3.24165 16.9299 4.70909C16.9378 6.18461 18.1008 7.36987 19.5406 7.39406Z" fill="#EBF005"/>
<path fill-rule="evenodd" clip-rule="evenodd" d="M64.1113 9.02979H55.4487V27.0988H59.2698V12.5694H63.6762C65.9309 12.5694 67.4735 13.7063 67.4261 16.367V27.1068H71.2471V15.2463C71.255 11.2955 68.0115 9.02979 64.1113 9.02979Z" fill="#EBF005"/>
<path fill-rule="evenodd" clip-rule="evenodd" d="M19.5403 6.62698C18.3774 6.62698 17.436 7.57841 17.436 8.77172V27.3244C17.436 28.4855 18.3695 29.4369 19.5403 29.4369C20.6795 29.4369 21.6447 28.4855 21.6447 27.3244V8.77172C21.6447 7.57841 20.6875 6.62698 19.5403 6.62698Z" fill="#EBF005"/>
<path fill-rule="evenodd" clip-rule="evenodd" d="M101.285 8.5621C96.673 8.77174 93.7142 11.8921 93.2554 17.8506C92.9548 22.39 95.3597 27.139 101.285 27.5502C101.412 27.5744 101.538 27.5744 101.689 27.5744C104.37 27.5986 106.198 27.3648 107.97 26.6956L108.017 23.285C105.692 24.2364 103.255 24.5509 101.285 24.1638C98.9276 23.7284 97.2584 22.2529 97.3375 19.7212H108.603C110.066 13.0289 106.601 8.58629 101.285 8.5621ZM105.51 16.5363H97.0764C97.0764 16.5121 97.0764 16.4879 97.0764 16.4879C97.0764 13.8272 98.9751 11.6905 101.277 11.6905C103.603 11.6905 105.51 13.8352 105.51 16.4879C105.51 16.4879 105.51 16.5121 105.51 16.5363Z" fill="#EBF005"/>
<path fill-rule="evenodd" clip-rule="evenodd" d="M128.602 27.0907H132.431V9.02979H128.602V27.0907Z" fill="#EBF005"/>
<path fill-rule="evenodd" clip-rule="evenodd" d="M119.338 16.6411C112.93 15.5285 114.552 10.0054 124.298 12.5855V9.38451C121.593 8.50566 117.234 8.27183 114.908 9.38451C110.098 11.7873 110.454 19.2938 118.428 20.1243C123.618 20.7693 122.787 26.8568 111.846 23.2769V26.8165C115.288 27.8002 119.591 28.2114 122.582 26.8165C124.559 25.5748 125.319 23.8978 125.343 22.2449C125.414 19.3503 123.539 17.2862 119.338 16.6411Z" fill="#EBF005"/>
<path fill-rule="evenodd" clip-rule="evenodd" d="M135.366 9.02979V12.5855H139.773V27.0907H143.594V12.5855H148V9.02979H135.366Z" fill="#EBF005"/>
<path fill-rule="evenodd" clip-rule="evenodd" d="M82.8998 9.15887C82.3697 9.07824 81.7843 9.05405 81.1752 9.05405H75.1707V27.123H81.2463C81.8317 27.123 82.3855 27.0988 82.8918 27.0182C89.1969 26.3248 90.613 21.5999 90.5893 18.3748C90.5734 13.3919 88.0419 9.77971 82.8998 9.15887ZM82.8998 23.535C82.346 23.6641 81.7131 23.7447 80.9774 23.7447H78.9522V12.4163H80.9299C81.6656 12.4163 82.3223 12.4969 82.9077 12.6501C85.5183 13.3193 86.8078 15.4399 86.8315 18.278C86.8473 20.1244 86.0879 22.7852 82.8998 23.535Z" fill="#EBF005"/>
</svg>
