<svg width="103" height="49" viewBox="0 0 103 49" fill="none" xmlns="http://www.w3.org/2000/svg">
<path fill-rule="evenodd" clip-rule="evenodd" d="M24.5 49C38.0318 49 49 38.0318 49 24.5C49 10.9682 38.0318 0 24.5 0C10.9682 0 0 10.9682 0 24.5C0 38.0318 10.9682 49 24.5 49Z" fill="#EBF005"/>
<path fill-rule="evenodd" clip-rule="evenodd" d="M30.4653 33.1218H25.394V13.9539H23.5132V35.0213H25.394V35.0026H30.4653V33.1218Z" fill="#1D8C00"/>
<path fill-rule="evenodd" clip-rule="evenodd" d="M43.1279 25.2883H30.4962V23.4075H44.9776C44.9963 23.7737 45.0087 24.1337 45.0087 24.5062C45.0087 35.8344 35.8282 45.0149 24.4999 45.0149C13.1717 45.0149 3.99121 35.8344 3.99121 24.5062C3.99121 13.178 13.1717 3.99744 24.4999 3.99744C24.7979 3.99744 25.0958 4.00364 25.3938 4.01606V5.88444C25.0958 5.87203 24.8041 5.86582 24.5061 5.86582C14.2083 5.86582 5.86581 14.2146 5.86581 24.5062C5.86581 34.804 14.2145 43.1465 24.5061 43.1465C34.5184 43.1465 42.6934 35.2509 43.1279 25.3442V25.2883Z" fill="#1D8C00"/>
<path fill-rule="evenodd" clip-rule="evenodd" d="M16.8465 24.6273C18.4355 24.6273 19.7266 23.3362 19.7266 21.7471C19.7266 20.1581 18.4355 18.8669 16.8465 18.8669C15.2574 18.8669 13.9663 20.1581 13.9663 21.7471C13.9663 23.3362 15.2574 24.6273 16.8465 24.6273Z" fill="#1D8C00"/>
<path fill-rule="evenodd" clip-rule="evenodd" d="M61.1602 36.5296H78.6646V31.2411H68.0999H67.5909V30.7321V12.309H61.1602V36.5296Z" fill="#EBF005"/>
<path fill-rule="evenodd" clip-rule="evenodd" d="M99.8191 14.0159C97.808 12.4641 95.2258 11.6696 92.147 11.6696C88.4847 11.6696 85.4245 12.7931 83.3016 14.9221C81.0794 17.1443 79.9062 20.4156 79.9062 24.3882C79.9062 28.6277 81.1477 32.2093 83.4071 34.4626C85.1762 36.2316 87.5412 37.1689 90.2413 37.1689C96.1693 37.1689 97.5348 33.6122 97.5348 33.6122V35.2447V36.5296H102.885V22.8488H92.2277V27.1256H96.5168H97.1376C97.1376 27.1256 97.1872 32.5135 92.1221 32.5135C90.8372 32.5135 89.6889 32.0479 88.8075 31.1665C87.4357 29.7947 86.7094 27.4856 86.7094 24.4813C86.7094 19.5155 88.6833 16.5484 91.9856 16.5484C94.0526 16.5484 95.5982 17.8147 96.0016 19.739H102.817C102.451 16.9519 101.687 15.4994 99.8191 14.0159Z" fill="#EBF005"/>
</svg>
