<svg width="216" height="52" viewBox="0 0 216 52" fill="none" xmlns="http://www.w3.org/2000/svg">
<path d="M98.0928 51.1488H84.8515L84.2856 46.4405C84.7761 45.7976 85.8135 45.1737 87.3979 44.5686V38.045L78.1743 18.8149C76.4012 18.2098 75.194 17.5102 74.5527 16.716L75.062 12.2914V12.2347L75.1186 12.0078H88.3599L88.9258 16.716C88.4731 17.3589 87.6054 17.9262 86.3228 18.4178L88.2467 22.7857C89.3407 25.2817 90.2838 27.7587 91.0761 30.2168L91.4722 31.3514H92.321C93.1132 28.5907 94.1506 25.7355 95.4332 22.7857L97.244 18.6447C95.735 18.0396 94.7164 17.3967 94.1883 16.716L94.7542 12.0078H107.656L108.222 16.716C107.467 17.5858 106.222 18.3044 104.487 18.8716L95.5464 38.045V44.5686C97.0554 45.1737 98.0928 45.7976 98.6587 46.4405L98.0928 51.1488ZM127.15 51.6026C121.793 51.6026 117.776 50.0521 115.097 46.951C112.456 43.85 111.136 38.8392 111.136 31.9186C111.136 24.9602 112.588 19.836 115.493 16.5459C118.436 13.2179 122.604 11.554 127.999 11.554C133.431 11.554 137.468 13.0288 140.108 15.9786C142.787 18.9284 144.126 23.8635 144.126 30.7841C144.126 37.7047 142.636 42.9046 139.656 46.3838C136.675 49.863 132.507 51.6026 127.15 51.6026ZM121.661 20.9138C120.303 22.8803 119.624 26.3027 119.624 31.1812C119.624 36.0596 120.341 39.6145 121.774 41.8457C123.208 44.0769 125.17 45.1925 127.659 45.1925C130.187 45.1925 132.149 44.1526 133.544 42.0726C134.94 39.9549 135.638 36.4567 135.638 31.5783C135.638 22.5021 132.922 17.964 127.49 17.964C124.962 17.964 123.019 18.9472 121.661 20.9138ZM166.34 51.6026C160.984 51.6026 156.966 50.0521 154.288 46.951C151.647 43.85 150.327 38.8392 150.327 31.9186C150.327 24.9602 151.779 19.836 154.684 16.5459C157.626 13.2179 161.795 11.554 167.189 11.554C172.622 11.554 176.659 13.0288 179.299 15.9786C181.978 18.9284 183.316 23.8635 183.316 30.7841C183.316 37.7047 181.827 42.9046 178.846 46.3838C175.866 49.863 171.698 51.6026 166.34 51.6026ZM160.851 20.9138C159.493 22.8803 158.814 26.3027 158.814 31.1812C158.814 36.0596 159.531 39.6145 160.965 41.8457C162.399 44.0769 164.36 45.1925 166.85 45.1925C169.377 45.1925 171.339 44.1526 172.735 42.0726C174.131 39.9549 174.828 36.4567 174.828 31.5783C174.828 22.5021 172.112 17.964 166.68 17.964C164.153 17.964 162.21 18.9472 160.851 20.9138ZM216 12.0078V21.8781L211.813 22.3886C210.945 21.6323 210.247 20.2331 209.719 18.1909H200.891V28.5151H208.757C209.21 27.3805 209.681 26.5864 210.172 26.1326L213.737 26.5296V36.6269L210.172 37.0807C209.681 36.7025 209.21 35.9083 208.757 34.6982H200.891V44.1147C203.419 44.682 205.249 45.4573 206.38 46.4405L205.814 51.1488H190.197L189.631 46.4405C190.121 45.7976 191.159 45.1737 192.743 44.5686V18.6447C191.197 18.0775 190.159 17.4346 189.631 16.716L190.197 12.0078H216Z" fill="#EBF005"/>
<path d="M154.065 9.09169C154.531 4.21016 158.204 1.12014 162.207 0.196319C167.458 -0.703414 171.487 1.6283 173.341 4.36113C170.639 4.21016 168.955 3.20825 163.252 4.0771C157.679 5.58415 155.98 7.39128 154.065 9.09169Z" fill="black"/>
<path d="M141.75 9.09169C141.283 4.21016 137.611 1.12014 133.608 0.196319C128.356 -0.703414 124.328 1.6283 122.474 4.36113C125.176 4.21016 126.86 3.20825 132.563 4.0771C138.136 5.58415 139.835 7.39128 141.75 9.09169Z" fill="black"/>
<path d="M127.324 43.8555C130.003 43.8555 132.174 40.953 132.174 37.3725C132.174 33.7921 130.003 30.8895 127.324 30.8895C124.645 30.8895 122.474 33.7921 122.474 37.3725C122.474 40.953 124.645 43.8555 127.324 43.8555Z" fill="black"/>
<path d="M127.728 35.7517C128.398 35.7517 128.941 34.8447 128.941 33.7258C128.941 32.6069 128.398 31.6998 127.728 31.6998C127.059 31.6998 126.516 32.6069 126.516 33.7258C126.516 34.8447 127.059 35.7517 127.728 35.7517Z" fill="#F4F4F4"/>
<path d="M166.934 43.8555C169.613 43.8555 171.785 40.953 171.785 37.3725C171.785 33.7921 169.613 30.8895 166.934 30.8895C164.256 30.8895 162.084 33.7921 162.084 37.3725C162.084 40.953 164.256 43.8555 166.934 43.8555Z" fill="black"/>
<path d="M168.147 35.7517C168.816 35.7517 169.359 34.8447 169.359 33.7258C169.359 32.6069 168.816 31.6998 168.147 31.6998C167.477 31.6998 166.934 32.6069 166.934 33.7258C166.934 34.8447 167.477 35.7517 168.147 35.7517Z" fill="#F4F4F4"/>
<path d="M10.1385 14.5706C10.2608 14.9561 9.70981 15.1749 9.53392 14.8106L7.2847 11.015C7.25532 10.9541 6.42055 9.69056 6.37396 9.64158L3.64183 5.97921C3.08378 5.39259 2.89158 4.69864 3.56518 4.24885L4.39586 3.69417C5.09807 3.22527 6.0544 3.5351 6.34725 4.32639L10.1385 14.5706Z" fill="black"/>
<path d="M33.0273 28.5998C32.0409 29.4151 30.2406 29.224 29.61 28.2369L20.4368 13.877C19.7936 12.8703 20.7947 11.7139 22.3093 11.7139L48.2215 11.7139C49.9769 11.7139 50.9327 13.2189 49.8049 14.2069L39.2124 23.487L33.0273 28.5998Z" fill="#EBF005"/>
<path d="M23.3252 43.4568C23.5506 43.6565 23.8412 43.7596 24.1433 43.7596H29.8704C30.607 43.7596 31.1956 43.1517 31.1661 42.4211L30.6023 28.4269C30.5951 28.2467 30.5498 28.0702 30.4694 27.9085L22.7753 12.432C22.5568 11.9923 22.1056 11.7139 21.6116 11.7139L8.78222 11.7139C7.90648 11.7139 7.28186 12.5472 7.5526 13.3739C9.14955 18.2503 18.8023 35.6686 18.8023 35.6686C18.8023 35.6686 22.4204 42.6546 23.3252 43.4568Z" fill="#EBF005"/>
<path d="M30.2957 43.7596C29.46 43.7596 28.7825 43.2063 28.7656 42.5145L28.4354 28.9563C28.428 28.6518 28.5528 28.3552 28.7873 28.1204L44.7023 12.1809C44.994 11.8889 45.4275 11.7197 45.8852 11.7195L58.7844 11.7139C59.8095 11.7134 60.5439 12.5269 60.241 13.3379C58.5701 17.8127 48.0453 36.2075 48.0453 36.2075C48.0453 36.2075 44.0928 43.7589 41.8543 43.759C40.1341 43.7591 33.3469 43.7595 30.2957 43.7596Z" fill="#EBF005"/>
<path d="M27.5738 51.9999C28.4758 51.9999 29.2071 50.8316 29.2071 49.3905C29.2071 47.9493 28.4758 46.781 27.5738 46.781C26.6717 46.781 25.9404 47.9493 25.9404 49.3905C25.9404 50.8316 26.6717 51.9999 27.5738 51.9999Z" fill="black"/>
<path d="M40.6407 51.9999C41.5427 51.9999 42.274 50.8316 42.274 49.3905C42.274 47.9493 41.5427 46.781 40.6407 46.781C39.7386 46.781 39.0073 47.9493 39.0073 49.3905C39.0073 50.8316 39.7386 51.9999 40.6407 51.9999Z" fill="black"/>
<rect x="8.39941" y="13.545" width="50.0889" height="0.915593" rx="0.457797" fill="#92C885"/>
<rect x="11.1318" y="19.0386" width="45.5354" height="0.915594" rx="0.457797" fill="#92C885"/>
<rect width="30.9576" height="0.911639" rx="0.45582" transform="matrix(0.434206 0.900814 -0.898983 0.437984 13.7725 13.545)" fill="#92C885"/>
<rect width="30.9576" height="0.911639" rx="0.45582" transform="matrix(0.434206 0.900814 -0.898983 0.437984 20.1475 13.545)" fill="#92C885"/>
<rect width="30.9576" height="0.911639" rx="0.45582" transform="matrix(0.434206 0.900814 -0.898983 0.437984 27.4331 13.545)" fill="#92C885"/>
<rect width="27.8455" height="0.911639" rx="0.45582" transform="matrix(0.434205 0.900814 -0.898983 0.437984 33.8081 13.545)" fill="#92C885"/>
<rect width="19.3887" height="0.911639" rx="0.45582" transform="matrix(0.434206 0.900814 -0.898983 0.437984 40.1831 13.545)" fill="#92C885"/>
<rect width="12.6931" height="0.91164" rx="0.45582" transform="matrix(0.434206 0.900814 -0.898983 0.437984 46.5581 13.545)" fill="#92C885"/>
<rect width="7.54434" height="0.911639" rx="0.45582" transform="matrix(0.434206 0.900814 -0.898983 0.437984 52.9331 13.545)" fill="#92C885"/>
<rect x="12.9531" y="24.5321" width="40.9819" height="0.915592" rx="0.457796" fill="#92C885"/>
<rect x="17.5068" y="30.0256" width="31.8748" height="0.915594" rx="0.457797" fill="#92C885"/>
<rect x="20.2388" y="35.5193" width="26.4105" height="0.915592" rx="0.457796" fill="#92C885"/>
<rect x="22.9707" y="41.0128" width="20.9463" height="0.915596" rx="0.457798" fill="#92C885"/>
<path d="M3.12346 4.63317C3.13819 4.61357 3.15348 4.59462 3.17051 4.57702C3.3245 4.41786 4.15863 3.64179 4.75659 4.82493C5.41776 6.13311 3.23673 9.28419 2.39714 9.78917C1.90419 10.0857 1.19508 9.64741 0.693563 9.235C0.322425 8.92979 0.299638 8.39002 0.588115 8.00622L3.12346 4.63317Z" fill="black"/>
<path d="M37.9502 40.6877H29.4196L29.055 37.659C29.371 37.2454 30.0394 36.844 31.0601 36.4548V32.2583L25.1178 19.8877C23.9756 19.4985 23.1978 19.0484 22.7847 18.5376L23.1128 15.6912V15.6548L23.1492 15.5088H31.6799L32.0444 18.5376C31.7528 18.9511 31.1938 19.316 30.3675 19.6323L31.6069 22.4421C32.3117 24.0477 32.9194 25.6412 33.4297 27.2225L33.6849 27.9523H34.2318C34.7421 26.1764 35.4105 24.3397 36.2368 22.4421L37.4034 19.7783C36.4312 19.389 35.775 18.9755 35.4348 18.5376L35.7994 15.5088H44.1112L44.4758 18.5376C43.9898 19.0971 43.1877 19.5593 42.0697 19.9242L36.3097 32.2583V36.4548C37.2819 36.844 37.9502 37.2454 38.3148 37.659L37.9502 40.6877Z" fill="black"/>
</svg>
