<svg width="237" height="57" viewBox="0 0 237 57" fill="none" xmlns="http://www.w3.org/2000/svg">
<path d="M107.629 56.0669H93.1008L92.4799 50.9059C93.0181 50.2013 94.1563 49.5173 95.8948 48.854V41.7032L85.7744 20.624C83.829 19.9607 82.5044 19.1939 81.8008 18.3233L82.3596 13.4733V13.4111L82.4217 13.1624H96.9503L97.5712 18.3233C97.0745 19.028 96.1225 19.6498 94.7151 20.1888L96.8261 24.9767C98.0265 27.7126 99.0613 30.4279 99.9305 33.1223L100.365 34.3659H101.296C102.166 31.3398 103.304 28.2101 104.711 24.9767L106.698 20.4375C105.042 19.7742 103.925 19.0695 103.345 18.3233L103.966 13.1624H118.122L118.743 18.3233C117.915 19.2768 116.55 20.0644 114.645 20.6862L104.836 41.7032V48.854C106.491 49.5173 107.629 50.2013 108.25 50.9059L107.629 56.0669ZM139.512 56.5644C133.634 56.5644 129.226 54.8648 126.287 51.4656C123.389 48.0663 121.941 42.5738 121.941 34.9877C121.941 27.3602 123.534 21.7433 126.722 18.1368C129.95 14.4889 134.524 12.6649 140.443 12.6649C146.404 12.6649 150.832 14.2816 153.73 17.515C156.669 20.7484 158.138 26.1581 158.138 33.7441C158.138 41.3301 156.503 47.0301 153.233 50.8438C149.963 54.6575 145.389 56.5644 139.512 56.5644ZM133.489 22.9247C131.999 25.0803 131.254 28.8319 131.254 34.1794C131.254 39.5269 132.041 43.4236 133.613 45.8693C135.186 48.3151 137.339 49.538 140.071 49.538C142.844 49.538 144.996 48.398 146.528 46.118C148.059 43.7967 148.825 39.9622 148.825 34.6146C148.825 24.6658 145.845 19.6913 139.884 19.6913C137.111 19.6913 134.979 20.7691 133.489 22.9247ZM182.512 56.5644C176.635 56.5644 172.227 54.8648 169.288 51.4656C166.39 48.0663 164.942 42.5738 164.942 34.9877C164.942 27.3602 166.535 21.7433 169.723 18.1368C172.951 14.4889 177.525 12.6649 183.444 12.6649C189.404 12.6649 193.834 14.2816 196.73 17.515C199.67 20.7484 201.139 26.1581 201.139 33.7441C201.139 41.3301 199.504 47.0301 196.234 50.8438C192.964 54.6575 188.39 56.5644 182.512 56.5644ZM176.49 22.9247C175 25.0803 174.255 28.8319 174.255 34.1794C174.255 39.5269 175.041 43.4236 176.614 45.8693C178.187 48.3151 180.339 49.538 183.071 49.538C185.845 49.538 187.997 48.398 189.528 46.118C191.06 43.7967 191.825 39.9622 191.825 34.6146C191.825 24.6658 188.845 19.6913 182.885 19.6913C180.112 19.6913 177.98 20.7691 176.49 22.9247ZM237 13.1624V23.9818L232.405 24.5414C231.454 23.7124 230.687 22.1785 230.108 19.94H220.422V31.2569H229.053C229.549 30.0133 230.066 29.1428 230.605 28.6453L234.516 29.0806V40.1487L230.605 40.6462C230.066 40.2316 229.549 39.3611 229.053 38.0346H220.422V48.3565C223.196 48.9784 225.203 49.8282 226.445 50.9059L225.824 56.0669H208.688L208.067 50.9059C208.605 50.2013 209.743 49.5173 211.482 48.854V20.4375C209.785 19.8157 208.646 19.111 208.067 18.3233L208.688 13.1624H237Z" fill="#1D8C00"/>
<path d="M169.043 9.96589C169.555 4.61498 173.585 1.22785 177.977 0.215196C183.739 -0.77105 188.159 1.78487 190.194 4.78047C187.228 4.61498 185.381 3.51673 179.123 4.46913C173.008 6.12109 171.145 8.10198 169.043 9.96589Z" fill="black"/>
<path d="M155.531 9.96589C155.019 4.61498 150.99 1.22785 146.597 0.215196C140.836 -0.77105 136.416 1.78487 134.381 4.78047C137.346 4.61498 139.193 3.51673 145.452 4.46913C151.566 6.12109 153.43 8.10198 155.531 9.96589Z" fill="black"/>
<path d="M139.703 48.0724C142.642 48.0724 145.025 44.8908 145.025 40.9661C145.025 37.0414 142.642 33.8597 139.703 33.8597C136.764 33.8597 134.381 37.0414 134.381 40.9661C134.381 44.8908 136.764 48.0724 139.703 48.0724Z" fill="black"/>
<path d="M140.146 39.1894C140.881 39.1894 141.477 38.1951 141.477 36.9687C141.477 35.7422 140.881 34.7479 140.146 34.7479C139.412 34.7479 138.816 35.7422 138.816 36.9687C138.816 38.1951 139.412 39.1894 140.146 39.1894Z" fill="#F4F4F4"/>
<path d="M183.164 48.0724C186.103 48.0724 188.486 44.8908 188.486 40.9661C188.486 37.0414 186.103 33.8597 183.164 33.8597C180.225 33.8597 177.842 37.0414 177.842 40.9661C177.842 44.8908 180.225 48.0724 183.164 48.0724Z" fill="black"/>
<path d="M184.495 39.1894C185.229 39.1894 185.825 38.1951 185.825 36.9687C185.825 35.7422 185.229 34.7479 184.495 34.7479C183.76 34.7479 183.164 35.7422 183.164 36.9687C183.164 38.1951 183.76 39.1894 184.495 39.1894Z" fill="#F4F4F4"/>
<path d="M11.1245 15.9716C11.2587 16.3942 10.6541 16.634 10.4611 16.2347L7.9932 12.0741C7.96096 12.0074 7.04504 10.6223 6.99391 10.5687L3.99617 6.55413C3.38386 5.91111 3.17297 5.15042 3.91206 4.65738L4.8235 4.04938C5.59398 3.53538 6.64328 3.87501 6.96461 4.74238L11.1245 15.9716Z" fill="black"/>
<path d="M36.2382 31.3498C35.156 32.2435 33.1806 32.034 32.4887 30.952L22.4237 15.2114C21.718 14.1079 22.8164 12.8402 24.4782 12.8402L52.9096 12.8402C54.8358 12.8402 55.8844 14.49 54.647 15.573L43.0247 25.7454L36.2382 31.3498Z" fill="#1D8C00"/>
<path d="M25.5929 47.6354C25.8402 47.8543 26.159 47.9673 26.4905 47.9673H32.7744C33.5826 47.9673 34.2284 47.3009 34.1961 46.5001L33.5775 31.1602C33.5695 30.9628 33.5199 30.7693 33.4316 30.592L24.9896 13.6274C24.7497 13.1455 24.2547 12.8403 23.7126 12.8402L9.636 12.8402C8.67512 12.8402 7.98977 13.7537 8.28683 14.6598C10.039 20.0051 20.6303 39.0983 20.6303 39.0983C20.6303 39.0983 24.6001 46.756 25.5929 47.6354Z" fill="#1D8C00"/>
<path d="M33.241 47.9673C32.3241 47.9673 31.5807 47.3607 31.5622 46.6024L31.1999 31.7405C31.1918 31.4068 31.3287 31.0817 31.586 30.8243L49.0483 13.3522C49.3683 13.032 49.8441 12.8466 50.3462 12.8464L64.4995 12.8402C65.6243 12.8397 66.43 13.7314 66.0977 14.6204C64.2644 19.5255 52.7163 39.689 52.7163 39.689C52.7163 39.689 48.3795 47.9665 45.9234 47.9666C44.036 47.9668 36.5889 47.9672 33.241 47.9673Z" fill="#1D8C00"/>
<path d="M30.2545 57C31.2443 57 32.0467 55.7194 32.0467 54.1397C32.0467 52.5599 31.2443 51.2793 30.2545 51.2793C29.2648 51.2793 28.4624 52.5599 28.4624 54.1397C28.4624 55.7194 29.2648 57 30.2545 57Z" fill="black"/>
<path d="M44.5914 57C45.5812 57 46.3836 55.7194 46.3836 54.1397C46.3836 52.5599 45.5812 51.2793 44.5914 51.2793C43.6017 51.2793 42.7993 52.5599 42.7993 54.1397C42.7993 55.7194 43.6017 57 44.5914 57Z" fill="black"/>
<rect x="9.21631" y="14.8474" width="54.9587" height="1.00363" rx="0.501816" fill="#92C885"/>
<rect x="12.2139" y="20.8693" width="49.9625" height="1.00363" rx="0.501816" fill="#92C885"/>
<rect width="33.9406" height="1.00008" rx="0.500042" transform="matrix(0.434549 0.900648 -0.89915 0.43764 15.1118 14.8474)" fill="#92C885"/>
<rect width="33.9406" height="1.00008" rx="0.500042" transform="matrix(0.434549 0.900648 -0.899151 0.437639 22.1064 14.8474)" fill="#92C885"/>
<rect width="33.9406" height="1.00008" rx="0.500042" transform="matrix(0.434549 0.900648 -0.89915 0.43764 30.1006 14.8474)" fill="#92C885"/>
<rect width="30.5285" height="1.00008" rx="0.500042" transform="matrix(0.434549 0.900648 -0.89915 0.43764 37.0952 14.8474)" fill="#92C885"/>
<rect width="21.257" height="1.00008" rx="0.500042" transform="matrix(0.434549 0.900648 -0.89915 0.43764 44.0898 14.8474)" fill="#92C885"/>
<rect width="13.9161" height="1.00008" rx="0.500042" transform="matrix(0.434549 0.900648 -0.899151 0.437639 51.0845 14.8474)" fill="#92C885"/>
<rect width="8.27127" height="1.00008" rx="0.500042" transform="matrix(0.434549 0.900648 -0.89915 0.43764 58.0796 14.8474)" fill="#92C885"/>
<rect x="14.2124" y="26.891" width="44.9662" height="1.00363" rx="0.501816" fill="#92C885"/>
<rect x="19.2085" y="32.9128" width="34.9737" height="1.00363" rx="0.501816" fill="#92C885"/>
<rect x="22.2065" y="38.9346" width="28.9782" height="1.00363" rx="0.501816" fill="#92C885"/>
<rect x="25.2041" y="44.9564" width="22.9827" height="1.00363" rx="0.501816" fill="#92C885"/>
<path d="M3.42935 5.07586C3.4441 5.05627 3.45932 5.03741 3.47632 5.01976C3.63845 4.85142 4.55968 3.98535 5.21914 5.28889C5.94458 6.72285 3.55151 10.1769 2.63029 10.7305C2.06885 11.0678 1.25184 10.5374 0.699324 10.0716C0.33192 9.76187 0.308743 9.22352 0.597443 8.8398L3.42935 5.07586Z" fill="black"/>
<path d="M41.6089 44.762H32.256L31.8563 41.4299C32.2027 40.975 32.9355 40.5334 34.0546 40.1051V35.4884L27.5395 21.8792C26.2871 21.451 25.4344 20.9559 24.9814 20.3938L25.3412 17.2625V17.2223L25.3811 17.0618H34.7341L35.1338 20.3938C34.8141 20.8488 34.2012 21.2503 33.2952 21.5982L34.6542 24.6894C35.4269 26.4558 36.0931 28.2088 36.6527 29.9484L36.9325 30.7513H37.532C38.0916 28.7975 38.8243 26.7769 39.7304 24.6894L41.0094 21.7588C39.9435 21.3305 39.224 20.8756 38.851 20.3938L39.2507 17.0618H48.3639L48.7636 20.3938C48.2307 21.0094 47.3513 21.5179 46.1256 21.9193L39.8103 35.4884V40.1051C40.8762 40.5334 41.609 40.975 42.0087 41.4299L41.6089 44.762Z" fill="white"/>
</svg>
