<svg width="50" height="50" viewBox="0 0 50 50" fill="none" xmlns="http://www.w3.org/2000/svg">
<rect width="50" height="50" rx="10" fill="#EBF005"/>
<path d="M39.008 27.5719H38.5445V23.5281C38.5445 22.8879 38.2156 22.321 37.7133 21.9766V21.426C37.7133 20.6273 37.0425 19.9776 36.2181 19.9776H35.872L37.196 18.0955C37.6398 17.4647 37.471 16.6017 36.8198 16.1717L27.8358 10.2409C27.5204 10.0326 27.1401 9.95569 26.7649 10.0247C26.3898 10.0935 26.0648 10.2997 25.8499 10.6053L18.0955 21.6282H15.9377L16.4583 16.5229C16.4641 16.4653 16.5027 16.4155 16.5566 16.3958C17.2273 16.1509 17.8086 15.6934 18.1932 15.1077C18.2235 15.0616 18.2807 15.0352 18.3399 15.041L21.7244 15.3649C21.967 15.3877 22.1829 15.2165 22.2069 14.9815C22.2308 14.7466 22.0536 14.5373 21.8111 14.5141L18.4266 14.1902C18.0337 14.1529 17.6591 14.3283 17.4486 14.6487C17.1658 15.0794 16.7384 15.4157 16.2452 15.5958C15.874 15.7314 15.6191 16.0544 15.5799 16.4388L15.0508 21.6281H14.4881L15.3115 13.5536C15.3411 13.263 15.6089 13.0495 15.9092 13.0786L22.7486 13.7331C22.9912 13.7558 23.2072 13.5847 23.2311 13.3497C23.2551 13.1148 23.0779 12.9055 22.8354 12.8823L15.996 12.2278C15.2118 12.1529 14.5106 12.7098 14.4331 13.4696L13.7695 19.9776H12.6393C11.8149 19.9776 11.1441 20.6273 11.1441 21.426V21.8016C10.4696 22.1024 10 22.7629 10 23.5281V38.1C10 39.1477 10.8798 40 11.9614 40H36.5832C37.6647 40 38.5445 39.1477 38.5445 38.1V34.0562H39.008C39.555 34.0562 40 33.6252 40 33.0953V28.5329C40.0001 28.003 39.555 27.5719 39.008 27.5719ZM36.2181 20.8326C36.5559 20.8325 36.8307 21.0988 36.8307 21.4261V21.6439C36.7495 21.6339 36.6671 21.6282 36.5832 21.6282H34.7109L35.2705 20.8326H36.2181ZM26.5791 11.0867C26.6614 10.9698 26.7857 10.891 26.9292 10.8646C26.9635 10.8583 26.9979 10.8552 27.0321 10.8552C27.1407 10.8552 27.247 10.8867 27.3388 10.9473L36.3228 16.8781C36.5719 17.0426 36.6365 17.3727 36.4668 17.614L33.6429 21.628H32.9652L34.3497 19.66C34.5742 19.3409 34.5927 18.9347 34.3979 18.6C34.1389 18.1552 34.0338 17.6316 34.1022 17.1254C34.153 16.7488 33.982 16.3812 33.6558 16.1659L28.9985 13.0914C28.6723 12.8761 28.2565 12.8563 27.9133 13.0399C27.4521 13.2866 26.9106 13.3834 26.3886 13.3126C26.0015 13.26 25.6089 13.4294 25.3877 13.7437L19.8412 21.6281H19.1635L26.5791 11.0867ZM26.7735 18.346C24.8518 18.346 23.2743 19.7975 23.1458 21.6281H20.9091L26.1168 14.2252H26.1169C26.1465 14.1831 26.1955 14.158 26.2459 14.158C26.2526 14.158 26.2593 14.1584 26.2661 14.1593C26.976 14.2555 27.7125 14.1239 28.3398 13.7884C28.3892 13.7619 28.4526 13.7657 28.5014 13.7979L33.1588 16.8725C33.2076 16.9047 33.2343 16.9605 33.2271 17.0147C33.1341 17.7031 33.277 18.4152 33.6292 19.02C33.6574 19.0686 33.654 19.1308 33.6205 19.1786L31.8974 21.628H30.4014C30.2727 19.7975 28.6953 18.346 26.7735 18.346ZM29.5164 21.6282H24.0306C24.157 20.2694 25.3386 19.201 26.7735 19.201C28.2084 19.2009 29.39 20.2694 29.5164 21.6282ZM12.0266 21.426C12.0266 21.0987 12.3014 20.8325 12.6393 20.8325H13.6823L13.6012 21.6281H12.0266V21.426ZM10.8826 23.5281C10.8826 22.9518 11.3665 22.483 11.9614 22.483H36.5832C37.1781 22.483 37.662 22.9518 37.662 23.5281V24.7142H10.8826V23.5281ZM37.662 38.1C37.662 38.6763 37.1781 39.1451 36.5832 39.1451H11.9614C11.3665 39.1451 10.8826 38.6763 10.8826 38.1V36.9139H13.2622C13.5059 36.9139 13.7034 36.7225 13.7034 36.4864C13.7034 36.2504 13.5059 36.059 13.2622 36.059H10.8826V25.5692H37.662V27.5719H33.4662C32.1443 27.5719 30.9991 28.3184 30.4557 29.3989C30.4539 29.4026 30.4518 29.4061 30.4499 29.4097C30.4453 29.4189 30.4413 29.4285 30.4369 29.4377C30.3721 29.5709 30.3159 29.7088 30.2701 29.851C30.27 29.8514 30.2699 29.8518 30.2697 29.8522C30.1721 30.1562 30.1194 30.4793 30.1194 30.8141C30.1194 32.6018 31.6208 34.0562 33.4662 34.0562H37.6619V36.059H16.0877C15.844 36.059 15.6465 36.2504 15.6465 36.4864C15.6465 36.7225 15.844 36.9139 16.0877 36.9139H37.662V38.1ZM39.1175 33.0953C39.1175 33.1537 39.0684 33.2013 39.008 33.2013H33.4664C32.5322 33.2013 31.7177 32.6951 31.2999 31.951C31.2809 31.9172 31.2627 31.8829 31.2454 31.8481C31.2107 31.7786 31.1795 31.7072 31.1518 31.634C31.0549 31.3782 31.0021 31.102 31.0021 30.8141C31.0021 30.5261 31.055 30.2499 31.1518 29.9941C31.1795 29.9211 31.2108 29.8496 31.2454 29.78C31.2627 29.7453 31.2809 29.7109 31.2999 29.6771C31.7177 28.933 32.5322 28.4268 33.4664 28.4268H39.008C39.0683 28.4268 39.1175 28.4744 39.1175 28.5329V33.0953Z" fill="black"/>
<path d="M33.5697 29.0797C32.5825 29.0797 31.7794 29.8578 31.7794 30.8141C31.7794 31.7704 32.5825 32.5484 33.5697 32.5484C34.557 32.5484 35.3601 31.7704 35.3601 30.8141C35.3601 29.8578 34.557 29.0797 33.5697 29.0797ZM33.5697 31.6935C33.0692 31.6935 32.6619 31.2989 32.6619 30.8141C32.6619 30.3292 33.0692 29.9346 33.5697 29.9346C34.0703 29.9346 34.4776 30.3292 34.4776 30.8141C34.4776 31.299 34.0703 31.6935 33.5697 31.6935Z" fill="black"/>
</svg>
