<svg width="310" height="240" viewBox="0 0 310 240" fill="none" xmlns="http://www.w3.org/2000/svg">
<rect width="310" height="240" fill="#1D8C00"/>
<path d="M222.19 182.147H87.7411C79.9414 182.147 73.6182 175.824 73.6182 168.024V42.3459C73.6182 34.5461 79.9414 28.2229 87.7411 28.2229H222.19C229.989 28.2229 236.313 34.5457 236.313 42.3459V168.024C236.313 175.824 229.99 182.147 222.19 182.147Z" stroke="black" stroke-width="0.7057" stroke-miterlimit="10" stroke-linecap="round" stroke-linejoin="round"/>
<path d="M111.14 37.9561H81.3115V41.6275H111.14V37.9561Z" fill="#77BA66"/>
<path d="M121.236 37.9561H112.517V41.6275H121.236V37.9561Z" fill="#77BA66"/>
<path d="M121.236 44.3808H81.3115V48.0518H121.236V44.3808Z" fill="#77BA66"/>
<path d="M91.0592 51.5198H81.3115V55.1908H91.0592V51.5198Z" fill="#77BA66"/>
<path d="M121.236 51.5198H92.0791V55.1908H121.236V51.5198Z" fill="#77BA66"/>
<path d="M109.62 58.6582H96.5664V62.3292H109.62V58.6582Z" fill="#77BA66"/>
<path d="M121.236 58.6582H110.844V62.3292H121.236V58.6582Z" fill="#77BA66"/>
<path d="M95.5464 58.6582H81.3115V62.3292H95.5464V58.6582Z" fill="#77BA66"/>
<path d="M112.487 154.975H72.6224C69.8181 154.975 67.5449 152.702 67.5449 149.898V104.526C67.5449 101.722 69.8181 99.4488 72.6224 99.4488H112.487C115.292 99.4488 117.565 101.722 117.565 104.526V149.898C117.565 152.702 115.292 154.975 112.487 154.975Z" fill="#77BA66"/>
<path d="M188.832 67.7845H130.276C128.831 67.7845 127.66 66.6138 127.66 65.1692V37.818C127.66 36.3734 128.831 35.2027 130.276 35.2027H188.832C190.276 35.2027 191.447 36.3734 191.447 37.818V65.1692C191.447 66.6138 190.276 67.7845 188.832 67.7845Z" stroke="black" stroke-width="0.7057" stroke-miterlimit="10" stroke-linecap="round" stroke-linejoin="round"/>
<path d="M127.66 65.1692L143.263 52.6408L151.064 59.9836L165.749 48.5108L173.092 55.8532L191.447 37.8181" stroke="black" stroke-width="0.7057" stroke-miterlimit="10" stroke-linecap="round" stroke-linejoin="round"/>
<path d="M134.708 60.4844C134.708 61.1179 134.195 61.6316 133.561 61.6316C132.928 61.6316 132.414 61.1179 132.414 60.4844C132.414 59.8506 132.928 59.3373 133.561 59.3373C134.195 59.3373 134.708 59.851 134.708 60.4844Z" fill="#4EC72E"/>
<path d="M144.422 52.6064C144.422 53.2399 143.909 53.7536 143.275 53.7536C142.642 53.7536 142.128 53.2399 142.128 52.6064C142.128 51.9726 142.642 51.4593 143.275 51.4593C143.909 51.4589 144.422 51.9726 144.422 52.6064Z" fill="#4EC72E"/>
<path d="M158.649 55.4364C158.649 56.0698 158.135 56.5836 157.502 56.5836C156.868 56.5836 156.354 56.0698 156.354 55.4364C156.354 54.8026 156.868 54.2892 157.502 54.2892C158.135 54.2892 158.649 54.8026 158.649 55.4364Z" fill="#4EC72E"/>
<path d="M183.889 46.4873C183.889 47.1212 183.375 47.6345 182.742 47.6345C182.108 47.6345 181.595 47.1208 181.595 46.4873C181.595 45.8539 182.108 45.3402 182.742 45.3402C183.375 45.3402 183.889 45.8535 183.889 46.4873Z" fill="#4EC72E"/>
<path d="M192.456 38.0736C192.456 38.7075 191.943 39.2208 191.309 39.2208C190.675 39.2208 190.162 38.7071 190.162 38.0736C190.162 37.4402 190.676 36.9265 191.309 36.9265C191.943 36.9265 192.456 37.4402 192.456 38.0736Z" fill="#4EC72E"/>
<path d="M166.986 48.476C166.986 49.1098 166.472 49.6231 165.839 49.6231C165.205 49.6231 164.691 49.1094 164.691 48.476C164.691 47.8425 165.205 47.3288 165.839 47.3288C166.472 47.3288 166.986 47.8425 166.986 48.476Z" fill="#4EC72E"/>
<path d="M149.229 43.4632H135.462C134.704 43.4632 134.085 42.8438 134.085 42.0865C134.085 41.3292 134.704 40.7099 135.462 40.7099H149.229C149.986 40.7099 150.605 41.3292 150.605 42.0865C150.605 42.8434 149.986 43.4632 149.229 43.4632Z" fill="#4EC72E"/>
<path d="M183.647 64.5723H169.88C169.122 64.5723 168.503 63.9529 168.503 63.1956C168.503 62.4383 169.122 61.819 169.88 61.819H183.647C184.404 61.819 185.023 62.4383 185.023 63.1956C185.023 63.9529 184.404 64.5723 183.647 64.5723Z" fill="#4EC72E"/>
<path d="M84.9826 88.8941H80.3936V137.079H84.9826V88.8941Z" fill="#FEFDFF"/>
<path d="M92.7844 78.3394H88.1953V126.524H92.7844V78.3394Z" fill="#FEFDFF"/>
<path d="M101.503 90.7298H96.9141V138.915H101.503V90.7298Z" stroke="#FEFDFF" stroke-width="0.7385" stroke-miterlimit="10"/>
<path d="M151.983 74.6683H147.394V122.853H151.983V74.6683Z" fill="#FEFDFF"/>
<path d="M109.305 71.9147H104.716V102.661H109.305V71.9147Z" fill="#FEFDFF"/>
<path d="M125.366 77.4217H120.777V108.168H125.366V77.4217Z" fill="#FEFDFF"/>
<path d="M133.933 89.3531H129.344V120.099H133.933V89.3531Z" fill="#FEFDFF"/>
<path d="M194.201 90.7298H189.612V121.476H194.201V90.7298Z" fill="#FEFDFF"/>
<path d="M179.744 77.949H174.724V111.584H179.744V77.949Z" fill="#FEFDFF"/>
<path d="M159.783 77.4217H155.194V108.168H159.783V77.4217Z" fill="#FEFDFF"/>
<path d="M168.962 74.2094H164.373V104.956H168.962V74.2094Z" stroke="#FEFDFF" stroke-width="0.7385" stroke-miterlimit="10"/>
<path d="M211.028 74.2094H206.438V104.956H211.028V74.2094Z" stroke="#FEFDFF" stroke-width="0.7385" stroke-miterlimit="10"/>
<path d="M117.565 68.2435H112.976V86.5997H117.565V68.2435Z" stroke="#FEFDFF" stroke-width="0.7385" stroke-miterlimit="10"/>
<path d="M143.416 94.4008H138.827V112.757H143.416V94.4008Z" stroke="#FEFDFF" stroke-width="0.7385" stroke-miterlimit="10"/>
<path d="M220.059 89.8437H215.47V108.2H220.059V89.8437Z" stroke="#FEFDFF" stroke-width="0.7385" stroke-miterlimit="10"/>
<path d="M227.931 101.029H223.342V119.386H227.931V101.029Z" stroke="#FEFDFF" stroke-width="0.7385" stroke-miterlimit="10"/>
<path d="M201.696 79.2569H197.107V97.6131H201.696V79.2569Z" stroke="#FEFDFF" stroke-width="0.7385" stroke-miterlimit="10"/>
<path d="M210.378 50.212C210.378 54.6055 206.817 58.1667 202.423 58.1667C198.293 58.1667 194.9 55.0214 194.506 50.9954C194.481 50.7385 194.469 50.4755 194.469 50.212C194.469 46.9627 196.418 44.1696 199.208 42.9334C200.19 42.4988 201.279 42.2573 202.423 42.2573C206.817 42.2577 210.378 45.8189 210.378 50.212Z" stroke="#FEFDFF" stroke-width="0.7385" stroke-miterlimit="10"/>
<path d="M229.978 50.1709C229.978 53.7503 227.613 56.7796 224.358 57.7767C223.62 58.0034 222.837 58.1256 222.023 58.1256C217.63 58.1256 214.068 54.5644 214.068 50.1709C214.068 45.7774 217.63 42.2162 222.023 42.2162C223.703 42.2162 225.26 42.7361 226.545 43.6264C228.619 45.0615 229.978 47.4573 229.978 50.1709Z" stroke="#FEFDFF" stroke-width="0.7385" stroke-miterlimit="10"/>
<path d="M202.425 50.4136L194.506 50.9941C194.481 50.7372 194.469 50.4741 194.469 50.2107C194.469 46.9614 196.418 44.1683 199.208 42.9321L202.425 50.4136Z" fill="#FEFDFF"/>
<path d="M229.978 50.1709C229.978 53.7504 227.613 56.7796 224.358 57.7768L221.191 50.6175L226.546 43.6265C228.62 45.0615 229.978 47.4574 229.978 50.1709Z" fill="#FEFDFF"/>
<path d="M99.4984 81.9966H102.479L100.989 84.5781L99.4984 87.1595L98.0082 84.5781L96.5176 81.9966H99.4984Z" fill="#4EC72E"/>
<path d="M141.083 86.8919H144.064L142.574 89.4733L141.083 92.0547L139.593 89.4733L138.103 86.8919H141.083Z" fill="#4EC72E"/>
<path d="M191.881 83.2205H194.862L193.372 85.8019L191.881 88.3833L190.391 85.8019L188.9 83.2205H191.881Z" fill="#4EC72E"/>
<path d="M115.384 96.0646H112.403L113.894 93.4832L115.384 90.9017L116.875 93.4832L118.365 96.0646H115.384Z" fill="#4EC72E"/>
<path d="M90.6038 134.612H87.623L89.1132 132.031L90.6038 129.449L92.094 132.031L93.5846 134.612H90.6038Z" fill="#4EC72E"/>
<path d="M209.458 112.126H206.478L207.968 109.545L209.458 106.963L210.949 109.545L212.439 112.126H209.458Z" fill="#4EC72E"/>
<path d="M92.0149 160.974H80.3772C78.0891 160.974 76.2344 159.12 76.2344 156.831V145.193C76.2344 142.905 78.0891 141.05 80.3772 141.05H92.0153C94.3034 141.05 96.1582 142.905 96.1582 145.193V156.831C96.1582 159.12 94.303 160.974 92.0149 160.974Z" fill="#4EC72E"/>
<path d="M241.37 91.5783H230.646C228.538 91.5783 226.829 89.8694 226.829 87.7611V77.0377C226.829 74.9294 228.538 73.2205 230.646 73.2205H241.37C243.478 73.2205 245.187 74.9294 245.187 77.0377V87.7606C245.187 89.8689 243.478 91.5783 241.37 91.5783Z" fill="#4EC72E"/>
<path d="M78.909 86.5095H70.1266C68.3999 86.5095 67 85.1096 67 83.3829V74.6004C67 72.8737 68.3999 71.4738 70.1266 71.4738H78.909C80.6358 71.4738 82.0357 72.8737 82.0357 74.6004V83.3829C82.0357 85.1096 80.6358 86.5095 78.909 86.5095Z" fill="#4EC72E"/>
<path d="M72.4263 78.6645H71.0703V82.8443H72.4263V78.6645Z" fill="#FFF8F3"/>
<path d="M74.7764 76.262H73.292V82.9059H74.7764V76.262Z" fill="#FFF8F3"/>
<path d="M77.2813 74.5842H75.7969V82.9063H77.2813V74.5842Z" fill="#FFF8F3"/>
<path d="M241.256 141.43H230.759C228.696 141.43 227.022 139.757 227.022 137.693V127.196C227.022 125.133 228.695 123.459 230.759 123.459H241.256C243.32 123.459 244.992 125.132 244.992 127.196V137.693C244.993 139.757 243.32 141.43 241.256 141.43Z" fill="#4EC72E"/>
<path d="M229.704 136.951L233.637 131.706L236.737 135.402L241.027 129.203" stroke="#FFF8F3" stroke-miterlimit="10"/>
<path d="M241.947 127.881L241.752 130.075L241.556 132.268L239.754 131.002L237.952 129.736L239.95 128.809L241.947 127.881Z" fill="#FFF8F3"/>
<path d="M125 190V168.811L106.048 158L88 168.811V190H125Z" fill="#4EC72E"/>
<path d="M93.3633 175.676H92.6875V178H91.5156V172.312H92.6875V174.59H93.2227L94.6133 172.312H96.043L94.2891 175.004L96.2266 178H94.8281L93.3633 175.676ZM98.8125 175L99.8477 172.312H101.113L99.125 177.004L98.9648 177.312C98.6706 177.826 98.2201 178.082 97.6133 178.082L97.2031 178.066L97.1914 177.125C97.2539 177.135 97.3555 177.141 97.4961 177.141C97.6602 177.141 97.7917 177.112 97.8906 177.055C97.9922 176.997 98.0768 176.892 98.1445 176.738L98.2891 176.367L96.293 172.312H97.5547L98.8125 175ZM106.367 178H105.191V173.262H102.914V178H101.742V172.312H106.367V178ZM110.809 172.312H111.984V178H110.809V174.223L108.531 178H107.359V172.312H108.531V176.098L110.809 172.312ZM117.164 173.262H115.422V178H114.25V173.262H112.531V172.312H117.164V173.262ZM119.07 174.363H119.984C120.654 174.363 121.184 174.526 121.574 174.852C121.967 175.174 122.164 175.611 122.164 176.16C122.164 176.712 121.969 177.156 121.578 177.492C121.19 177.826 120.673 177.995 120.027 178H117.891V172.312H119.07V174.363ZM119.07 175.309V177.059H120.004C120.303 177.059 120.542 176.977 120.719 176.812C120.898 176.648 120.988 176.428 120.988 176.152C120.988 175.895 120.902 175.691 120.73 175.543C120.561 175.392 120.328 175.314 120.031 175.309H119.07Z" fill="black"/>
<path d="M107.009 158.227V102.323" stroke="black" stroke-width="0.7057" stroke-miterlimit="10" stroke-linecap="round" stroke-linejoin="round"/>
<path d="M106.867 160.148C107.712 160.148 108.397 159.463 108.397 158.618C108.397 157.773 107.712 157.088 106.867 157.088C106.022 157.088 105.337 157.773 105.337 158.618C105.337 159.463 106.022 160.148 106.867 160.148Z" fill="#FEFDFF"/>
<path d="M232 190V168.811L211 158L191 168.811V190H232Z" fill="#4EC72E"/>
<path d="M198.141 179H196.965V174.262H194.688V179H193.516V173.312H198.141V179ZM200.344 176.996V179H199.172V173.312H201.391C201.818 173.312 202.193 173.391 202.516 173.547C202.841 173.703 203.091 173.926 203.266 174.215C203.44 174.501 203.527 174.828 203.527 175.195C203.527 175.753 203.336 176.193 202.953 176.516C202.573 176.836 202.046 176.996 201.371 176.996H200.344ZM200.344 176.047H201.391C201.701 176.047 201.936 175.974 202.098 175.828C202.262 175.682 202.344 175.474 202.344 175.203C202.344 174.924 202.262 174.699 202.098 174.527C201.934 174.355 201.707 174.267 201.418 174.262H200.344V176.047ZM209.008 176.285C209.008 176.845 208.909 177.336 208.711 177.758C208.513 178.18 208.229 178.505 207.859 178.734C207.492 178.964 207.07 179.078 206.594 179.078C206.122 179.078 205.702 178.965 205.332 178.738C204.962 178.512 204.676 178.189 204.473 177.77C204.27 177.348 204.167 176.863 204.164 176.316V176.035C204.164 175.475 204.264 174.983 204.465 174.559C204.668 174.132 204.953 173.805 205.32 173.578C205.69 173.349 206.112 173.234 206.586 173.234C207.06 173.234 207.48 173.349 207.848 173.578C208.217 173.805 208.503 174.132 208.703 174.559C208.906 174.983 209.008 175.474 209.008 176.031V176.285ZM207.82 176.027C207.82 175.431 207.714 174.978 207.5 174.668C207.286 174.358 206.982 174.203 206.586 174.203C206.193 174.203 205.889 174.357 205.676 174.664C205.462 174.969 205.354 175.417 205.352 176.008V176.285C205.352 176.866 205.458 177.316 205.672 177.637C205.885 177.957 206.193 178.117 206.594 178.117C206.987 178.117 207.289 177.964 207.5 177.656C207.711 177.346 207.818 176.896 207.82 176.305V176.027ZM215 180.398H213.918V179H210.488V180.395H209.379L209.316 178.059H209.746C209.978 177.866 210.156 177.583 210.281 177.211C210.409 176.836 210.495 176.372 210.539 175.82L210.703 173.312H214.43V178.059H215.094L215 180.398ZM211.09 178.059H213.258V174.262H211.816L211.719 175.758C211.641 176.76 211.431 177.527 211.09 178.059ZM218.984 177.828H216.93L216.539 179H215.293L217.41 173.312H218.496L220.625 179H219.379L218.984 177.828ZM217.246 176.879H218.668L217.953 174.75L217.246 176.879ZM224.969 174.262H223.227V179H222.055V174.262H220.336V173.312H224.969V174.262ZM226.875 175.363H227.789C228.458 175.363 228.988 175.526 229.379 175.852C229.772 176.174 229.969 176.611 229.969 177.16C229.969 177.712 229.773 178.156 229.383 178.492C228.995 178.826 228.478 178.995 227.832 179H225.695V173.312H226.875V175.363ZM226.875 176.309V178.059H227.809C228.108 178.059 228.346 177.977 228.523 177.812C228.703 177.648 228.793 177.428 228.793 177.152C228.793 176.895 228.707 176.691 228.535 176.543C228.366 176.392 228.133 176.314 227.836 176.309H226.875Z" fill="black"/>
<path d="M209.36 159.23C210.205 159.23 210.89 158.545 210.89 157.7C210.89 156.855 210.205 156.17 209.36 156.17C208.515 156.17 207.83 156.855 207.83 157.7C207.83 158.545 208.515 159.23 209.36 159.23Z" fill="#FEFDFF"/>
<path d="M209.359 157.7V112.126" stroke="#FEFDFF" stroke-width="0.7385" stroke-miterlimit="10"/>
<path d="M219.456 24H207.83V35.6261H219.456V24Z" fill="#77BA66"/>
<path d="M202.018 130.924H190.392V142.55H202.018V130.924Z" fill="#77BA66"/>
<path d="M188.882 189.831C203.651 189.824 218.643 189.824 233.466 189.852" stroke="black" stroke-width="0.7057" stroke-miterlimit="10" stroke-linecap="round" stroke-linejoin="round"/>
<path d="M87 190C99.9616 190 113.024 190 126 190" stroke="black" stroke-width="0.7057" stroke-miterlimit="10" stroke-linecap="round" stroke-linejoin="round"/>
<path d="M149.229 181.592C149.229 182.606 148.407 183.428 147.393 183.428C146.38 183.428 145.558 182.606 145.558 181.592C145.558 180.578 146.38 179.756 147.393 179.756C148.407 179.756 149.229 180.578 149.229 181.592Z" fill="#FEFDFF"/>
<path d="M186.4 182.051C186.4 183.064 185.578 183.886 184.564 183.886C183.55 183.886 182.729 183.064 182.729 182.051C182.729 181.037 183.55 180.215 184.564 180.215C185.578 180.215 186.4 181.037 186.4 182.051Z" fill="#FEFDFF"/>
<path d="M238.255 106.332C238.255 107.346 237.433 108.168 236.42 108.168C235.406 108.168 234.584 107.346 234.584 106.332C234.584 105.318 235.406 104.497 236.42 104.497C237.433 104.497 238.255 105.318 238.255 106.332Z" fill="#FEFDFF"/>
<path d="M237.796 159.564C237.796 160.578 236.974 161.4 235.961 161.4C234.947 161.4 234.125 160.578 234.125 159.564C234.125 158.551 234.947 157.729 235.961 157.729C236.974 157.729 237.796 158.551 237.796 159.564Z" fill="#FEFDFF"/>
<path d="M74.9458 57.9607C74.9458 58.9744 74.1239 59.7964 73.1101 59.7964C72.0964 59.7964 71.2744 58.9744 71.2744 57.9607C71.2744 56.9469 72.0964 56.125 73.1101 56.125C74.1239 56.125 74.9458 56.9469 74.9458 57.9607Z" fill="#FEFDFF"/>
</svg>
