<svg width="310" height="240" viewBox="0 0 310 240" fill="none" xmlns="http://www.w3.org/2000/svg">
<rect width="310" height="240" fill="#1D8C00"/>
<g opacity="0.3">
<path opacity="0.3" d="M244.548 35.552C246.258 35.552 247.65 36.944 247.65 38.654V183.346C247.65 185.056 246.258 186.448 244.548 186.448H51.654C49.944 186.448 48.552 185.056 48.552 183.346V38.653C48.552 36.943 49.944 35.551 51.654 35.551H244.548V35.552ZM244.548 35H51.654C49.636 35 48 36.636 48 38.653V183.345C48 185.363 49.636 186.999 51.654 186.999H244.549C246.567 186.999 248.203 185.362 248.203 183.345V38.653C248.202 36.636 246.566 35 244.548 35Z" fill="white"/>
</g>
<mask id="mask0" mask-type="alpha" maskUnits="userSpaceOnUse" x="48" y="35" width="201" height="152">
<path d="M248.202 183.346C248.202 185.364 246.566 187 244.548 187H51.654C49.636 187 48 185.363 48 183.346V38.653C48 36.635 49.636 35 51.654 35H244.549C246.567 35 248.203 36.636 248.203 38.653V183.346H248.202Z" fill="url(#paint0_linear)"/>
</mask>
<g mask="url(#mask0)">
<path opacity="0.4" d="M248.202 183.346C248.202 185.364 246.566 187 244.548 187H51.654C49.636 187 48 185.363 48 183.346V38.653C48 36.635 49.636 35 51.654 35H244.549C246.567 35 248.203 36.636 248.203 38.653V183.346H248.202Z" fill="url(#paint1_linear)"/>
</g>
<mask id="mask1" mask-type="alpha" maskUnits="userSpaceOnUse" x="48" y="35" width="193" height="152">
<path d="M51.654 187H57.853C72.278 159.544 90.799 134.172 112.998 111.973C148.833 76.138 192.924 49.862 240.741 35H51.654C49.636 35 48 36.636 48 38.653V183.345C48 185.363 49.636 187 51.654 187Z" fill="url(#paint2_linear)"/>
</mask>
<g mask="url(#mask1)">
<path opacity="0.2" d="M51.654 187H57.853C72.278 159.544 90.799 134.172 112.998 111.973C148.833 76.138 192.924 49.862 240.741 35H51.654C49.636 35 48 36.636 48 38.653V183.345C48 185.363 49.636 187 51.654 187Z" fill="url(#paint3_linear)"/>
</g>
<path opacity="0.6" d="M154.825 148.064H76.6929V167.707H154.825V148.064Z" fill="#1D8C00"/>
<path d="M99.8252 161V153.891H102.149C102.921 153.891 103.5 154.05 103.888 154.369C104.278 154.688 104.474 155.16 104.474 155.785C104.474 156.117 104.379 156.412 104.19 156.669C104.002 156.923 103.744 157.12 103.419 157.26C103.803 157.367 104.106 157.572 104.327 157.875C104.552 158.174 104.664 158.533 104.664 158.949C104.664 159.587 104.457 160.089 104.044 160.453C103.631 160.818 103.046 161 102.291 161H99.8252ZM100.763 157.675V160.233H102.311C102.747 160.233 103.09 160.121 103.341 159.896C103.595 159.669 103.722 159.356 103.722 158.959C103.722 158.103 103.256 157.675 102.325 157.675H100.763ZM100.763 156.923H102.179C102.589 156.923 102.916 156.82 103.16 156.615C103.408 156.41 103.531 156.132 103.531 155.78C103.531 155.39 103.417 155.106 103.189 154.931C102.962 154.752 102.615 154.662 102.149 154.662H100.763V156.923ZM111.524 157.675C111.524 158.371 111.407 158.98 111.173 159.501C110.938 160.019 110.606 160.414 110.177 160.688C109.747 160.961 109.246 161.098 108.673 161.098C108.113 161.098 107.617 160.961 107.184 160.688C106.751 160.411 106.414 160.019 106.173 159.511C105.935 159 105.813 158.409 105.807 157.738V157.226C105.807 156.542 105.925 155.938 106.163 155.414C106.401 154.89 106.736 154.49 107.169 154.213C107.605 153.933 108.103 153.793 108.663 153.793C109.233 153.793 109.734 153.931 110.167 154.208C110.603 154.481 110.938 154.88 111.173 155.404C111.407 155.925 111.524 156.532 111.524 157.226V157.675ZM110.592 157.216C110.592 156.373 110.423 155.727 110.084 155.277C109.745 154.825 109.272 154.599 108.663 154.599C108.071 154.599 107.604 154.825 107.262 155.277C106.923 155.727 106.749 156.352 106.739 157.152V157.675C106.739 158.492 106.91 159.135 107.252 159.604C107.597 160.069 108.071 160.302 108.673 160.302C109.278 160.302 109.747 160.082 110.079 159.643C110.411 159.2 110.582 158.567 110.592 157.743V157.216ZM117.413 153.891H118.351V161H117.413V155.521L113.912 161H112.97V153.891H113.912V159.369L117.413 153.891ZM117.149 152.123C117.149 152.517 117.014 152.834 116.744 153.075C116.477 153.313 116.126 153.432 115.689 153.432C115.253 153.432 114.9 153.311 114.63 153.07C114.36 152.829 114.225 152.514 114.225 152.123H114.962C114.962 152.351 115.024 152.53 115.147 152.66C115.271 152.787 115.452 152.851 115.689 152.851C115.917 152.851 116.095 152.787 116.222 152.66C116.352 152.533 116.417 152.354 116.417 152.123H117.149ZM124.972 154.662H122.687V161H121.754V154.662H119.474V153.891H124.972V154.662ZM130.509 153.891H131.446V161H130.509V155.521L127.008 161H126.065V153.891H127.008V159.369L130.509 153.891Z" fill="black"/>
<path d="M112.115 54.6602V58H110.99V49.4688H114.137C115.07 49.4688 115.801 49.707 116.328 50.1836C116.859 50.6602 117.125 51.291 117.125 52.0762C117.125 52.9043 116.865 53.543 116.346 53.9922C115.83 54.4375 115.09 54.6602 114.125 54.6602H112.115ZM112.115 53.7402H114.137C114.738 53.7402 115.199 53.5996 115.52 53.3184C115.84 53.0332 116 52.623 116 52.0879C116 51.5801 115.84 51.1738 115.52 50.8691C115.199 50.5645 114.76 50.4062 114.201 50.3945H112.115V53.7402ZM123.383 54.0566H119.686V57.0801H123.98V58H118.561V49.4688H123.922V50.3945H119.686V53.1367H123.383V54.0566ZM130.672 50.3945H126.559V58H125.428V49.4688H130.672V50.3945ZM137.439 49.4688H138.564V58H137.439V51.4258L133.238 58H132.107V49.4688H133.238V56.043L137.439 49.4688ZM146.891 55.293C146.785 56.1953 146.451 56.8926 145.889 57.3848C145.33 57.873 144.586 58.1172 143.656 58.1172C142.648 58.1172 141.84 57.7559 141.23 57.0332C140.625 56.3105 140.322 55.3438 140.322 54.1328V53.3125C140.322 52.5195 140.463 51.8223 140.744 51.2207C141.029 50.6191 141.432 50.1582 141.951 49.8379C142.471 49.5137 143.072 49.3516 143.756 49.3516C144.662 49.3516 145.389 49.6055 145.936 50.1133C146.482 50.6172 146.801 51.3164 146.891 52.2109H145.76C145.662 51.5312 145.449 51.0391 145.121 50.7344C144.797 50.4297 144.342 50.2773 143.756 50.2773C143.037 50.2773 142.473 50.543 142.062 51.0742C141.656 51.6055 141.453 52.3613 141.453 53.3418V54.168C141.453 55.0938 141.646 55.8301 142.033 56.377C142.42 56.9238 142.961 57.1973 143.656 57.1973C144.281 57.1973 144.76 57.0566 145.092 56.7754C145.428 56.4902 145.65 55.9961 145.76 55.293H146.891ZM154.15 50.3945H151.408V58H150.289V50.3945H147.553V49.4688H154.15V50.3945ZM156.541 54.6602V58H155.416V49.4688H158.562C159.496 49.4688 160.227 49.707 160.754 50.1836C161.285 50.6602 161.551 51.291 161.551 52.0762C161.551 52.9043 161.291 53.543 160.771 53.9922C160.256 54.4375 159.516 54.6602 158.551 54.6602H156.541ZM156.541 53.7402H158.562C159.164 53.7402 159.625 53.5996 159.945 53.3184C160.266 53.0332 160.426 52.623 160.426 52.0879C160.426 51.5801 160.266 51.1738 159.945 50.8691C159.625 50.5645 159.186 50.4062 158.627 50.3945H156.541V53.7402ZM166.889 55.7734H163.314L162.512 58H161.352L164.609 49.4688H165.594L168.857 58H167.703L166.889 55.7734ZM163.654 54.8477H166.555L165.102 50.8574L163.654 54.8477ZM170.041 49.4688H171.172V57.0801H175.379V49.4688H176.504V57.0566H177.4L177.295 60.0566H176.281V58H170.041V49.4688ZM184.162 49.4688H185.287V58H184.162V51.4258L179.961 58H178.83V49.4688H179.961V56.043L184.162 49.4688ZM191.803 58V54.6777H189.834L188.07 58H186.869L188.85 54.3672C187.748 53.9336 187.197 53.1582 187.197 52.041C187.197 51.2285 187.463 50.5977 187.994 50.1484C188.529 49.6953 189.271 49.4688 190.221 49.4688H192.934V58H191.803ZM188.322 52.041C188.322 52.5566 188.482 52.9707 188.803 53.2832C189.127 53.5957 189.576 53.7539 190.15 53.7578H191.803V50.3945H190.203C189.594 50.3945 189.127 50.5391 188.803 50.8281C188.482 51.1172 188.322 51.5215 188.322 52.041Z" fill="black"/>
<path opacity="0.8" d="M227.417 76.179H76.6929V98.928H227.417V76.179Z" fill="white"/>
<g opacity="0.9">
<path opacity="0.9" d="M227.167 76.429V98.678H76.9429V76.429H227.167ZM227.417 76.179H76.6929V98.928H227.417V76.179Z" fill="white"/>
</g>
<path d="M92.4499 89.335V89.941H88.7949V84.557H92.3819V85.163H89.4779V86.907H92.0029V87.476H89.4779V89.334H92.4499V89.335Z" fill="#6B6B6B"/>
<path d="M99.2668 89.942H98.5998V87.728C98.5998 87.314 98.5328 87.008 98.3988 86.81C98.2648 86.613 98.0658 86.515 97.8038 86.515C97.5308 86.515 97.2868 86.612 97.0718 86.807C96.8568 87.001 96.7038 87.253 96.6128 87.561V89.942H95.9458V87.728C95.9458 87.304 95.8808 86.995 95.7488 86.803C95.6168 86.611 95.4198 86.515 95.1568 86.515C94.8888 86.515 94.6458 86.61 94.4288 86.799C94.2118 86.988 94.0568 87.24 93.9668 87.553V89.942H93.2998V85.984H93.9058V86.833C94.0678 86.54 94.2778 86.313 94.5348 86.154C94.7928 85.995 95.0828 85.915 95.4068 85.915C95.7398 85.915 96.0048 86.005 96.1988 86.184C96.3928 86.364 96.5128 86.595 96.5588 86.878C96.9128 86.236 97.4158 85.915 98.0678 85.915C98.2948 85.915 98.4858 85.957 98.6398 86.04C98.7938 86.124 98.9168 86.24 99.0078 86.389C99.0988 86.538 99.1648 86.714 99.2048 86.916C99.2458 87.118 99.2658 87.338 99.2658 87.576V89.942H99.2668Z" fill="#6B6B6B"/>
<path d="M101.345 90.018C101.148 90.018 100.966 89.987 100.799 89.923C100.632 89.86 100.488 89.774 100.367 89.665C100.245 89.557 100.151 89.428 100.083 89.278C100.015 89.129 99.98 88.971 99.98 88.804C99.98 88.617 100.021 88.446 100.101 88.292C100.182 88.138 100.297 88.007 100.446 87.898C100.595 87.789 100.772 87.706 100.977 87.648C101.182 87.59 101.405 87.561 101.648 87.561C101.84 87.561 102.035 87.579 102.232 87.614C102.429 87.65 102.604 87.697 102.755 87.759V87.44C102.755 87.117 102.664 86.863 102.482 86.678C102.3 86.493 102.042 86.401 101.709 86.401C101.31 86.401 100.89 86.555 100.45 86.863L100.23 86.431C100.488 86.259 100.743 86.13 100.996 86.044C101.249 85.958 101.512 85.915 101.785 85.915C102.29 85.915 102.69 86.054 102.983 86.332C103.276 86.61 103.422 87.002 103.422 87.507V89.122C103.422 89.279 103.493 89.36 103.634 89.365V89.941C103.583 89.951 103.535 89.958 103.49 89.964C103.445 89.969 103.402 89.971 103.361 89.971C103.25 89.971 103.141 89.941 103.035 89.88C102.929 89.819 102.871 89.715 102.861 89.569L102.846 89.288C102.755 89.41 102.651 89.516 102.535 89.607C102.419 89.698 102.295 89.774 102.163 89.835C102.032 89.896 101.896 89.941 101.758 89.971C101.619 90.002 101.481 90.018 101.345 90.018ZM101.512 89.517C101.724 89.517 101.932 89.472 102.134 89.381C102.336 89.29 102.495 89.179 102.612 89.048C102.708 88.937 102.756 88.833 102.756 88.737V88.153C102.599 88.092 102.434 88.046 102.259 88.013C102.085 87.98 101.917 87.964 101.755 87.964C101.411 87.964 101.135 88.033 100.928 88.173C100.72 88.312 100.617 88.503 100.617 88.745C100.617 88.847 100.638 88.944 100.678 89.037C100.718 89.131 100.776 89.213 100.852 89.284C100.928 89.355 101.021 89.412 101.132 89.454C101.244 89.496 101.37 89.517 101.512 89.517Z" fill="#6B6B6B"/>
<path d="M104.499 85.241V84.407H105.166V85.241H104.499ZM104.499 89.942V85.984H105.166V89.942H104.499Z" fill="#6B6B6B"/>
<path d="M106.228 84.407H106.895V88.919C106.895 89.065 106.934 89.18 107.013 89.264C107.091 89.348 107.201 89.389 107.343 89.389C107.399 89.389 107.465 89.38 107.54 89.363C107.615 89.346 107.686 89.324 107.752 89.299L107.858 89.838C107.747 89.883 107.615 89.921 107.464 89.952C107.312 89.982 107.178 89.997 107.062 89.997C106.804 89.997 106.601 89.924 106.452 89.777C106.303 89.631 106.228 89.426 106.228 89.163V84.407Z" fill="#6B6B6B"/>
<path opacity="0.8" d="M227.417 110.775H76.6929V133.523H227.417V110.775Z" fill="white"/>
<g opacity="0.9">
<path opacity="0.9" d="M227.167 111.025V133.273H76.9429V111.025H227.167ZM227.417 110.775H76.6929V133.523H227.417V110.775Z" fill="white"/>
</g>
<path d="M88.7949 124.538V119.154H91.0399C91.2769 119.154 91.4959 119.203 91.6959 119.302C91.8959 119.401 92.0679 119.532 92.2119 119.696C92.3559 119.861 92.4679 120.045 92.5489 120.25C92.6299 120.455 92.6699 120.663 92.6699 120.876C92.6699 121.099 92.6319 121.314 92.5559 121.521C92.4799 121.729 92.3719 121.913 92.2339 122.075C92.0949 122.237 91.9279 122.365 91.7329 122.462C91.5379 122.558 91.3219 122.606 91.0849 122.606H89.4779V124.54H88.7949V124.538ZM89.4779 121.997H91.0469C91.1889 121.997 91.3169 121.968 91.4299 121.91C91.5439 121.852 91.6409 121.771 91.7219 121.667C91.8029 121.563 91.8659 121.443 91.9119 121.307C91.9569 121.171 91.9799 121.027 91.9799 120.875C91.9799 120.718 91.9539 120.572 91.8999 120.436C91.8469 120.299 91.7759 120.181 91.6879 120.08C91.5999 119.979 91.4959 119.9 91.3769 119.845C91.2579 119.789 91.1329 119.761 91.0019 119.761H89.4779V121.997Z" fill="#6B6B6B"/>
<path d="M94.3757 124.613C94.1787 124.613 93.9967 124.582 93.8297 124.518C93.6627 124.455 93.5187 124.369 93.3977 124.26C93.2757 124.152 93.1817 124.023 93.1137 123.873C93.0457 123.724 93.0107 123.566 93.0107 123.399C93.0107 123.212 93.0507 123.041 93.1317 122.887C93.2127 122.733 93.3277 122.602 93.4767 122.493C93.6257 122.384 93.8027 122.301 94.0077 122.243C94.2127 122.185 94.4357 122.156 94.6787 122.156C94.8707 122.156 95.0657 122.174 95.2627 122.209C95.4597 122.245 95.6347 122.292 95.7857 122.354V122.035C95.7857 121.712 95.6947 121.458 95.5127 121.273C95.3307 121.088 95.0727 120.996 94.7397 120.996C94.3407 120.996 93.9207 121.15 93.4807 121.458L93.2607 121.026C93.5187 120.854 93.7737 120.725 94.0267 120.639C94.2787 120.553 94.5427 120.51 94.8147 120.51C95.3197 120.51 95.7197 120.649 96.0127 120.927C96.3057 121.205 96.4517 121.597 96.4517 122.102V123.717C96.4517 123.874 96.5227 123.955 96.6637 123.96V124.536C96.6127 124.546 96.5647 124.554 96.5197 124.559C96.4747 124.564 96.4317 124.566 96.3907 124.566C96.2797 124.566 96.1707 124.536 96.0647 124.475C95.9587 124.414 95.9007 124.31 95.8907 124.164L95.8757 123.883C95.7847 124.005 95.6807 124.111 95.5647 124.202C95.4487 124.293 95.3247 124.369 95.1937 124.429C95.0627 124.49 94.9267 124.535 94.7887 124.565C94.6497 124.598 94.5127 124.613 94.3757 124.613ZM94.5427 124.113C94.7547 124.113 94.9617 124.068 95.1647 123.977C95.3667 123.886 95.5257 123.775 95.6427 123.644C95.7387 123.533 95.7867 123.429 95.7867 123.333V122.749C95.6297 122.688 95.4647 122.642 95.2897 122.609C95.1157 122.576 94.9477 122.56 94.7857 122.56C94.4417 122.56 94.1657 122.629 93.9587 122.769C93.7507 122.908 93.6477 123.099 93.6477 123.341C93.6477 123.443 93.6687 123.54 93.7087 123.633C93.7487 123.727 93.8067 123.809 93.8827 123.88C93.9587 123.951 94.0517 124.008 94.1627 124.05C94.2747 124.091 94.4007 124.113 94.5427 124.113Z" fill="#6B6B6B"/>
<path d="M98.9328 124.613C98.6148 124.613 98.3008 124.564 97.9928 124.465C97.6838 124.367 97.4188 124.224 97.1968 124.037L97.4848 123.59C97.7168 123.767 97.9498 123.9 98.1828 123.988C98.4158 124.076 98.6608 124.121 98.9178 124.121C99.2068 124.121 99.4348 124.064 99.6048 123.95C99.7738 123.837 99.8588 123.676 99.8588 123.468C99.8588 123.372 99.8358 123.29 99.7908 123.222C99.7458 123.154 99.6768 123.094 99.5858 123.044C99.4948 122.993 99.3788 122.948 99.2368 122.907C99.0948 122.867 98.9308 122.824 98.7438 122.778C98.5058 122.717 98.3018 122.659 98.1298 122.604C97.9578 122.548 97.8168 122.483 97.7058 122.407C97.5948 122.331 97.5138 122.241 97.4628 122.134C97.4118 122.028 97.3868 121.897 97.3868 121.74C97.3868 121.543 97.4258 121.367 97.5048 121.213C97.5838 121.059 97.6908 120.93 97.8268 120.826C97.9638 120.722 98.1238 120.644 98.3078 120.591C98.4928 120.538 98.6908 120.511 98.9028 120.511C99.2008 120.511 99.4798 120.559 99.7368 120.655C99.9948 120.751 100.212 120.878 100.389 121.034L100.086 121.436C99.9188 121.29 99.7318 121.18 99.5248 121.106C99.3178 121.033 99.1048 120.996 98.8878 120.996C98.6448 120.996 98.4388 121.048 98.2698 121.151C98.1008 121.255 98.0158 121.42 98.0158 121.648C98.0158 121.739 98.0328 121.815 98.0648 121.876C98.0978 121.936 98.1518 121.99 98.2278 122.035C98.3038 122.08 98.4008 122.121 98.5198 122.157C98.6388 122.192 98.7818 122.23 98.9488 122.271C99.2118 122.332 99.4398 122.394 99.6348 122.457C99.8288 122.521 99.9908 122.595 100.12 122.681C100.249 122.767 100.345 122.868 100.408 122.984C100.471 123.101 100.503 123.242 100.503 123.409C100.503 123.778 100.361 124.072 100.078 124.289C99.7948 124.505 99.4138 124.613 98.9328 124.613Z" fill="#6B6B6B"/>
<path d="M102.671 124.613C102.353 124.613 102.039 124.564 101.731 124.465C101.422 124.367 101.157 124.224 100.935 124.037L101.223 123.59C101.455 123.767 101.688 123.9 101.921 123.988C102.153 124.076 102.399 124.121 102.656 124.121C102.945 124.121 103.173 124.064 103.343 123.95C103.512 123.837 103.597 123.676 103.597 123.468C103.597 123.372 103.574 123.29 103.529 123.222C103.484 123.154 103.415 123.094 103.325 123.044C103.234 122.993 103.117 122.948 102.976 122.907C102.834 122.867 102.67 122.824 102.483 122.778C102.245 122.717 102.041 122.659 101.869 122.604C101.697 122.548 101.556 122.483 101.445 122.407C101.334 122.331 101.253 122.241 101.202 122.134C101.151 122.028 101.126 121.897 101.126 121.74C101.126 121.543 101.166 121.367 101.244 121.213C101.323 121.059 101.43 120.93 101.566 120.826C101.703 120.722 101.863 120.644 102.047 120.591C102.232 120.538 102.43 120.511 102.642 120.511C102.94 120.511 103.219 120.559 103.476 120.655C103.734 120.751 103.951 120.878 104.128 121.034L103.825 121.436C103.658 121.29 103.471 121.18 103.264 121.106C103.056 121.033 102.844 120.996 102.627 120.996C102.384 120.996 102.178 121.048 102.009 121.151C101.84 121.255 101.755 121.42 101.755 121.648C101.755 121.739 101.772 121.815 101.804 121.876C101.837 121.936 101.891 121.99 101.967 122.035C102.043 122.08 102.14 122.121 102.259 122.157C102.378 122.192 102.521 122.23 102.688 122.271C102.951 122.332 103.179 122.394 103.374 122.457C103.568 122.521 103.73 122.595 103.859 122.681C103.988 122.767 104.084 122.868 104.147 122.984C104.21 123.101 104.242 123.242 104.242 123.409C104.242 123.778 104.1 124.072 103.817 124.289C103.534 124.505 103.152 124.613 102.671 124.613Z" fill="#6B6B6B"/>
<path d="M109.906 120.58H110.551L108.867 124.538H108.314L107.518 122.604L106.729 124.538H106.175L104.492 120.58H105.129L106.494 123.878L107.161 122.233L106.479 120.587H107.032L107.517 121.854L108.002 120.587H108.556L107.881 122.233L108.548 123.878L109.906 120.58Z" fill="#6B6B6B"/>
<path d="M112.756 124.613C112.458 124.613 112.186 124.557 111.941 124.446C111.696 124.335 111.486 124.186 111.312 123.998C111.138 123.812 111.002 123.594 110.906 123.346C110.81 123.098 110.762 122.838 110.762 122.565C110.762 122.287 110.811 122.025 110.91 121.776C111.009 121.529 111.145 121.311 111.319 121.124C111.494 120.937 111.703 120.787 111.948 120.677C112.193 120.566 112.463 120.51 112.756 120.51C113.049 120.51 113.32 120.566 113.568 120.677C113.816 120.788 114.027 120.937 114.201 121.124C114.375 121.311 114.512 121.528 114.61 121.776C114.709 122.024 114.758 122.287 114.758 122.565C114.758 122.838 114.71 123.099 114.614 123.346C114.518 123.594 114.382 123.811 114.204 123.998C114.027 124.186 113.816 124.334 113.571 124.446C113.326 124.558 113.055 124.613 112.756 124.613ZM111.445 122.574C111.445 122.782 111.479 122.973 111.547 123.15C111.615 123.327 111.709 123.481 111.828 123.612C111.947 123.744 112.086 123.847 112.245 123.923C112.404 123.999 112.575 124.037 112.757 124.037C112.939 124.037 113.11 123.999 113.269 123.923C113.428 123.847 113.568 123.742 113.689 123.609C113.811 123.475 113.905 123.318 113.974 123.139C114.042 122.959 114.076 122.766 114.076 122.559C114.076 122.357 114.042 122.166 113.974 121.986C113.906 121.807 113.811 121.65 113.689 121.516C113.568 121.382 113.428 121.277 113.269 121.201C113.109 121.125 112.939 121.087 112.757 121.087C112.575 121.087 112.404 121.126 112.245 121.205C112.086 121.283 111.947 121.39 111.828 121.523C111.709 121.657 111.616 121.814 111.547 121.993C111.479 122.173 111.445 122.366 111.445 122.574Z" fill="#6B6B6B"/>
<path d="M117.64 121.163C117.306 121.173 117.011 121.259 116.756 121.421C116.501 121.583 116.32 121.808 116.214 122.096V124.537H115.547V120.579H116.169V121.496C116.305 121.223 116.485 120.997 116.707 120.817C116.929 120.637 117.167 120.548 117.419 120.548C117.47 120.548 117.513 120.548 117.548 120.548C117.584 120.548 117.614 120.55 117.639 120.555V121.163H117.64Z" fill="#6B6B6B"/>
<path d="M119.778 124.613C119.505 124.613 119.252 124.557 119.02 124.446C118.788 124.335 118.588 124.186 118.421 123.998C118.254 123.812 118.124 123.594 118.03 123.346C117.937 123.098 117.89 122.838 117.89 122.565C117.89 122.287 117.934 122.023 118.023 121.773C118.111 121.523 118.235 121.304 118.395 121.117C118.554 120.93 118.744 120.782 118.963 120.674C119.183 120.565 119.424 120.511 119.688 120.511C120.006 120.511 120.291 120.594 120.541 120.761C120.791 120.928 120.989 121.13 121.136 121.368V119.002H121.803V123.718C121.803 123.875 121.874 123.956 122.015 123.961V124.537C121.959 124.547 121.91 124.555 121.867 124.56C121.824 124.565 121.785 124.567 121.75 124.567C121.598 124.567 121.477 124.528 121.386 124.449C121.295 124.371 121.247 124.276 121.242 124.165L121.227 123.793C121.07 124.051 120.862 124.252 120.601 124.396C120.34 124.542 120.066 124.613 119.778 124.613ZM119.937 124.037C120.058 124.037 120.184 124.014 120.312 123.969C120.441 123.924 120.562 123.861 120.676 123.78C120.79 123.699 120.888 123.604 120.972 123.496C121.056 123.387 121.11 123.272 121.135 123.151V122.014C121.089 121.888 121.021 121.767 120.93 121.654C120.839 121.54 120.737 121.442 120.623 121.358C120.509 121.275 120.388 121.209 120.259 121.161C120.13 121.113 120.002 121.089 119.876 121.089C119.679 121.089 119.5 121.131 119.341 121.214C119.182 121.297 119.045 121.409 118.931 121.548C118.817 121.687 118.73 121.846 118.67 122.025C118.609 122.205 118.579 122.388 118.579 122.575C118.579 122.772 118.615 122.96 118.686 123.14C118.757 123.319 118.852 123.475 118.974 123.606C119.095 123.737 119.238 123.842 119.402 123.92C119.567 123.998 119.745 124.037 119.937 124.037Z" fill="#6B6B6B"/>
<path d="M63.7119 86.769C64.4019 86.4 64.8789 85.681 64.8789 84.845C64.8789 83.635 63.8979 82.655 62.6889 82.655C61.4789 82.655 60.4989 83.634 60.4989 84.845C60.4989 85.681 60.9759 86.4 61.6649 86.769C60.2819 87.207 59.2729 88.505 59.2729 90.027V91.749H66.1049V90.027C66.1049 88.505 65.0959 87.206 63.7119 86.769Z" fill="#262626"/>
<path d="M65.9252 119.011H65.3002V118.229C65.3002 116.789 64.1262 115.616 62.6852 115.616C61.2442 115.616 60.0722 116.789 60.0722 118.229V119.011H59.4452C58.9562 119.011 58.5552 119.412 58.5552 119.901V124.987C58.5552 125.484 58.9562 125.885 59.4452 125.885H65.9242C66.4212 125.885 66.8232 125.485 66.8232 124.987V119.9C66.8242 119.412 66.4222 119.011 65.9252 119.011ZM61.2542 118.229C61.2542 117.44 61.8962 116.796 62.6862 116.796C63.4762 116.796 64.1182 117.44 64.1182 118.229V119.011H61.2552V118.229H61.2542ZM63.1692 123.53V124.829C63.1692 124.885 63.1232 124.924 63.0672 124.924H62.4442C62.3972 124.924 62.3502 124.885 62.3502 124.829V123.53C61.9252 123.364 61.6182 122.955 61.6182 122.466C61.6182 121.838 62.1302 121.326 62.7602 121.326C63.3892 121.326 63.9012 121.838 63.9012 122.466C63.9012 122.955 63.5942 123.364 63.1692 123.53Z" fill="#262626"/>
<defs>
<linearGradient id="paint0_linear" x1="148.101" y1="183.011" x2="148.101" y2="2.3132" gradientUnits="userSpaceOnUse">
<stop stop-color="#333333"/>
<stop offset="1" stop-color="white"/>
</linearGradient>
<linearGradient id="paint1_linear" x1="148.101" y1="183.011" x2="148.101" y2="2.3132" gradientUnits="userSpaceOnUse">
<stop stop-color="white"/>
<stop offset="1" stop-color="white"/>
</linearGradient>
<linearGradient id="paint2_linear" x1="144.37" y1="115.011" x2="144.37" y2="-123.258" gradientUnits="userSpaceOnUse">
<stop stop-color="#333333"/>
<stop offset="1" stop-color="white"/>
</linearGradient>
<linearGradient id="paint3_linear" x1="144.37" y1="115.011" x2="144.37" y2="-123.258" gradientUnits="userSpaceOnUse">
<stop stop-color="white"/>
<stop offset="1" stop-color="white"/>
</linearGradient>
</defs>
</svg>
