<svg width="310" height="240" viewBox="0 0 310 240" fill="none" xmlns="http://www.w3.org/2000/svg">
<rect width="310" height="240" fill="#1D8C00"/>
<path d="M105.802 118.419C104.636 114.289 99.2686 114.69 99.2686 114.69L99.4158 117.562C102.519 117.027 104.447 120.663 104.447 120.663L105.802 118.419Z" fill="#E0E0E0"/>
<path d="M184.618 70.7383C190.844 72.6245 194.718 65.4439 194.718 65.4439L190.93 63.2853C189.078 67.6841 182.859 67.1752 182.859 67.1752L184.618 70.7383Z" fill="#E0E0E0"/>
<path d="M236.302 109.285C235.097 105.851 230.576 106.474 230.576 106.474L230.852 108.897C233.45 108.28 235.274 111.256 235.274 111.256L236.302 109.285Z" fill="#E0E0E0"/>
<path d="M164.889 28.855C163.684 25.4215 159.163 26.0441 159.163 26.0441L159.439 28.4669C162.037 27.8506 163.86 30.8259 163.86 30.8259L164.889 28.855Z" fill="#E0E0E0"/>
<path d="M110.944 72.7913C109.74 69.3577 105.219 69.9797 105.219 69.9797L105.495 72.4025C108.092 71.7856 109.916 74.7615 109.916 74.7615L110.944 72.7913Z" fill="#EBEBEB"/>
<path d="M99.6108 40.6915C96.0199 41.2806 95.8467 45.8412 95.8467 45.8412L98.2809 45.9904C98.1254 43.3255 101.372 42.0467 101.372 42.0467L99.6108 40.6915Z" fill="#EBEBEB"/>
<path d="M73.7591 147.507C79.9853 149.393 83.8588 142.211 83.8588 142.211L80.0706 140.053C78.2186 144.452 72 143.943 72 143.943L73.7591 147.507Z" fill="#EBEBEB"/>
<path d="M251.13 71.1353C251.551 68.2523 248.112 67.014 248.112 67.014L247.408 68.8357C249.48 69.3635 249.669 72.1517 249.669 72.1517L251.13 71.1353Z" fill="#E0E0E0"/>
<path d="M230.431 39.4692C228.003 41.0804 229.378 44.4672 229.378 44.4672L231.204 43.7751C230.213 41.8807 232.163 39.8788 232.163 39.8788L230.431 39.4692Z" fill="#EBEBEB"/>
<path d="M232.304 87.7366H78.165V208.401H232.304V87.7366Z" fill="#FAFAFA"/>
<path d="M232.304 208.401C232.303 207.268 232.25 160.53 232.168 87.7365L232.304 87.8724C188.379 87.8806 135.313 87.8901 78.1776 87.9009H78.1643L78.3287 87.7365C78.3224 131.249 78.3167 172.396 78.3116 208.401L78.1637 208.253C169.669 208.341 231.008 208.4 232.304 208.401C231.008 208.402 169.669 208.461 78.165 208.549H78.0171V208.401C78.012 172.396 78.0063 131.249 78 87.7365V87.5715H78.165H78.1783C135.313 87.5823 188.38 87.5918 232.304 87.6H232.441V87.7365C232.359 160.53 232.305 207.269 232.304 208.401Z" fill="#263238"/>
<path d="M178.146 191.975H132.323C127.072 191.975 122.815 187.719 122.815 182.468C122.815 177.217 127.072 172.961 132.323 172.961H178.146C183.397 172.961 187.653 177.217 187.653 182.468C187.653 187.719 183.397 191.975 178.146 191.975Z" fill="#1D8C00"/>
<path d="M133.952 179.024L135.062 182.486L136.17 179.024H137.749V184H136.546V182.838L136.662 180.459L135.459 184H134.666L133.459 180.456L133.576 182.838V184H132.376V179.024H133.952ZM142.729 181.614C142.729 182.1 142.639 182.529 142.459 182.903C142.279 183.277 142.023 183.565 141.69 183.768C141.36 183.968 140.982 184.068 140.559 184.068C140.135 184.068 139.759 183.972 139.431 183.778C139.103 183.582 138.846 183.303 138.662 182.94C138.479 182.578 138.384 182.162 138.375 181.693V181.413C138.375 180.925 138.463 180.496 138.641 180.124C138.821 179.75 139.077 179.462 139.41 179.259C139.745 179.057 140.126 178.955 140.552 178.955C140.973 178.955 141.349 179.055 141.68 179.256C142.01 179.456 142.266 179.742 142.449 180.114C142.633 180.483 142.727 180.907 142.729 181.385V181.614ZM141.509 181.406C141.509 180.911 141.426 180.537 141.259 180.281C141.095 180.024 140.859 179.895 140.552 179.895C139.95 179.895 139.632 180.346 139.598 181.249L139.595 181.614C139.595 182.102 139.676 182.477 139.837 182.739C139.999 183.001 140.24 183.132 140.559 183.132C140.862 183.132 141.095 183.003 141.259 182.746C141.423 182.488 141.507 182.118 141.509 181.635V181.406ZM146.267 179.024H147.466V184H146.267V180.862L144.479 184H143.279V179.024H144.479V182.165L146.267 179.024ZM152.368 180.404C152.368 180.247 152.306 180.121 152.183 180.025C152.062 179.929 151.898 179.881 151.691 179.881C151.497 179.881 151.341 179.928 151.223 180.022C151.106 180.113 151.048 180.233 151.048 180.384H149.852C149.852 180.11 149.93 179.865 150.084 179.649C150.242 179.433 150.463 179.264 150.748 179.143C151.032 179.02 151.347 178.959 151.691 178.959C152.283 178.959 152.744 179.083 153.072 179.331C153.402 179.579 153.567 179.927 153.567 180.374C153.567 180.601 153.5 180.81 153.366 180.999C153.234 181.186 153.05 181.334 152.815 181.443C153.084 181.539 153.289 181.685 153.431 181.881C153.574 182.075 153.646 182.316 153.646 182.606C153.646 183.052 153.468 183.408 153.113 183.672C152.757 183.934 152.283 184.065 151.691 184.065C151.142 184.065 150.686 183.936 150.324 183.679C149.961 183.419 149.78 183.066 149.78 182.619H150.983C150.983 182.767 151.049 182.893 151.182 182.995C151.314 183.095 151.484 183.146 151.691 183.146C151.914 183.146 152.095 183.093 152.234 182.988C152.373 182.884 152.443 182.747 152.443 182.578C152.443 182.332 152.384 182.159 152.265 182.059C152.147 181.956 151.973 181.905 151.746 181.905H151.106V181.016H151.787C152.174 181.005 152.368 180.801 152.368 180.404ZM157.18 183.07H155.536L155.249 184H153.967L155.792 179.024H156.92L158.759 184H157.471L157.18 183.07ZM155.823 182.144H156.893L156.356 180.418L155.823 182.144ZM160.885 182.031H160.318V184H159.118V179.024H160.318V180.948H160.779L161.736 179.024H163.189L161.822 181.32L163.36 184H161.941L160.885 182.031ZM166.484 183.07H164.84L164.553 184H163.271L165.096 179.024H166.224L168.063 184H166.774L166.484 183.07ZM165.127 182.144H166.197L165.66 180.418L165.127 182.144ZM170.852 180.404C170.852 180.247 170.791 180.121 170.667 180.025C170.547 179.929 170.383 179.881 170.175 179.881C169.982 179.881 169.826 179.928 169.707 180.022C169.591 180.113 169.533 180.233 169.533 180.384H168.336C168.336 180.11 168.414 179.865 168.569 179.649C168.726 179.433 168.947 179.264 169.232 179.143C169.517 179.02 169.831 178.959 170.175 178.959C170.768 178.959 171.228 179.083 171.556 179.331C171.887 179.579 172.052 179.927 172.052 180.374C172.052 180.601 171.985 180.81 171.85 180.999C171.718 181.186 171.535 181.334 171.3 181.443C171.569 181.539 171.774 181.685 171.915 181.881C172.059 182.075 172.13 182.316 172.13 182.606C172.13 183.052 171.953 183.408 171.597 183.672C171.242 183.934 170.768 184.065 170.175 184.065C169.626 184.065 169.17 183.936 168.808 183.679C168.446 183.419 168.265 183.066 168.265 182.619H169.468C169.468 182.767 169.534 182.893 169.666 182.995C169.798 183.095 169.968 183.146 170.175 183.146C170.399 183.146 170.58 183.093 170.719 182.988C170.858 182.884 170.927 182.747 170.927 182.578C170.927 182.332 170.868 182.159 170.75 182.059C170.631 181.956 170.458 181.905 170.23 181.905H169.591V181.016H170.271C170.658 181.005 170.852 180.801 170.852 180.404ZM174.038 180.736H174.656C175.05 180.736 175.399 180.803 175.702 180.938C176.005 181.072 176.238 181.262 176.399 181.508C176.563 181.752 176.646 182.032 176.646 182.349C176.646 182.839 176.463 183.237 176.099 183.542C175.736 183.847 175.249 184 174.636 184H172.834V179.024H174.038V180.736ZM178.204 184H177.008V179.024H178.204V184ZM174.038 181.659V183.077H174.653C174.897 183.077 175.089 183.009 175.23 182.872C175.374 182.735 175.446 182.559 175.446 182.342C175.446 182.137 175.375 181.972 175.234 181.847C175.093 181.721 174.897 181.659 174.646 181.659H174.038Z" fill="black"/>
<path d="M156.511 133.974C149.755 133.974 144.26 128.478 144.26 121.722C144.26 114.967 149.756 109.471 156.511 109.471C163.266 109.471 168.762 114.967 168.762 121.722C168.762 128.478 163.266 133.974 156.511 133.974ZM156.511 110.735C150.452 110.735 145.524 115.664 145.524 121.722C145.524 127.781 150.453 132.709 156.511 132.709C162.569 132.709 167.498 127.781 167.498 121.722C167.498 115.664 162.569 110.735 156.511 110.735Z" fill="#1D8C00"/>
<path d="M155.623 125.498C155.473 125.498 155.325 125.446 155.205 125.341C154.133 124.398 152.3 122.763 152.065 122.41C151.872 122.12 151.95 121.727 152.24 121.534C152.527 121.341 152.913 121.417 153.11 121.699C153.281 121.913 154.442 122.976 155.607 124.009L161.81 118.121C162.062 117.881 162.463 117.89 162.704 118.144C162.944 118.397 162.934 118.798 162.681 119.038L156.057 125.325C155.936 125.44 155.779 125.498 155.623 125.498Z" fill="#1D8C00"/>
<path d="M232.304 99.5246C232.304 99.6156 197.883 99.6889 155.432 99.6889C112.966 99.6889 78.5518 99.615 78.5518 99.5246C78.5518 99.4342 112.966 99.3603 155.432 99.3603C197.883 99.3596 232.304 99.4336 232.304 99.5246Z" fill="#263238"/>
<path d="M83.62 94.3589C84.114 94.3589 84.5144 93.9585 84.5144 93.4645C84.5144 92.9705 84.114 92.5701 83.62 92.5701C83.126 92.5701 82.7256 92.9705 82.7256 93.4645C82.7256 93.9585 83.126 94.3589 83.62 94.3589Z" fill="#263238"/>
<path d="M86.9579 94.359C87.4519 94.359 87.8523 93.9585 87.8523 93.4645C87.8523 92.9706 87.4519 92.5701 86.9579 92.5701C86.4639 92.5701 86.0635 92.9706 86.0635 93.4645C86.0635 93.9585 86.4639 94.359 86.9579 94.359Z" fill="#263238"/>
<path d="M91.1384 93.4645C91.1384 93.9588 90.7377 94.359 90.244 94.359C89.7497 94.359 89.3496 93.9582 89.3496 93.4645C89.3496 92.9702 89.7504 92.5701 90.244 92.5701C90.7383 92.5695 91.1384 92.9702 91.1384 93.4645Z" fill="#263238"/>
<path d="M232.669 177.085C234.267 179.087 237.074 178.214 238.314 176.853C239.555 175.492 239.997 173.604 240.395 171.805C241.302 167.695 242.207 163.387 241.084 159.33C240.749 158.117 240.212 156.921 239.291 156.064C238.37 155.206 237.008 154.748 235.814 155.144C234.401 155.615 233.596 157.078 233.035 158.457C231.385 162.512 230.655 166.938 230.916 171.308C231.037 173.349 231.412 175.473 232.669 177.085Z" fill="#77BA66"/>
<g opacity="0.2">
<g opacity="0.2">
<path opacity="0.2" d="M232.669 177.085C234.267 179.087 237.074 178.214 238.314 176.853C239.555 175.492 239.997 173.604 240.395 171.805C241.302 167.695 242.207 163.387 241.084 159.33C240.749 158.117 240.212 156.921 239.291 156.064C238.37 155.206 237.008 154.748 235.814 155.144C234.401 155.615 233.596 157.078 233.035 158.457C231.385 162.512 230.655 166.938 230.916 171.308C231.037 173.349 231.412 175.473 232.669 177.085Z" fill="black"/>
</g>
</g>
<path d="M238.831 187.345C241.151 185.957 243.965 185.618 246.654 185.891C248.099 186.037 249.618 186.371 250.659 187.384C251.699 188.398 252.003 190.276 250.944 191.27C250.313 191.862 249.391 192.003 248.527 192.047C246.441 192.154 244.106 191.933 242.52 193.291C241.615 194.066 241.057 195.296 239.944 195.719C238.854 196.133 237.56 195.556 236.907 194.59C236.255 193.625 236.156 192.372 236.359 191.224C236.359 191.226 236.494 188.743 238.831 187.345Z" fill="#77BA66"/>
<path d="M228.831 180.344C230.305 178.354 230.433 175.579 229.576 173.257C228.719 170.934 226.991 169.021 225.043 167.493C222.76 165.702 220.123 164.362 217.33 163.573C216.231 163.262 215.077 163.036 213.949 163.215C212.821 163.395 211.715 164.047 211.249 165.09C210.56 166.632 211.425 168.396 212.329 169.822C213.923 172.334 215.715 174.721 217.683 176.954C219.265 178.749 221.06 180.506 223.345 181.218C225.63 181.931 227.942 181.685 229.027 180.063" fill="#77BA66"/>
<path d="M234.558 208.684C234.586 208.684 234.609 208.342 234.631 207.724C234.655 207.027 234.685 206.151 234.72 205.11C234.772 204.01 234.85 202.7 235.064 201.264C235.278 199.832 235.655 198.272 236.166 196.681C236.699 195.097 237.379 193.647 238.206 192.468C239.026 191.285 240.012 190.404 240.957 189.872C241.898 189.331 242.756 189.082 243.353 188.957C243.956 188.857 244.294 188.787 244.292 188.761C244.29 188.733 243.949 188.75 243.327 188.807C242.711 188.887 241.814 189.101 240.82 189.63C239.822 190.151 238.774 191.048 237.911 192.257C237.04 193.462 236.334 194.946 235.792 196.558C235.272 198.176 234.903 199.752 234.705 201.214C234.507 202.672 234.458 203.995 234.441 205.103C234.428 206.211 234.453 207.106 234.477 207.724C234.502 208.342 234.531 208.684 234.558 208.684Z" fill="#263238"/>
<path d="M234.611 206.674C234.625 206.673 234.624 206.52 234.609 206.231C234.587 205.899 234.56 205.481 234.526 204.969C234.454 203.873 234.355 202.287 234.29 200.325C234.141 196.402 234.138 190.975 234.416 184.992C234.697 179.006 235.23 173.605 235.781 169.718C235.909 168.745 236.043 167.868 236.173 167.099C236.294 166.329 236.398 165.665 236.504 165.126C236.592 164.62 236.665 164.208 236.722 163.88C236.768 163.595 236.785 163.443 236.772 163.44C236.759 163.437 236.715 163.583 236.644 163.863C236.568 164.187 236.472 164.595 236.354 165.097C236.224 165.631 236.098 166.293 235.956 167.061C235.805 167.829 235.651 168.705 235.507 169.677C234.883 173.563 234.305 178.975 234.022 184.973C233.744 190.969 233.792 196.409 234.013 200.337C234.113 202.302 234.255 203.888 234.374 204.982C234.438 205.493 234.489 205.909 234.531 206.239C234.57 206.525 234.598 206.675 234.611 206.674Z" fill="#263238"/>
<path d="M233.98 196.215C234.007 196.213 233.973 195.744 233.887 194.896C233.786 194.052 233.592 192.834 233.259 191.349C232.911 189.867 232.446 188.112 231.769 186.215C231.118 184.309 230.26 182.262 229.204 180.191C227.128 176.02 224.454 172.672 222.183 170.637C221.646 170.092 221.062 169.712 220.591 169.333C220.347 169.152 220.131 168.971 219.914 168.829C219.696 168.699 219.493 168.577 219.304 168.464C218.572 168.028 218.162 167.799 218.149 167.823C218.091 167.913 219.789 168.773 221.993 170.841C224.189 172.906 226.793 176.234 228.852 180.37C229.9 182.423 230.761 184.45 231.426 186.336C232.118 188.213 232.607 189.949 232.987 191.414C233.353 192.882 233.587 194.085 233.735 194.919C233.867 195.755 233.953 196.218 233.98 196.215Z" fill="#263238"/>
<path d="M218.866 125.614C217.7 121.483 212.333 121.884 212.333 121.884L212.48 124.756C215.583 124.221 217.512 127.857 217.512 127.857L218.866 125.614Z" fill="#92C885"/>
<path d="M166.054 77.5653C163.157 77.8725 162.811 81.5108 162.811 81.5108L164.75 81.7409C164.747 79.6032 167.401 78.729 167.401 78.729L166.054 77.5653Z" fill="#92C885"/>
<path d="M193.034 39.022C194.802 43.5257 200.779 42.4783 200.779 42.4783L200.294 39.2723C196.872 40.2179 194.305 36.3533 194.305 36.3533L193.034 39.022Z" fill="#92C885"/>
<path d="M125.631 115.103C122.733 115.41 122.387 119.049 122.387 119.049L124.326 119.279C124.323 117.141 126.978 116.267 126.978 116.267L125.631 115.103Z" fill="#92C885"/>
<path d="M137.57 53.413C137.991 50.5294 134.553 49.2917 134.553 49.2917L133.849 51.1135C135.921 51.6413 136.109 54.4294 136.109 54.4294L137.57 53.413Z" fill="#92C885"/>
<path d="M88.032 97.6658C87.5118 102.187 93.5003 103.281 93.5003 103.281L94.5812 100.323C90.9883 99.9983 90.4694 95.7658 90.4694 95.7658L88.032 97.6658Z" fill="#92C885"/>
<path d="M230.366 75.8504C233.275 76.0166 234.206 72.4825 234.206 72.4825L232.33 71.9415C231.987 74.0514 229.226 74.4844 229.226 74.4844L230.366 75.8504Z" fill="#92C885"/>
<path d="M93.9902 148V139.469H96.7793C97.7051 139.469 98.4004 139.66 98.8652 140.043C99.334 140.426 99.5684 140.992 99.5684 141.742C99.5684 142.141 99.4551 142.494 99.2285 142.803C99.002 143.107 98.6934 143.344 98.3027 143.512C98.7637 143.641 99.127 143.887 99.3926 144.25C99.6621 144.609 99.7969 145.039 99.7969 145.539C99.7969 146.305 99.5488 146.906 99.0527 147.344C98.5566 147.781 97.8555 148 96.9492 148H93.9902ZM95.1152 144.01V147.08H96.9727C97.4961 147.08 97.9082 146.945 98.209 146.676C98.5137 146.402 98.666 146.027 98.666 145.551C98.666 144.523 98.1074 144.01 96.9902 144.01H95.1152ZM95.1152 143.107H96.8145C97.3066 143.107 97.6992 142.984 97.9922 142.738C98.2891 142.492 98.4375 142.158 98.4375 141.736C98.4375 141.268 98.3008 140.928 98.0273 140.717C97.7539 140.502 97.3379 140.395 96.7793 140.395H95.1152V143.107ZM105.211 148C105.148 147.875 105.098 147.652 105.059 147.332C104.555 147.855 103.953 148.117 103.254 148.117C102.629 148.117 102.115 147.941 101.713 147.59C101.314 147.234 101.115 146.785 101.115 146.242C101.115 145.582 101.365 145.07 101.865 144.707C102.369 144.34 103.076 144.156 103.986 144.156H105.041V143.658C105.041 143.279 104.928 142.979 104.701 142.756C104.475 142.529 104.141 142.416 103.699 142.416C103.312 142.416 102.988 142.514 102.727 142.709C102.465 142.904 102.334 143.141 102.334 143.418H101.244C101.244 143.102 101.355 142.797 101.578 142.504C101.805 142.207 102.109 141.973 102.492 141.801C102.879 141.629 103.303 141.543 103.764 141.543C104.494 141.543 105.066 141.727 105.48 142.094C105.895 142.457 106.109 142.959 106.125 143.6V146.518C106.125 147.1 106.199 147.562 106.348 147.906V148H105.211ZM103.412 147.174C103.752 147.174 104.074 147.086 104.379 146.91C104.684 146.734 104.904 146.506 105.041 146.225V144.924H104.191C102.863 144.924 102.199 145.312 102.199 146.09C102.199 146.43 102.312 146.695 102.539 146.887C102.766 147.078 103.057 147.174 103.412 147.174ZM109.008 141.66V147.115H111.328V141.66H112.412V147.115H114.727V141.66H115.816V148H107.918V141.66H109.008ZM123.99 143.395C123.99 143.098 123.877 142.863 123.65 142.691C123.424 142.516 123.113 142.428 122.719 142.428C122.336 142.428 122.016 142.527 121.758 142.727C121.504 142.926 121.377 143.16 121.377 143.43H120.299C120.299 142.879 120.529 142.428 120.99 142.076C121.451 141.725 122.027 141.549 122.719 141.549C123.461 141.549 124.039 141.709 124.453 142.029C124.867 142.346 125.074 142.799 125.074 143.389C125.074 143.674 124.988 143.936 124.816 144.174C124.645 144.412 124.4 144.602 124.084 144.742C124.822 144.992 125.191 145.484 125.191 146.219C125.191 146.801 124.967 147.262 124.518 147.602C124.068 147.941 123.469 148.111 122.719 148.111C121.988 148.111 121.385 147.934 120.908 147.578C120.436 147.219 120.199 146.734 120.199 146.125H121.277C121.277 146.434 121.414 146.699 121.688 146.922C121.965 147.141 122.309 147.25 122.719 147.25C123.133 147.25 123.467 147.154 123.721 146.963C123.975 146.771 124.102 146.523 124.102 146.219C124.102 145.863 123.994 145.609 123.779 145.457C123.568 145.301 123.238 145.223 122.789 145.223H121.705V144.309H122.883C123.621 144.289 123.99 143.984 123.99 143.395ZM130.512 148C130.449 147.875 130.398 147.652 130.359 147.332C129.855 147.855 129.254 148.117 128.555 148.117C127.93 148.117 127.416 147.941 127.014 147.59C126.615 147.234 126.416 146.785 126.416 146.242C126.416 145.582 126.666 145.07 127.166 144.707C127.67 144.34 128.377 144.156 129.287 144.156H130.342V143.658C130.342 143.279 130.229 142.979 130.002 142.756C129.775 142.529 129.441 142.416 129 142.416C128.613 142.416 128.289 142.514 128.027 142.709C127.766 142.904 127.635 143.141 127.635 143.418H126.545C126.545 143.102 126.656 142.797 126.879 142.504C127.105 142.207 127.41 141.973 127.793 141.801C128.18 141.629 128.604 141.543 129.064 141.543C129.795 141.543 130.367 141.727 130.781 142.094C131.195 142.457 131.41 142.959 131.426 143.6V146.518C131.426 147.1 131.5 147.562 131.648 147.906V148H130.512ZM128.713 147.174C129.053 147.174 129.375 147.086 129.68 146.91C129.984 146.734 130.205 146.506 130.342 146.225V144.924H129.492C128.164 144.924 127.5 145.312 127.5 146.09C127.5 146.43 127.613 146.695 127.84 146.887C128.066 147.078 128.357 147.174 128.713 147.174ZM135.1 145.299H134.309V148H133.219V141.66H134.309V144.344H135.018L137.15 141.66H138.463L135.955 144.707L138.674 148H137.297L135.1 145.299ZM143.52 148C143.457 147.875 143.406 147.652 143.367 147.332C142.863 147.855 142.262 148.117 141.562 148.117C140.938 148.117 140.424 147.941 140.021 147.59C139.623 147.234 139.424 146.785 139.424 146.242C139.424 145.582 139.674 145.07 140.174 144.707C140.678 144.34 141.385 144.156 142.295 144.156H143.35V143.658C143.35 143.279 143.236 142.979 143.01 142.756C142.783 142.529 142.449 142.416 142.008 142.416C141.621 142.416 141.297 142.514 141.035 142.709C140.773 142.904 140.643 143.141 140.643 143.418H139.553C139.553 143.102 139.664 142.797 139.887 142.504C140.113 142.207 140.418 141.973 140.801 141.801C141.188 141.629 141.611 141.543 142.072 141.543C142.803 141.543 143.375 141.727 143.789 142.094C144.203 142.457 144.418 142.959 144.434 143.6V146.518C144.434 147.1 144.508 147.562 144.656 147.906V148H143.52ZM141.721 147.174C142.061 147.174 142.383 147.086 142.688 146.91C142.992 146.734 143.213 146.506 143.35 146.225V144.924H142.5C141.172 144.924 140.508 145.312 140.508 146.09C140.508 146.43 140.621 146.695 140.848 146.887C141.074 147.078 141.365 147.174 141.721 147.174ZM149.619 143.395C149.619 143.098 149.506 142.863 149.279 142.691C149.053 142.516 148.742 142.428 148.348 142.428C147.965 142.428 147.645 142.527 147.387 142.727C147.133 142.926 147.006 143.16 147.006 143.43H145.928C145.928 142.879 146.158 142.428 146.619 142.076C147.08 141.725 147.656 141.549 148.348 141.549C149.09 141.549 149.668 141.709 150.082 142.029C150.496 142.346 150.703 142.799 150.703 143.389C150.703 143.674 150.617 143.936 150.445 144.174C150.273 144.412 150.029 144.602 149.713 144.742C150.451 144.992 150.82 145.484 150.82 146.219C150.82 146.801 150.596 147.262 150.146 147.602C149.697 147.941 149.098 148.111 148.348 148.111C147.617 148.111 147.014 147.934 146.537 147.578C146.064 147.219 145.828 146.734 145.828 146.125H146.906C146.906 146.434 147.043 146.699 147.316 146.922C147.594 147.141 147.938 147.25 148.348 147.25C148.762 147.25 149.096 147.154 149.35 146.963C149.604 146.771 149.73 146.523 149.73 146.219C149.73 145.863 149.623 145.609 149.408 145.457C149.197 145.301 148.867 145.223 148.418 145.223H147.334V144.309H148.512C149.25 144.289 149.619 143.984 149.619 143.395ZM154.916 144.771C154.916 144.15 155.037 143.592 155.279 143.096C155.525 142.6 155.865 142.217 156.299 141.947C156.736 141.678 157.234 141.543 157.793 141.543C158.656 141.543 159.354 141.842 159.885 142.439C160.42 143.037 160.688 143.832 160.688 144.824V144.9C160.688 145.518 160.568 146.072 160.33 146.564C160.096 147.053 159.758 147.434 159.316 147.707C158.879 147.98 158.375 148.117 157.805 148.117C156.945 148.117 156.248 147.818 155.713 147.221C155.182 146.623 154.916 145.832 154.916 144.848V144.771ZM156.006 144.9C156.006 145.604 156.168 146.168 156.492 146.594C156.82 147.02 157.258 147.232 157.805 147.232C158.355 147.232 158.793 147.018 159.117 146.588C159.441 146.154 159.604 145.549 159.604 144.771C159.604 144.076 159.438 143.514 159.105 143.084C158.777 142.65 158.34 142.434 157.793 142.434C157.258 142.434 156.826 142.646 156.498 143.072C156.17 143.498 156.006 144.107 156.006 144.9ZM161.812 144.947C161.812 143.889 162.018 143.057 162.428 142.451C162.838 141.846 163.4 141.543 164.115 141.543C164.447 141.543 164.738 141.6 164.988 141.713V139H166.072V141.748C166.346 141.611 166.666 141.543 167.033 141.543C167.752 141.543 168.316 141.846 168.727 142.451C169.137 143.057 169.342 143.93 169.342 145.07C169.342 146.004 169.137 146.746 168.727 147.297C168.32 147.848 167.76 148.123 167.045 148.123C166.666 148.123 166.342 148.061 166.072 147.936V150.438H164.988V147.953C164.73 148.066 164.436 148.123 164.104 148.123C163.393 148.123 162.832 147.848 162.422 147.297C162.016 146.746 161.812 145.992 161.812 145.035V144.947ZM168.258 144.947C168.258 144.15 168.121 143.533 167.848 143.096C167.574 142.654 167.197 142.434 166.717 142.434C166.471 142.434 166.256 142.473 166.072 142.551V147.139C166.248 147.205 166.467 147.238 166.729 147.238C167.213 147.238 167.588 147.051 167.854 146.676C168.123 146.301 168.258 145.725 168.258 144.947ZM162.896 145.07C162.896 145.781 163.023 146.32 163.277 146.688C163.531 147.055 163.896 147.238 164.373 147.238C164.6 147.238 164.805 147.203 164.988 147.133V142.533C164.824 142.467 164.623 142.434 164.385 142.434C163.908 142.434 163.541 142.646 163.283 143.072C163.025 143.498 162.896 144.164 162.896 145.07ZM170.467 144.771C170.467 144.15 170.588 143.592 170.83 143.096C171.076 142.6 171.416 142.217 171.85 141.947C172.287 141.678 172.785 141.543 173.344 141.543C174.207 141.543 174.904 141.842 175.436 142.439C175.971 143.037 176.238 143.832 176.238 144.824V144.9C176.238 145.518 176.119 146.072 175.881 146.564C175.646 147.053 175.309 147.434 174.867 147.707C174.43 147.98 173.926 148.117 173.355 148.117C172.496 148.117 171.799 147.818 171.264 147.221C170.732 146.623 170.467 145.832 170.467 144.848V144.771ZM171.557 144.9C171.557 145.604 171.719 146.168 172.043 146.594C172.371 147.02 172.809 147.232 173.355 147.232C173.906 147.232 174.344 147.018 174.668 146.588C174.992 146.154 175.154 145.549 175.154 144.771C175.154 144.076 174.988 143.514 174.656 143.084C174.328 142.65 173.891 142.434 173.344 142.434C172.809 142.434 172.377 142.646 172.049 143.072C171.721 143.498 171.557 144.107 171.557 144.9ZM182.953 144.9C182.953 145.865 182.732 146.643 182.291 147.232C181.85 147.822 181.252 148.117 180.498 148.117C179.729 148.117 179.123 147.873 178.682 147.385V150.438H177.598V141.66H178.588L178.641 142.363C179.082 141.816 179.695 141.543 180.48 141.543C181.242 141.543 181.844 141.83 182.285 142.404C182.73 142.979 182.953 143.777 182.953 144.801V144.9ZM181.869 144.777C181.869 144.062 181.717 143.498 181.412 143.084C181.107 142.67 180.689 142.463 180.158 142.463C179.502 142.463 179.01 142.754 178.682 143.336V146.365C179.006 146.943 179.502 147.232 180.17 147.232C180.689 147.232 181.102 147.027 181.406 146.617C181.715 146.203 181.869 145.59 181.869 144.777ZM187.986 146.564L190.143 141.66H191.496V148H190.412V143.389L188.361 148H187.611L185.52 143.289V148H184.436V141.66H185.842L187.986 146.564ZM198.439 141.66V148H197.35V142.557H195.193L195.064 144.93C194.994 146.02 194.811 146.799 194.514 147.268C194.221 147.736 193.754 147.98 193.113 148H192.68V147.045L192.99 147.021C193.342 146.982 193.594 146.779 193.746 146.412C193.898 146.045 193.996 145.365 194.039 144.373L194.156 141.66H198.439ZM202.811 148.117C201.951 148.117 201.252 147.836 200.713 147.273C200.174 146.707 199.904 145.951 199.904 145.006V144.807C199.904 144.178 200.023 143.617 200.262 143.125C200.504 142.629 200.84 142.242 201.27 141.965C201.703 141.684 202.172 141.543 202.676 141.543C203.5 141.543 204.141 141.814 204.598 142.357C205.055 142.9 205.283 143.678 205.283 144.689V145.141H200.988C201.004 145.766 201.186 146.271 201.533 146.658C201.885 147.041 202.33 147.232 202.869 147.232C203.252 147.232 203.576 147.154 203.842 146.998C204.107 146.842 204.34 146.635 204.539 146.377L205.201 146.893C204.67 147.709 203.873 148.117 202.811 148.117ZM202.676 142.434C202.238 142.434 201.871 142.594 201.574 142.914C201.277 143.23 201.094 143.676 201.023 144.25H204.199V144.168C204.168 143.617 204.02 143.191 203.754 142.891C203.488 142.586 203.129 142.434 202.676 142.434ZM211.723 148H210.639V145.293H207.727V148H206.637V141.66H207.727V144.408H210.639V141.66H211.723V148ZM214.682 145.592H213.703L213.627 139.469H214.764L214.682 145.592ZM213.586 147.455C213.586 147.279 213.639 147.133 213.744 147.016C213.854 146.895 214.014 146.834 214.225 146.834C214.436 146.834 214.596 146.895 214.705 147.016C214.814 147.133 214.869 147.279 214.869 147.455C214.869 147.631 214.814 147.777 214.705 147.895C214.596 148.008 214.436 148.064 214.225 148.064C214.014 148.064 213.854 148.008 213.744 147.895C213.639 147.777 213.586 147.631 213.586 147.455Z" fill="black"/>
<path d="M118.933 159.783C118.851 160.532 118.583 161.105 118.127 161.502C117.674 161.899 117.071 162.098 116.315 162.098C115.788 162.098 115.321 161.966 114.914 161.702C114.51 161.438 114.198 161.066 113.977 160.584C113.755 160.099 113.643 159.546 113.64 158.924V158.001C113.64 157.369 113.75 156.81 113.972 156.321C114.193 155.833 114.51 155.457 114.924 155.193C115.34 154.926 115.819 154.793 116.359 154.793C117.121 154.793 117.722 155 118.161 155.413C118.604 155.823 118.861 156.391 118.933 157.117H118.327C118.177 155.91 117.521 155.306 116.359 155.306C115.715 155.306 115.201 155.547 114.816 156.028C114.436 156.51 114.245 157.176 114.245 158.025V158.895C114.245 159.715 114.431 160.369 114.802 160.857C115.176 161.346 115.681 161.59 116.315 161.59C116.944 161.59 117.417 161.44 117.736 161.141C118.055 160.838 118.252 160.385 118.327 159.783H118.933ZM124.313 162H123.728V157.22H120.881V162H120.295V156.717H124.313V162ZM129.216 162C129.157 161.834 129.12 161.588 129.104 161.263C128.898 161.53 128.636 161.736 128.317 161.883C128.002 162.026 127.666 162.098 127.312 162.098C126.804 162.098 126.392 161.956 126.076 161.673C125.764 161.39 125.607 161.032 125.607 160.599C125.607 160.084 125.821 159.677 126.247 159.378C126.677 159.078 127.274 158.929 128.039 158.929H129.099V158.328C129.099 157.951 128.981 157.654 128.747 157.439C128.516 157.221 128.177 157.112 127.731 157.112C127.325 157.112 126.988 157.216 126.721 157.425C126.454 157.633 126.32 157.884 126.32 158.177L125.734 158.172C125.734 157.752 125.93 157.389 126.32 157.083C126.711 156.774 127.191 156.619 127.761 156.619C128.35 156.619 128.814 156.767 129.152 157.063C129.494 157.356 129.67 157.767 129.68 158.294V160.794C129.68 161.305 129.733 161.688 129.841 161.941V162H129.216ZM127.38 161.58C127.771 161.58 128.119 161.486 128.425 161.297C128.734 161.108 128.959 160.856 129.099 160.54V159.378H128.054C127.471 159.384 127.015 159.492 126.687 159.7C126.358 159.905 126.193 160.188 126.193 160.55C126.193 160.846 126.302 161.092 126.521 161.287C126.742 161.482 127.028 161.58 127.38 161.58ZM133.195 161.604C133.602 161.604 133.942 161.491 134.216 161.263C134.493 161.032 134.642 160.734 134.665 160.369H135.227C135.21 160.691 135.109 160.986 134.924 161.253C134.738 161.517 134.491 161.723 134.182 161.873C133.876 162.023 133.547 162.098 133.195 162.098C132.502 162.098 131.952 161.857 131.545 161.375C131.141 160.893 130.939 160.245 130.939 159.432V159.256C130.939 158.735 131.031 158.274 131.213 157.874C131.395 157.474 131.656 157.164 131.994 156.946C132.336 156.728 132.735 156.619 133.19 156.619C133.77 156.619 134.247 156.792 134.621 157.137C134.999 157.482 135.201 157.936 135.227 158.499H134.665C134.639 158.086 134.489 157.752 134.216 157.498C133.946 157.244 133.604 157.117 133.19 157.117C132.663 157.117 132.253 157.308 131.96 157.688C131.67 158.069 131.525 158.603 131.525 159.29V159.461C131.525 160.135 131.67 160.66 131.96 161.038C132.253 161.416 132.665 161.604 133.195 161.604ZM139.87 156.717H140.456V162H139.87V157.659L137.019 162H136.438V156.717H137.019V161.062L139.87 156.717ZM144.152 157.068C144.823 157.068 145.367 157.288 145.783 157.728C146.2 158.164 146.408 158.743 146.408 159.466V159.593C146.408 160.071 146.312 160.503 146.12 160.887C145.931 161.268 145.658 161.565 145.3 161.78C144.945 161.992 144.536 162.098 144.074 162.098C143.378 162.098 142.813 161.867 142.38 161.404C141.95 160.939 141.735 160.319 141.735 159.544V159.075C141.735 157.981 141.944 157.107 142.36 156.453C142.777 155.799 143.369 155.408 144.138 155.281C144.623 155.203 144.963 155.097 145.158 154.964C145.357 154.83 145.456 154.648 145.456 154.417H145.959C145.959 154.69 145.902 154.917 145.788 155.096C145.674 155.275 145.503 155.42 145.275 155.53C145.048 155.638 144.699 155.729 144.23 155.804C143.693 155.888 143.26 156.118 142.932 156.492C142.606 156.863 142.395 157.361 142.297 157.986C142.505 157.713 142.766 157.492 143.078 157.322C143.394 157.153 143.752 157.068 144.152 157.068ZM142.321 159.471V159.593C142.321 160.188 142.482 160.674 142.805 161.048C143.127 161.419 143.55 161.604 144.074 161.604C144.602 161.604 145.025 161.417 145.344 161.043C145.663 160.665 145.822 160.171 145.822 159.559V159.432C145.822 158.882 145.66 158.432 145.334 158.084C145.012 157.736 144.589 157.562 144.064 157.562C143.54 157.562 143.119 157.739 142.8 158.094C142.481 158.445 142.321 158.904 142.321 159.471ZM147.209 159.28C147.209 158.772 147.307 158.315 147.502 157.908C147.701 157.501 147.979 157.186 148.337 156.961C148.698 156.733 149.107 156.619 149.562 156.619C150.266 156.619 150.835 156.867 151.271 157.361C151.708 157.853 151.926 158.506 151.926 159.319V159.441C151.926 159.952 151.826 160.413 151.628 160.823C151.433 161.23 151.156 161.544 150.798 161.766C150.44 161.987 150.031 162.098 149.572 162.098C148.872 162.098 148.303 161.852 147.863 161.36C147.427 160.866 147.209 160.211 147.209 159.397V159.28ZM147.795 159.441C147.795 160.073 147.958 160.592 148.283 160.999C148.612 161.403 149.042 161.604 149.572 161.604C150.1 161.604 150.526 161.403 150.852 160.999C151.18 160.592 151.345 160.057 151.345 159.393V159.28C151.345 158.877 151.27 158.507 151.12 158.172C150.97 157.837 150.76 157.578 150.49 157.396C150.22 157.21 149.911 157.117 149.562 157.117C149.042 157.117 148.617 157.322 148.288 157.732C147.959 158.139 147.795 158.673 147.795 159.334V159.441ZM158.664 158.113C158.664 157.794 158.545 157.549 158.308 157.376C158.07 157.203 157.743 157.117 157.326 157.117C156.949 157.117 156.625 157.215 156.354 157.41C156.088 157.602 155.954 157.846 155.954 158.143H155.373C155.373 157.703 155.56 157.34 155.935 157.054C156.312 156.767 156.776 156.624 157.326 156.624C157.932 156.624 158.404 156.754 158.742 157.015C159.081 157.275 159.25 157.645 159.25 158.123C159.25 158.377 159.172 158.606 159.016 158.812C158.859 159.017 158.632 159.176 158.332 159.29C159.009 159.476 159.348 159.896 159.348 160.55C159.348 161.025 159.164 161.401 158.796 161.678C158.428 161.954 157.94 162.093 157.331 162.093C156.742 162.093 156.254 161.945 155.866 161.648C155.479 161.352 155.285 160.965 155.285 160.486H155.871C155.871 160.805 156.011 161.072 156.291 161.287C156.574 161.499 156.921 161.604 157.331 161.604C157.777 161.604 158.125 161.512 158.376 161.326C158.63 161.137 158.757 160.882 158.757 160.56C158.757 160.205 158.641 159.949 158.41 159.793C158.179 159.637 157.826 159.559 157.351 159.559H156.545V159.051H157.448C158.259 159.031 158.664 158.719 158.664 158.113ZM163.972 162C163.913 161.834 163.876 161.588 163.859 161.263C163.654 161.53 163.392 161.736 163.073 161.883C162.757 162.026 162.422 162.098 162.067 162.098C161.56 162.098 161.148 161.956 160.832 161.673C160.52 161.39 160.363 161.032 160.363 160.599C160.363 160.084 160.576 159.677 161.003 159.378C161.433 159.078 162.03 158.929 162.795 158.929H163.854V158.328C163.854 157.951 163.737 157.654 163.503 157.439C163.272 157.221 162.933 157.112 162.487 157.112C162.08 157.112 161.743 157.216 161.477 157.425C161.21 157.633 161.076 157.884 161.076 158.177L160.49 158.172C160.49 157.752 160.686 157.389 161.076 157.083C161.467 156.774 161.947 156.619 162.517 156.619C163.106 156.619 163.57 156.767 163.908 157.063C164.25 157.356 164.426 157.767 164.436 158.294V160.794C164.436 161.305 164.489 161.688 164.597 161.941V162H163.972ZM162.136 161.58C162.526 161.58 162.875 161.486 163.181 161.297C163.49 161.108 163.715 160.856 163.854 160.54V159.378H162.81C162.227 159.384 161.771 159.492 161.442 159.7C161.114 159.905 160.949 160.188 160.949 160.55C160.949 160.846 161.058 161.092 161.276 161.287C161.498 161.482 161.784 161.58 162.136 161.58ZM171.525 158.113C171.525 157.794 171.407 157.549 171.169 157.376C170.931 157.203 170.604 157.117 170.188 157.117C169.81 157.117 169.486 157.215 169.216 157.41C168.949 157.602 168.815 157.846 168.815 158.143H168.234C168.234 157.703 168.422 157.34 168.796 157.054C169.174 156.767 169.637 156.624 170.188 156.624C170.793 156.624 171.265 156.754 171.604 157.015C171.942 157.275 172.111 157.645 172.111 158.123C172.111 158.377 172.033 158.606 171.877 158.812C171.721 159.017 171.493 159.176 171.193 159.29C171.87 159.476 172.209 159.896 172.209 160.55C172.209 161.025 172.025 161.401 171.657 161.678C171.289 161.954 170.801 162.093 170.192 162.093C169.603 162.093 169.115 161.945 168.728 161.648C168.34 161.352 168.146 160.965 168.146 160.486H168.732C168.732 160.805 168.872 161.072 169.152 161.287C169.436 161.499 169.782 161.604 170.192 161.604C170.638 161.604 170.987 161.512 171.237 161.326C171.491 161.137 171.618 160.882 171.618 160.56C171.618 160.205 171.503 159.949 171.271 159.793C171.04 159.637 170.687 159.559 170.212 159.559H169.406V159.051H170.31C171.12 159.031 171.525 158.719 171.525 158.113ZM176.833 162C176.774 161.834 176.737 161.588 176.721 161.263C176.516 161.53 176.254 161.736 175.935 161.883C175.619 162.026 175.284 162.098 174.929 162.098C174.421 162.098 174.009 161.956 173.693 161.673C173.381 161.39 173.225 161.032 173.225 160.599C173.225 160.084 173.438 159.677 173.864 159.378C174.294 159.078 174.891 158.929 175.656 158.929H176.716V158.328C176.716 157.951 176.599 157.654 176.364 157.439C176.133 157.221 175.795 157.112 175.349 157.112C174.942 157.112 174.605 157.216 174.338 157.425C174.071 157.633 173.938 157.884 173.938 158.177L173.352 158.172C173.352 157.752 173.547 157.389 173.938 157.083C174.328 156.774 174.808 156.619 175.378 156.619C175.967 156.619 176.431 156.767 176.77 157.063C177.111 157.356 177.287 157.767 177.297 158.294V160.794C177.297 161.305 177.351 161.688 177.458 161.941V162H176.833ZM174.997 161.58C175.388 161.58 175.736 161.486 176.042 161.297C176.351 161.108 176.576 160.856 176.716 160.54V159.378H175.671C175.088 159.384 174.632 159.492 174.304 159.7C173.975 159.905 173.811 160.188 173.811 160.55C173.811 160.846 173.92 161.092 174.138 161.287C174.359 161.482 174.646 161.58 174.997 161.58ZM180.295 159.578H179.484V162H178.894V156.717H179.484V159.061H180.285L182.224 156.717H182.961L180.793 159.28L183.2 162H182.429L180.295 159.578ZM187.38 162C187.321 161.834 187.284 161.588 187.268 161.263C187.062 161.53 186.8 161.736 186.481 161.883C186.166 162.026 185.83 162.098 185.476 162.098C184.968 162.098 184.556 161.956 184.24 161.673C183.928 161.39 183.771 161.032 183.771 160.599C183.771 160.084 183.985 159.677 184.411 159.378C184.841 159.078 185.438 158.929 186.203 158.929H187.263V158.328C187.263 157.951 187.146 157.654 186.911 157.439C186.68 157.221 186.341 157.112 185.896 157.112C185.489 157.112 185.152 157.216 184.885 157.425C184.618 157.633 184.484 157.884 184.484 158.177L183.898 158.172C183.898 157.752 184.094 157.389 184.484 157.083C184.875 156.774 185.355 156.619 185.925 156.619C186.514 156.619 186.978 156.767 187.316 157.063C187.658 157.356 187.834 157.767 187.844 158.294V160.794C187.844 161.305 187.897 161.688 188.005 161.941V162H187.38ZM185.544 161.58C185.935 161.58 186.283 161.486 186.589 161.297C186.898 161.108 187.123 160.856 187.263 160.54V159.378H186.218C185.635 159.384 185.179 159.492 184.851 159.7C184.522 159.905 184.357 160.188 184.357 160.55C184.357 160.846 184.466 161.092 184.685 161.287C184.906 161.482 185.192 161.58 185.544 161.58ZM192.502 158.113C192.502 157.794 192.383 157.549 192.146 157.376C191.908 157.203 191.581 157.117 191.164 157.117C190.786 157.117 190.463 157.215 190.192 157.41C189.925 157.602 189.792 157.846 189.792 158.143H189.211C189.211 157.703 189.398 157.34 189.772 157.054C190.15 156.767 190.614 156.624 191.164 156.624C191.77 156.624 192.242 156.754 192.58 157.015C192.919 157.275 193.088 157.645 193.088 158.123C193.088 158.377 193.01 158.606 192.854 158.812C192.697 159.017 192.469 159.176 192.17 159.29C192.847 159.476 193.186 159.896 193.186 160.55C193.186 161.025 193.002 161.401 192.634 161.678C192.266 161.954 191.778 162.093 191.169 162.093C190.58 162.093 190.091 161.945 189.704 161.648C189.317 161.352 189.123 160.965 189.123 160.486H189.709C189.709 160.805 189.849 161.072 190.129 161.287C190.412 161.499 190.759 161.604 191.169 161.604C191.615 161.604 191.963 161.512 192.214 161.326C192.468 161.137 192.595 160.882 192.595 160.56C192.595 160.205 192.479 159.949 192.248 159.793C192.017 159.637 191.664 159.559 191.188 159.559H190.383V159.051H191.286C192.097 159.031 192.502 158.719 192.502 158.113ZM195.1 160.022H194.558L194.528 154.891H195.134L195.1 160.022ZM194.46 161.658C194.46 161.548 194.496 161.455 194.567 161.38C194.639 161.302 194.737 161.263 194.86 161.263C194.984 161.263 195.082 161.302 195.153 161.38C195.228 161.455 195.266 161.548 195.266 161.658C195.266 161.766 195.228 161.857 195.153 161.932C195.082 162.003 194.984 162.039 194.86 162.039C194.737 162.039 194.639 162.003 194.567 161.932C194.496 161.857 194.46 161.766 194.46 161.658Z" fill="black"/>
</svg>
