<svg width="150" height="23" viewBox="0 0 150 23" fill="none" xmlns="http://www.w3.org/2000/svg">
<path d="M9.96028 16.077C10.1828 16.5988 10.1096 17.2687 9.99761 17.6784C9.81095 18.3856 9.32852 19.1303 7.91567 19.1303C6.57892 19.1303 5.76194 18.3483 5.76194 17.1939V15.1096H0V16.7483C0 21.5481 3.75323 23 7.80511 23C11.6703 23 14.8665 21.6602 15.3862 18.0881C15.6461 16.2265 15.4609 15.0362 15.3489 14.5518C14.4587 10.0481 6.3176 8.70837 5.68584 6.21431C5.57528 5.76869 5.61262 5.32306 5.64851 5.09881C5.79784 4.42894 6.28027 3.64694 7.61845 3.64694C8.88198 3.64694 9.62573 4.42894 9.62573 5.58181V6.923H14.9785V5.39637C14.9785 0.707249 10.7787 0 7.73045 0C3.90256 0 0.816981 1.265 0.222552 4.76388C0.0746622 5.73131 0.0358951 6.58806 0.259883 7.66762C1.22619 12.0204 8.84608 13.2868 9.96028 16.077ZM79.6463 16.0411C79.8689 16.5614 79.7942 17.2313 79.6836 17.6036C79.497 18.3109 79.0145 19.0181 77.6017 19.0181C76.2635 19.0181 75.4839 18.2361 75.4839 17.0818V15.0362H69.798V16.6736C69.798 21.4001 73.5139 22.8505 77.527 22.8505C81.3564 22.8505 84.5152 21.5481 85.0364 17.9759C85.2948 16.1517 85.1082 14.9241 84.9976 14.4771C84.106 10.0107 76.041 8.70838 75.4465 6.21575C75.3345 5.76869 75.3719 5.32162 75.4092 5.09881C75.5585 4.42894 76.0036 3.68431 77.3418 3.68431C78.568 3.68431 79.3118 4.46631 79.3118 5.61919V6.923H84.6257V5.43375C84.6257 0.819375 80.4633 0.0747501 77.4538 0.0747501C73.6992 0.0747501 70.615 1.33975 70.0206 4.80125C69.8713 5.73131 69.8339 6.58806 70.0579 7.66619C71.0242 12.0218 78.568 13.2868 79.6463 16.0411ZM124.134 17.9386L123.837 0.669874H129.15V21.8831H121.495L116.106 4.05662L116.403 21.8831H111.125V0.669874H119.08L124.134 17.9386ZM27.7616 2.23244L24.7894 22.1073H18.9916L22.9315 0.669874H32.4825L36.4224 22.1073H30.6619L27.7616 2.23244ZM59.0567 2.23244L55.3393 22.1087H49.9134L46.2348 2.23244L46.0855 22.1073H40.7342L41.1793 0.669874H49.9134L52.6271 17.4167L55.3408 0.669874H64.0734L64.5573 22.1073H59.2046L59.0567 2.23244ZM97.6343 18.9074C99.1203 18.9074 99.6042 17.8638 99.6788 17.3434C99.7162 17.1192 99.7162 16.7843 99.7162 16.5241V0.632499H105.142V16.0425C105.142 16.4508 105.105 17.2327 105.105 17.4556C104.733 21.4762 101.573 22.7786 97.6343 22.7786C93.6944 22.7786 90.5356 21.4762 90.1637 17.4556C90.1264 17.2327 90.089 16.4508 90.1264 16.0425V0.632499H95.5537V16.5241C95.5537 16.7843 95.5537 17.1192 95.5896 17.3434C95.7016 17.9012 96.1482 18.906 97.6343 18.906V18.9074ZM142.382 18.6832C143.942 18.6832 144.463 17.6769 144.574 17.1192C144.611 16.8604 144.649 16.5614 144.611 16.2998V13.1747H142.419V10.0481H150V15.8168C150 16.2265 150 16.5241 149.927 17.2313C149.555 21.1399 146.172 22.5156 142.382 22.5156C138.591 22.5156 135.208 21.1399 134.838 17.2313C134.763 16.5241 134.763 16.2265 134.763 15.8168V6.7735C134.763 6.40119 134.8 5.73131 134.838 5.359C135.32 1.33975 138.554 0.0747501 142.382 0.0747501C146.172 0.0747501 149.518 1.33975 149.889 5.359C149.964 6.02887 149.927 6.7735 149.927 6.7735V7.48075H144.499V6.28906C144.499 6.28906 144.499 5.76869 144.426 5.46969C144.314 4.98669 143.906 3.90713 142.271 3.90713C140.709 3.90713 140.264 4.94931 140.152 5.47112C140.077 5.76869 140.077 6.141 140.077 6.47594V16.3013C140.077 16.5614 140.077 16.859 140.114 17.1206C140.264 17.7157 140.821 18.6832 142.383 18.6832H142.382Z" fill="#EBF005"/>
</svg>
