<svg width="310" height="240" viewBox="0 0 310 240" fill="none" xmlns="http://www.w3.org/2000/svg">
<rect width="310" height="240" fill="#1D8C00"/>
<path d="M109.126 87H32.8736C31.2866 87 30 85.7058 30 84.109V82.8914C30 81.2945 31.2866 80 32.8736 80H109.126C110.713 80 112 81.2945 112 82.8914V84.109C112 85.7058 110.714 87 109.126 87Z" fill="#77BA66"/>
<path d="M70.031 110.902H32.3759C31.0637 110.902 30 109.838 30 108.526C30 107.214 31.0637 106.151 32.3759 106.151H70.0313C71.3434 106.151 72.4071 107.214 72.4071 108.526C72.4068 109.838 71.3435 110.902 70.031 110.902Z" fill="#92C885"/>
<path d="M98.8649 100.938H32.2108C30.9898 100.938 30 99.9487 30 98.7278V98.3984C30 97.1772 30.9898 96.1875 32.2108 96.1875H98.8646C100.086 96.1875 101.076 97.1772 101.076 98.3984V98.7278C101.076 99.9487 100.086 100.938 98.8649 100.938Z" fill="#92C885"/>
<path d="M171.788 100.938H109.69C108.51 100.938 107.554 99.9815 107.554 98.8013V98.3229C107.554 97.1431 108.51 96.1865 109.69 96.1865H171.788C172.968 96.1865 173.924 97.1431 173.924 98.3229V98.8013C173.924 99.9815 172.968 100.938 171.788 100.938Z" fill="#92C885"/>
<path d="M116.998 110.902H79.3431C78.031 110.902 76.9673 109.838 76.9673 108.526C76.9673 107.214 78.031 106.151 79.3431 106.151H116.998C118.31 106.151 119.374 107.214 119.374 108.526C119.374 109.838 118.31 110.902 116.998 110.902Z" fill="#92C885"/>
<path d="M202.126 87H125.874C124.287 87 123 85.7058 123 84.109V82.8914C123 81.2945 124.287 80 125.874 80H202.126C203.713 80 205 81.2945 205 82.8914V84.109C205 85.7058 203.714 87 202.126 87Z" fill="#77BA66"/>
<path d="M109.126 149H32.8736C31.2866 149 30 147.706 30 146.109V144.891C30 143.295 31.2866 142 32.8736 142H109.126C110.713 142 112 143.295 112 144.891V146.109C112 147.706 110.714 149 109.126 149Z" fill="#77BA66"/>
<path d="M70.031 173.229H32.3759C31.0637 173.229 30 172.166 30 170.854C30 169.542 31.0637 168.478 32.3759 168.478H70.0313C71.3434 168.478 72.4071 169.542 72.4071 170.854C72.4068 172.166 71.3435 173.229 70.031 173.229Z" fill="#92C885"/>
<path d="M98.8649 163.266H32.2108C30.9898 163.266 30 162.276 30 161.055V160.726C30 159.505 30.9898 158.515 32.2108 158.515H98.8646C100.086 158.515 101.076 159.505 101.076 160.726V161.055C101.076 162.276 100.086 163.266 98.8649 163.266Z" fill="#92C885"/>
<path d="M171.788 163.265H109.69C108.51 163.265 107.554 162.309 107.554 161.129V160.651C107.554 159.471 108.51 158.514 109.69 158.514H171.788C172.968 158.514 173.924 159.471 173.924 160.651V161.129C173.924 162.309 172.968 163.265 171.788 163.265Z" fill="#92C885"/>
<path d="M116.998 173.229H79.3431C78.031 173.229 76.9673 172.166 76.9673 170.854C76.9673 169.542 78.031 168.478 79.3431 168.478H116.998C118.31 168.478 119.374 169.542 119.374 170.854C119.374 172.166 118.31 173.229 116.998 173.229Z" fill="#92C885"/>
<path d="M202.126 149H125.874C124.287 149 123 147.706 123 146.109V144.891C123 143.295 124.287 142 125.874 142H202.126C203.713 142 205 143.295 205 144.891V146.109C205 147.706 203.714 149 202.126 149Z" fill="#77BA66"/>
<path d="M280 30H30V60H280V30Z" fill="#92C885"/>
<path fill-rule="evenodd" clip-rule="evenodd" d="M41.644 40.3299C42.2722 39.7017 43.0726 39.274 43.944 39.1007C44.8153 38.9274 45.7185 39.0164 46.5392 39.3564C47.36 39.6964 48.0615 40.2721 48.5551 41.0108C49.0487 41.7495 49.3121 42.618 49.3121 43.5064C49.3121 44.3948 49.0487 45.2633 48.5551 46.002C48.0615 46.7407 47.36 47.3164 46.5392 47.6564C45.7185 47.9964 44.8153 48.0854 43.944 47.9121C43.0726 47.7388 42.2722 47.3111 41.644 46.6829C41.2268 46.2658 40.8959 45.7706 40.6701 45.2255C40.4443 44.6805 40.3281 44.0963 40.3281 43.5064C40.3281 42.9165 40.4443 42.3323 40.6701 41.7873C40.8959 41.2423 41.2268 40.747 41.644 40.3299ZM48.57 45.7719L52.461 49.6629C53.013 50.2149 52.623 50.6629 52.278 51.0089C51.933 51.3549 51.51 51.7179 50.958 51.1659L47.067 47.2749L48.57 45.7719ZM42.723 41.3909C43.135 40.9789 43.6599 40.6982 44.2314 40.5845C44.8028 40.4708 45.3952 40.5292 45.9335 40.7521C46.4719 40.9751 46.932 41.3527 47.2557 41.8372C47.5795 42.3216 47.7522 42.8912 47.7522 43.4739C47.7522 44.0566 47.5795 44.6262 47.2557 45.1107C46.932 45.5951 46.4719 45.9727 45.9335 46.1957C45.3952 46.4187 44.8028 46.477 44.2314 46.3633C43.6599 46.2496 43.135 45.9689 42.723 45.5569C42.1706 45.0044 41.8602 44.2552 41.8602 43.4739C41.8602 42.6926 42.1706 41.9434 42.723 41.3909Z" fill="black"/>
<path d="M280 30H220V60H280V30Z" fill="#77BA66"/>
<path d="M237.057 49H235.926V41.3945H231.719V49H230.594V40.4688H237.057V49ZM245.67 45.0098C245.67 45.8457 245.529 46.5762 245.248 47.2012C244.967 47.8223 244.568 48.2969 244.053 48.625C243.537 48.9531 242.936 49.1172 242.248 49.1172C241.576 49.1172 240.98 48.9531 240.461 48.625C239.941 48.293 239.537 47.8223 239.248 47.2129C238.963 46.5996 238.816 45.8906 238.809 45.0859V44.4707C238.809 43.6504 238.951 42.9258 239.236 42.2969C239.521 41.668 239.924 41.1875 240.443 40.8555C240.967 40.5195 241.564 40.3516 242.236 40.3516C242.92 40.3516 243.521 40.5176 244.041 40.8496C244.564 41.1777 244.967 41.6562 245.248 42.2852C245.529 42.9102 245.67 43.6387 245.67 44.4707V45.0098ZM244.551 44.459C244.551 43.4473 244.348 42.6719 243.941 42.1328C243.535 41.5898 242.967 41.3184 242.236 41.3184C241.525 41.3184 240.965 41.5898 240.555 42.1328C240.148 42.6719 239.939 43.4219 239.928 44.3828V45.0098C239.928 45.9902 240.133 46.7617 240.543 47.3242C240.957 47.8828 241.525 48.1621 242.248 48.1621C242.975 48.1621 243.537 47.8984 243.936 47.3711C244.334 46.8398 244.539 46.0801 244.551 45.0918V44.459ZM252.736 40.4688H253.861V49H252.736V42.4258L248.535 49H247.404V40.4688H248.535V47.043L252.736 40.4688ZM262.188 46.293C262.082 47.1953 261.748 47.8926 261.186 48.3848C260.627 48.873 259.883 49.1172 258.953 49.1172C257.945 49.1172 257.137 48.7559 256.527 48.0332C255.922 47.3105 255.619 46.3438 255.619 45.1328V44.3125C255.619 43.5195 255.76 42.8223 256.041 42.2207C256.326 41.6191 256.729 41.1582 257.248 40.8379C257.768 40.5137 258.369 40.3516 259.053 40.3516C259.959 40.3516 260.686 40.6055 261.232 41.1133C261.779 41.6172 262.098 42.3164 262.188 43.2109H261.057C260.959 42.5312 260.746 42.0391 260.418 41.7344C260.094 41.4297 259.639 41.2773 259.053 41.2773C258.334 41.2773 257.77 41.543 257.359 42.0742C256.953 42.6055 256.75 43.3613 256.75 44.3418V45.168C256.75 46.0938 256.943 46.8301 257.33 47.377C257.717 47.9238 258.258 48.1973 258.953 48.1973C259.578 48.1973 260.057 48.0566 260.389 47.7754C260.725 47.4902 260.947 46.9961 261.057 46.293H262.188ZM265.943 45.168H264.906V49H263.781V40.4688H264.906V44.2305H265.785L268.768 40.4688H270.168L266.91 44.6055L270.408 49H269.031L265.943 45.168Z" fill="black"/>
</svg>
