<svg width="50" height="50" viewBox="0 0 50 50" fill="none" xmlns="http://www.w3.org/2000/svg">
<rect width="50" height="50" rx="10" fill="#EBF005"/>
<path d="M31.6048 19.8124C31.0831 19.3627 30.4206 19.1478 29.7419 19.2076C29.0622 19.2672 28.446 19.5941 28.0068 20.128L24.191 24.7649L22.3494 22.8051C21.3736 21.7665 19.7537 21.734 18.7388 22.7327C18.2471 23.2163 17.969 23.8671 17.9557 24.5649C17.9423 25.2628 18.1953 25.9242 18.6681 26.4273L22.476 30.4799C22.9548 30.9895 23.6257 31.2818 24.3166 31.2818C24.3445 31.2818 24.3723 31.2813 24.4008 31.2804C25.1233 31.256 25.8046 30.9176 26.27 30.3519L31.9132 23.4942C32.3526 22.9604 32.5625 22.2835 32.5043 21.588C32.4459 20.8926 32.1265 20.2619 31.6048 19.8124ZM31.0169 22.7217L25.3735 29.5795C25.1218 29.8855 24.7531 30.0686 24.363 30.0818C23.9728 30.0943 23.5906 29.9358 23.3208 29.6487L19.5128 25.5961C19.2571 25.3238 19.1202 24.9659 19.1274 24.5884C19.1346 24.2107 19.2851 23.8587 19.5511 23.597C19.8186 23.3337 20.1638 23.203 20.5085 23.203C20.8714 23.203 21.2339 23.348 21.5048 23.6362L23.7975 26.0762C23.9126 26.1988 24.0729 26.265 24.2392 26.2599C24.4052 26.2543 24.5611 26.1768 24.6681 26.0468L28.9033 20.9003C29.1409 20.6114 29.4743 20.4345 29.842 20.4023C30.2092 20.3698 30.5677 20.4862 30.85 20.7295C31.1323 20.9728 31.3052 21.314 31.3367 21.6902C31.3682 22.0665 31.2546 22.4329 31.0169 22.7217Z" fill="black"/>
<path d="M39.1994 27.0612C39.5747 26.4643 40 25.7877 40 25C40 24.2123 39.5747 23.5357 39.1994 22.9389C38.9482 22.5392 38.711 22.1618 38.6349 21.8197C38.5537 21.4547 38.608 20.9959 38.6654 20.5101C38.7514 19.7835 38.8403 19.0322 38.517 18.3474C38.188 17.6506 37.5226 17.2331 36.9355 16.8648C36.5332 16.6123 36.1533 16.374 35.9322 16.0911C35.7089 15.8053 35.5647 15.3718 35.4119 14.9128C35.191 14.2486 34.9405 13.4957 34.3527 13.0161C33.768 12.5391 32.9962 12.4563 32.3153 12.3833C31.8413 12.3325 31.3937 12.2845 31.0678 12.1239C30.753 11.9687 30.4432 11.6457 30.1152 11.3037C29.631 10.7987 29.0821 10.2264 28.3375 10.0534C27.6205 9.88694 26.9285 10.1412 26.2591 10.387C25.8038 10.5541 25.3739 10.7121 25 10.7121C24.6261 10.7121 24.1962 10.5541 23.7409 10.387C23.0714 10.1411 22.3793 9.88682 21.6624 10.0534C20.9179 10.2264 20.369 10.7988 19.8847 11.3037C19.5568 11.6457 19.247 11.9687 18.9323 12.1239C18.6063 12.2845 18.1587 12.3325 17.6847 12.3833C17.0038 12.4563 16.2319 12.539 15.6473 13.0161C15.0596 13.4956 14.8091 14.2484 14.5881 14.9127C14.4354 15.3717 14.2912 15.8053 14.0678 16.0911C13.8467 16.374 13.4667 16.6123 13.0645 16.8648C12.4773 17.2331 11.812 17.6506 11.483 18.3474C11.1597 19.0321 11.2486 19.7835 11.3346 20.51C11.3921 20.9958 11.4464 21.4547 11.3651 21.8197C11.289 22.1618 11.0518 22.5392 10.8006 22.9389C10.4253 23.5358 10 24.2124 10 25C10 25.7877 10.4253 26.4643 10.8006 27.0612C11.0518 27.4608 11.289 27.8382 11.3651 28.1803C11.4463 28.5453 11.392 29.0041 11.3346 29.4899C11.2486 30.2165 11.1597 30.9679 11.483 31.6526C11.812 32.3494 12.4774 32.7669 13.0645 33.1353C13.4668 33.3877 13.8467 33.6261 14.0678 33.9089C14.2911 34.1947 14.4353 34.6282 14.5881 35.0872C14.809 35.7515 15.0595 36.5044 15.6473 36.9839C16.232 37.4609 17.0038 37.5437 17.6847 37.6167C18.1587 37.6676 18.6063 37.7155 18.9322 37.8761C19.247 38.0313 19.5568 38.3544 19.8848 38.6963C20.369 39.2013 20.9179 39.7737 21.6625 39.9466C22.3795 40.1131 23.0716 39.859 23.7409 39.6131C24.1962 39.4459 24.6261 39.288 25 39.288C25.3739 39.288 25.8038 39.4459 26.2591 39.6131C26.779 39.804 27.3126 40 27.8609 40C28.0185 40 28.1774 39.9837 28.3376 39.9466C29.0821 39.7736 29.631 39.2012 30.1153 38.6963C30.4432 38.3543 30.753 38.0313 31.0677 37.8761C31.3937 37.7155 31.8413 37.6675 32.3153 37.6166C32.9962 37.5437 33.7681 37.4609 34.3527 36.9839C34.9404 36.5044 35.1909 35.7515 35.4119 35.0873C35.5646 34.6283 35.7088 34.1947 35.9322 33.9089C36.1533 33.626 36.5333 33.3876 36.9355 33.1352C37.5227 32.7668 38.188 32.3494 38.517 31.6526C38.8403 30.9679 38.7514 30.2165 38.6654 29.49C38.6079 29.0042 38.5536 28.5453 38.6349 28.1803C38.711 27.8382 38.9482 27.4608 39.1994 27.0612ZM38.2139 26.4125C37.919 26.8816 37.6141 27.3667 37.4922 27.9142C37.3659 28.4826 37.4351 29.068 37.5021 29.6342C37.5708 30.2147 37.6356 30.7631 37.4619 31.1311C37.2824 31.5111 36.8164 31.8035 36.323 32.1131C35.8526 32.4082 35.366 32.7135 35.017 33.1601C34.6656 33.6098 34.4811 34.1646 34.3026 34.701C34.117 35.2589 33.9417 35.7858 33.6222 36.0464C33.3054 36.305 32.7651 36.3628 32.1931 36.4242C31.6404 36.4834 31.0688 36.5447 30.5591 36.7959C30.0599 37.042 29.6628 37.456 29.2788 37.8564C28.8716 38.2812 28.4868 38.6823 28.0782 38.7772C27.6944 38.8665 27.1896 38.6808 26.6549 38.4844C26.1254 38.29 25.5777 38.0888 25 38.0888C24.4223 38.0888 23.8746 38.2899 23.3451 38.4844C22.8104 38.6807 22.3056 38.8664 21.9219 38.7772C21.5131 38.6823 21.1285 38.2812 20.7212 37.8565C20.3371 37.456 19.9401 37.042 19.4408 36.7959C18.9312 36.5447 18.3596 36.4834 17.8069 36.4242C17.2349 36.3629 16.6947 36.305 16.3778 36.0464C16.0582 35.7857 15.8829 35.2587 15.6974 34.7009C15.5189 34.1645 15.3344 33.6098 14.983 33.1602C14.6339 32.7135 14.1474 32.4083 13.677 32.1131C13.1836 31.8036 12.7176 31.5111 12.5381 31.1311C12.3643 30.763 12.4292 30.2147 12.4979 29.6342C12.5649 29.068 12.6341 28.4826 12.5078 27.9143C12.3859 27.3667 12.081 26.8816 11.7861 26.4126C11.4702 25.91 11.1719 25.4354 11.1719 25C11.1719 24.5647 11.4702 24.09 11.7861 23.5875C12.081 23.1185 12.3859 22.6334 12.5078 22.0858C12.6341 21.5175 12.5649 20.9321 12.4979 20.3658C12.4292 19.7853 12.3644 19.237 12.5381 18.869C12.7176 18.489 13.1836 18.1965 13.677 17.887C14.1474 17.5918 14.634 17.2865 14.983 16.8399C15.3344 16.3903 15.5189 15.8355 15.6974 15.299C15.883 14.7412 16.0583 14.2143 16.3778 13.9536C16.6946 13.6951 17.2349 13.6372 17.8069 13.5759C18.3596 13.5167 18.9312 13.4554 19.4409 13.2042C19.9401 12.9581 20.3372 12.544 20.7212 12.1436C21.1284 11.7189 21.5132 11.3178 21.9218 11.2229C22.3056 11.1338 22.8104 11.3193 23.3451 11.5156C23.8746 11.7101 24.4223 11.9112 25 11.9112C25.5777 11.9112 26.1254 11.7101 26.6549 11.5156C27.1896 11.3193 27.6944 11.1336 28.0781 11.2229C28.4869 11.3178 28.8715 11.7189 29.2788 12.1436C29.6629 12.544 30.0599 12.9581 30.5592 13.2041C31.0688 13.4553 31.6404 13.5166 32.1931 13.5758C32.7651 13.6371 33.3053 13.695 33.6222 13.9536C33.9418 14.2143 34.1171 14.7413 34.3026 15.2991C34.4811 15.8355 34.6656 16.3903 35.017 16.8399C35.3661 17.2865 35.8526 17.5918 36.323 17.887C36.8164 18.1965 37.2824 18.4889 37.4619 18.869C37.6357 19.2371 37.5708 19.7854 37.5021 20.3659C37.4351 20.932 37.3659 21.5174 37.4922 22.0858C37.6141 22.6333 37.919 23.1184 38.2139 23.5875C38.5298 24.0901 38.8281 24.5647 38.8281 25C38.8281 25.4354 38.5298 25.91 38.2139 26.4125Z" fill="black"/>
<path d="M33.8234 16.6876C33.7066 16.5574 33.5853 16.4279 33.4629 16.3027C33.3405 16.1775 33.214 16.0534 33.0867 15.9337C32.8957 15.7542 32.5985 15.7672 32.4231 15.9628C32.2476 16.1583 32.2603 16.4624 32.4514 16.6419C32.5688 16.7522 32.6856 16.8667 32.7986 16.9823C32.9115 17.0979 33.0235 17.2175 33.1313 17.3377C33.224 17.4409 33.3505 17.4932 33.4775 17.4932C33.591 17.4932 33.7048 17.4514 33.795 17.3667C33.9862 17.1872 33.9989 16.8831 33.8234 16.6876Z" fill="black"/>
<path d="M31.4186 14.6221C29.1534 13.1453 26.4261 12.489 23.7394 12.7737C21.0133 13.0627 18.4428 14.3159 16.5013 16.3026C14.3645 18.4891 13.1205 21.3937 12.9982 24.4813C12.8768 27.5508 13.8703 30.531 15.7959 32.8727C15.8887 32.9856 16.0216 33.0438 16.1556 33.0438C16.2623 33.0438 16.3697 33.0068 16.4577 32.931C16.6562 32.7601 16.6817 32.4569 16.5147 32.2538C14.7405 30.096 13.825 27.3495 13.9369 24.5203C14.0495 21.6746 15.1961 18.9976 17.1655 16.9824C18.9549 15.1512 21.324 13.9961 23.8361 13.7299C26.3132 13.4673 28.8266 14.0722 30.9138 15.4329C31.1327 15.5755 31.4229 15.5097 31.5623 15.2858C31.7018 15.0618 31.6374 14.7647 31.4186 14.6221Z" fill="black"/>
<path d="M35.1053 18.3945C34.9659 18.1706 34.6754 18.1048 34.4567 18.2474C34.2379 18.39 34.1736 18.6872 34.313 18.911C35.6427 21.0468 36.2338 23.6189 35.9772 26.1534C35.717 28.7241 34.5882 31.1482 32.7988 32.9794C30.8294 34.9946 28.2133 36.1679 25.4324 36.2832C22.668 36.3982 19.9835 35.461 17.8748 33.6455C17.6764 33.4745 17.3801 33.5007 17.213 33.7038C17.046 33.9069 17.0715 34.2101 17.27 34.381C19.4334 36.2436 22.1539 37.254 24.979 37.254C25.1424 37.254 25.3064 37.2505 25.4705 37.2438C28.4879 37.1188 31.3264 35.8457 33.4632 33.6593C35.4047 31.6725 36.6295 29.0421 36.9118 26.2525C37.19 23.5031 36.5485 20.7124 35.1053 18.3945Z" fill="black"/>
</svg>
