<svg width="50" height="50" viewBox="0 0 50 50" fill="none" xmlns="http://www.w3.org/2000/svg">
<rect width="50" height="50" rx="10" fill="#EBF005"/>
<path d="M25 40C22.0333 40 19.1332 39.1203 16.6665 37.472C14.1997 35.8238 12.2771 33.4811 11.1418 30.7403C10.0065 27.9994 9.70945 24.9834 10.2882 22.0736C10.867 19.1639 12.2956 16.4912 14.3934 14.3934C16.4912 12.2956 19.1639 10.867 22.0736 10.2882C24.9834 9.70945 27.9994 10.0065 30.7403 11.1418C33.4811 12.2771 35.8238 14.1997 37.472 16.6665C39.1203 19.1332 40 22.0333 40 25C39.9955 28.9769 38.4137 32.7895 35.6016 35.6016C32.7895 38.4137 28.9769 39.9955 25 40ZM25 10.8571C22.2028 10.8571 19.4684 11.6866 17.1427 13.2406C14.8169 14.7947 13.0041 17.0035 11.9337 19.5878C10.8633 22.172 10.5832 25.0157 11.1289 27.7591C11.6746 30.5026 13.0216 33.0226 14.9995 35.0005C16.9774 36.9784 19.4974 38.3254 22.2409 38.8711C24.9843 39.4168 27.828 39.1367 30.4122 38.0663C32.9965 36.9959 35.2053 35.1831 36.7594 32.8574C38.3134 30.5316 39.1429 27.7972 39.1429 25C39.1387 21.2504 37.6473 17.6555 34.9959 15.0041C32.3445 12.3527 28.7496 10.8613 25 10.8571Z" fill="black"/>
<path d="M25 37.4286C22.5419 37.4286 20.1389 36.6996 18.0951 35.334C16.0512 33.9683 14.4582 32.0272 13.5175 29.7562C12.5768 27.4852 12.3307 24.9862 12.8102 22.5753C13.2898 20.1644 14.4735 17.9498 16.2117 16.2117C17.9498 14.4735 20.1644 13.2898 22.5753 12.8102C24.9862 12.3307 27.4852 12.5768 29.7562 13.5175C32.0272 14.4582 33.9683 16.0512 35.334 18.0951C36.6996 20.1389 37.4286 22.5419 37.4286 25C37.4248 28.2951 36.1142 31.4542 33.7842 33.7842C31.4542 36.1142 28.2951 37.4248 25 37.4286ZM25 13.4286C22.7114 13.4286 20.4742 14.1072 18.5713 15.3787C16.6684 16.6502 15.1852 18.4574 14.3094 20.5718C13.4336 22.6862 13.2044 25.0128 13.6509 27.2575C14.0974 29.5021 15.1995 31.5639 16.8178 33.1822C18.4361 34.8005 20.4979 35.9026 22.7425 36.3491C24.9872 36.7956 27.3138 36.5664 29.4282 35.6906C31.5426 34.8148 33.3498 33.3317 34.6213 31.4287C35.8928 29.5258 36.5714 27.2886 36.5714 25C36.5679 21.9322 35.3477 18.991 33.1784 16.8217C31.0091 14.6524 28.0679 13.4321 25 13.4286Z" fill="black"/>
<path d="M25 16.549C24.8863 16.549 24.7773 16.5039 24.697 16.4235C24.6166 16.3431 24.5714 16.2341 24.5714 16.1204V15.3841C24.5714 15.2705 24.6166 15.1615 24.697 15.0811C24.7773 15.0007 24.8863 14.9556 25 14.9556C25.1137 14.9556 25.2227 15.0007 25.3031 15.0811C25.3834 15.1615 25.4286 15.2705 25.4286 15.3841V16.1209C25.4285 16.2345 25.3833 16.3434 25.3029 16.4236C25.2225 16.5039 25.1136 16.549 25 16.549Z" fill="black"/>
<path d="M25 35.0449C24.8863 35.0449 24.7773 34.9997 24.697 34.9193C24.6166 34.839 24.5714 34.73 24.5714 34.6163V33.8796C24.5714 33.7659 24.6166 33.6569 24.697 33.5765C24.7773 33.4962 24.8863 33.451 25 33.451C25.1137 33.451 25.2227 33.4962 25.3031 33.5765C25.3834 33.6569 25.4286 33.7659 25.4286 33.8796V34.6163C25.4286 34.73 25.3834 34.839 25.3031 34.9193C25.2227 34.9997 25.1137 35.0449 25 35.0449Z" fill="black"/>
<path d="M31.2786 19.15C31.1938 19.15 31.111 19.1248 31.0405 19.0777C30.9701 19.0307 30.9151 18.9637 30.8827 18.8854C30.8503 18.8071 30.8418 18.721 30.8583 18.6378C30.8749 18.5547 30.9157 18.4784 30.9756 18.4184L31.4963 17.8977C31.5771 17.8197 31.6854 17.7765 31.7977 17.7774C31.9101 17.7784 32.0176 17.8235 32.0971 17.9029C32.1765 17.9824 32.2216 18.0899 32.2226 18.2023C32.2236 18.3146 32.1804 18.4229 32.1023 18.5037L31.5816 19.0244C31.5012 19.1048 31.3922 19.15 31.2786 19.15Z" fill="black"/>
<path d="M18.2007 32.2283C18.116 32.2283 18.0331 32.2031 17.9627 32.156C17.8922 32.1089 17.8373 32.042 17.8049 31.9637C17.7724 31.8854 17.7639 31.7993 17.7805 31.7161C17.797 31.633 17.8378 31.5567 17.8977 31.4967L18.4184 30.976C18.4993 30.8979 18.6075 30.8547 18.7199 30.8557C18.8323 30.8567 18.9398 30.9018 19.0192 30.9812C19.0987 31.0607 19.1437 31.1682 19.1447 31.2805C19.1457 31.3929 19.1025 31.5012 19.0244 31.582L18.5037 32.1027C18.4234 32.1831 18.3144 32.2283 18.2007 32.2283Z" fill="black"/>
<path d="M34.6163 25.4286H33.8796C33.7659 25.4286 33.6569 25.3834 33.5765 25.3031C33.4962 25.2227 33.451 25.1137 33.451 25C33.451 24.8863 33.4962 24.7773 33.5765 24.697C33.6569 24.6166 33.7659 24.5714 33.8796 24.5714H34.6163C34.73 24.5714 34.839 24.6166 34.9193 24.697C34.9997 24.7773 35.0449 24.8863 35.0449 25C35.0449 25.1137 34.9997 25.2227 34.9193 25.3031C34.839 25.3834 34.73 25.4286 34.6163 25.4286Z" fill="black"/>
<path d="M15.3841 25.4286C15.2705 25.4286 15.1615 25.3834 15.0811 25.3031C15.0007 25.2227 14.9556 25.1137 14.9556 25C14.9556 24.8863 15.0007 24.7773 15.0811 24.697C15.1615 24.6166 15.2705 24.5714 15.3841 24.5714H16.1209C16.2345 24.5714 16.3435 24.6166 16.4239 24.697C16.5043 24.7773 16.5494 24.8863 16.5494 25C16.5494 25.1137 16.5043 25.2227 16.4239 25.3031C16.3435 25.3834 16.2345 25.4286 16.1209 25.4286H15.3841Z" fill="black"/>
<path d="M31.7993 32.2283C31.6856 32.2283 31.5766 32.1831 31.4963 32.1027L30.9756 31.582C30.8975 31.5012 30.8543 31.3929 30.8553 31.2805C30.8563 31.1682 30.9013 31.0607 30.9808 30.9812C31.0603 30.9018 31.1677 30.8567 31.2801 30.8557C31.3925 30.8547 31.5007 30.8979 31.5816 30.976L32.1023 31.4967C32.1622 31.5567 32.203 31.633 32.2195 31.7161C32.2361 31.7993 32.2276 31.8854 32.1952 31.9637C32.1627 32.042 32.1078 32.1089 32.0373 32.156C31.9669 32.2031 31.884 32.2283 31.7993 32.2283Z" fill="black"/>
<path d="M18.7214 19.15C18.6078 19.15 18.4988 19.1048 18.4184 19.0244L17.8977 18.5037C17.8197 18.4229 17.7765 18.3146 17.7774 18.2023C17.7784 18.0899 17.8235 17.9824 17.9029 17.9029C17.9824 17.8235 18.0899 17.7784 18.2023 17.7774C18.3146 17.7765 18.4229 17.8197 18.5037 17.8977L19.0244 18.4184C19.0844 18.4784 19.1252 18.5547 19.1417 18.6378C19.1582 18.721 19.1497 18.8071 19.1173 18.8854C19.0849 18.9637 19.0299 19.0307 18.9595 19.0777C18.889 19.1248 18.8062 19.15 18.7214 19.15Z" fill="black"/>
<path d="M22.6163 27.8127C22.5315 27.8127 22.4487 27.7876 22.3782 27.7405C22.3078 27.6934 22.2529 27.6264 22.2204 27.5481C22.188 27.4698 22.1795 27.3837 22.196 27.3006C22.2126 27.2174 22.2534 27.1411 22.3133 27.0811L24.5714 24.8226V18.5714C24.5714 18.4578 24.6166 18.3488 24.697 18.2684C24.7773 18.188 24.8863 18.1429 25 18.1429C25.1137 18.1429 25.2227 18.188 25.3031 18.2684C25.3834 18.3488 25.4286 18.4578 25.4286 18.5714V25C25.4286 25.1137 25.3834 25.2227 25.303 25.303L22.9193 27.6871C22.8389 27.7675 22.7299 27.8127 22.6163 27.8127Z" fill="black"/>
</svg>
